<svg width="95" height="95" viewBox="0 0 95 95" fill="none" xmlns="http://www.w3.org/2000/svg">
<path d="M75.05 37.9257L51.7306 39.3284C55.59 32.389 60.6923 22.3622 60.6923 17.8568C60.6923 10.6168 54.7845 4.75 47.5 4.75C40.2117 4.75 34.3076 10.6207 34.3076 17.8568C34.3076 22.3582 39.4101 32.3855 43.2693 39.3284L19.95 37.9257V46.4685L44.7766 44.973L42.8247 90.25H52.1838L50.2318 44.973L75.0585 46.4685V37.9257H75.05ZM47.5 9.926C51.9011 9.926 55.4823 13.4848 55.4823 17.8561C55.4823 20.4537 51.853 28.3354 47.5 36.2513C43.1471 28.3359 39.5176 20.4536 39.5176 17.8561C39.5176 13.4846 43.0986 9.926 47.5 9.926Z" fill="#204794"/>
</svg>
