<svg width="51" height="51" viewBox="0 0 51 51" fill="none" xmlns="http://www.w3.org/2000/svg">
<path d="M15.5605 23.5013V20.1052C15.5605 19.9042 15.5605 19.8238 15.8229 19.8238C18.0722 19.8238 19.9003 19.6905 20.8081 20.2258C21.7179 20.7591 21.756 21.4954 21.7708 21.7155C21.7856 21.9355 21.7793 22.2508 21.3561 23.0189C20.9329 23.787 19.0392 23.8018 17.6723 23.8018H15.8631C15.641 23.8018 15.5605 23.7214 15.5605 23.5013ZM21.7941 27.0603C22.0037 27.3278 22.1533 27.6373 22.2327 27.9677C22.3122 28.2981 22.3197 28.6417 22.2546 28.9753C22.1896 29.3088 22.0536 29.6245 21.8559 29.9009C21.6581 30.1772 21.4033 30.4078 21.1085 30.577C20.6757 30.7592 20.2113 30.8548 19.7416 30.8585H15.842C15.641 30.8585 15.5605 30.8585 15.5605 30.5982V26.5779C15.5605 26.3769 15.5605 26.2965 15.8229 26.2965H18.415C20.0231 26.2965 21.0281 26.1568 21.7941 27.0603Z" fill="#204794"/>
<path d="M35.9477 25.1985C35.8399 24.9442 35.6762 24.7175 35.4689 24.5351C35.2616 24.3527 35.0159 24.2193 34.7501 24.1447C34.2186 23.9995 33.6624 23.9688 33.1182 24.0545C32.574 24.1402 32.0542 24.3404 31.5931 24.642C31.1336 25.1062 30.8366 25.7068 30.7467 26.3538C30.7467 26.5802 30.7467 26.6225 31.0154 26.6225H36.0302C36.2778 26.6225 36.2778 26.6225 36.2566 26.3114C36.2329 25.9226 36.129 25.5432 35.9477 25.1985ZM35.9477 25.1985C35.8399 24.9442 35.6741 24.7175 35.4668 24.5351C35.2595 24.3527 35.0159 24.2193 34.7501 24.1447C34.2186 23.9995 33.6624 23.9688 33.1182 24.0545C32.574 24.1402 32.0542 24.3404 31.5931 24.642C31.1336 25.1062 30.8345 25.7068 30.7446 26.3538C30.7446 26.5802 30.7446 26.6225 31.0133 26.6225H36.0302C36.2778 26.6225 36.2778 26.6225 36.2566 26.3114C36.2329 25.9226 36.1248 25.5432 35.9434 25.1985M38.2985 5.28955H13.542C11.3534 5.28955 9.25438 6.15897 7.7068 7.70656C6.15922 9.25414 5.28979 11.3531 5.28979 13.5417V38.2982C5.28979 40.4869 6.15922 42.5858 7.7068 44.1334C9.25438 45.681 11.3534 46.5504 13.542 46.5504H38.2985C40.4871 46.5504 42.5861 45.681 44.1337 44.1334C45.6812 42.5858 46.5507 40.4869 46.5507 38.2982V13.5417C46.5507 11.3531 45.6812 9.25414 44.1337 7.70656C42.5861 6.15897 40.4871 5.28955 38.2985 5.28955ZM30.2114 18.4296C30.2114 18.2666 30.2114 18.2031 30.3976 18.2031H37.0818V19.9382C37.0818 19.9382 37.0882 20.0609 36.9781 20.0609H30.5012C30.2114 20.0609 30.2114 20.0609 30.2114 19.7732V18.4296ZM24.0222 33.5945C21.4831 34.9762 17.2152 34.4197 12.1603 34.4197V17.3166H20.2262C22.2893 17.3166 24.7438 17.8329 25.4039 20.0186C25.7467 20.9733 25.7259 22.0208 25.3453 22.961C24.9648 23.9013 24.2512 24.6684 23.3409 25.1159C24.18 25.4264 24.9125 25.9708 25.4519 26.6847C25.9912 27.3985 26.3148 28.252 26.3842 29.144C26.4537 30.0359 26.2661 30.9292 25.8438 31.7179C25.4214 32.5066 24.782 33.1579 24.0011 33.5945H24.0222ZM39.3924 28.7257H31.1403C30.9139 28.7257 30.7065 28.8484 30.7467 29.1383C30.9943 30.355 31.5508 31.6351 32.8119 31.8213C33.4777 32.0195 34.1908 31.9891 34.8374 31.7348C35.484 31.4806 36.0268 31.0171 36.3793 30.4185C36.3793 30.4185 36.483 30.2936 36.5444 30.2936H39.2274C39.2274 30.2936 39.3924 30.2936 39.3501 30.4375C39.0672 31.2387 38.6484 31.9853 38.1123 32.6444C37.3952 33.3294 36.5299 33.8399 35.5836 34.1363C34.6373 34.4327 33.6354 34.507 32.6557 34.3536C31.676 34.2001 30.7448 33.8229 29.9345 33.2512C29.1242 32.6796 28.4565 31.9289 27.9833 31.0575C27.6922 30.4764 27.5107 29.8466 27.4479 29.1997C27.0799 27.5738 27.3612 25.8684 28.2319 24.4468C29.1025 23.0252 30.4938 21.9997 32.1094 21.5887C36.7919 20.5772 39.7627 23.7956 39.7627 28.3343C39.7697 28.3873 39.7643 28.4413 39.7471 28.4919C39.7299 28.5426 39.7012 28.5886 39.6634 28.6264C39.6256 28.6642 39.5796 28.6929 39.5289 28.7101C39.4783 28.7273 39.4243 28.7327 39.3713 28.7257H39.3924ZM34.7712 24.1447C34.2402 23.9974 33.6836 23.9671 33.1398 24.0558C32.596 24.1405 32.1094 24.2442 31.6142 24.642C31.1191 25.0376 30.8567 25.7063 30.7679 26.3538C30.7679 26.5802 30.7679 26.6225 31.0366 26.6225H36.0302C36.2778 26.6225 36.2778 26.6225 36.2566 26.3114C36.2329 25.9226 36.129 25.5432 35.9477 25.1985C35.8399 24.9442 35.6762 24.7175 35.4689 24.5351C35.2616 24.3527 35.0159 24.2193 34.7501 24.1447H34.7712Z" fill="#204794"/>
</svg>
