<svg width="43" height="43" viewBox="0 0 43 43" fill="none" xmlns="http://www.w3.org/2000/svg">
<path d="M22.2834 23.5259C22.3641 22.1008 23.0652 20.8427 24.1261 19.9535C25.1655 19.0794 26.5609 18.5449 28.0932 18.5449C29.6173 18.5449 31.0124 19.0791 32.0505 19.9535C33.1131 20.8427 33.8098 22.1008 33.8931 23.5259C33.9737 24.9872 33.3815 26.3511 32.3461 27.3613C31.2852 28.3859 29.7839 29.0332 28.0932 29.0332C26.401 29.0332 24.893 28.3899 23.8388 27.3613C22.7994 26.3514 22.2085 24.9949 22.2915 23.5326L22.2834 23.5259Z" fill="#235785"/>
<path d="M13.184 26.5394C13.1934 27.097 13.3734 28.1821 13.6408 29.0266C14.2059 30.8192 15.165 32.4777 16.4929 33.931C17.8575 35.431 19.5412 36.637 21.4816 37.4953C23.5218 38.3922 25.7363 38.8515 28.0341 38.8515C30.3319 38.8484 32.5464 38.3812 34.5862 37.4735C36.5266 36.6061 38.211 35.4014 39.5749 33.8934C40.9099 32.424 41.866 30.7668 42.4273 28.9729C42.7084 28.0819 42.8882 27.162 42.9631 26.2306C43.033 25.327 43.0035 24.4149 42.8748 23.5028C42.6233 21.7453 42.0031 20.0609 41.055 18.5598C40.1903 17.1657 39.0676 15.953 37.7326 14.9273L37.7366 14.926L24.3142 4.67789C24.3021 4.66849 24.2914 4.65908 24.2793 4.65102C23.3995 3.97847 21.913 3.98116 20.9502 4.65371C19.9712 5.33599 19.8584 6.46273 20.7298 7.17189L20.7258 7.17458L26.3299 11.7044L9.26794 11.7215H9.2451C7.83517 11.7228 6.47731 12.6416 6.21158 13.8087C5.93611 14.9915 6.89521 15.9788 8.36561 15.9788L8.36292 15.9842L17.0086 15.9681L1.53869 27.7225C1.51988 27.7373 1.49838 27.7521 1.47956 27.7669C0.0232746 28.8735 -0.446702 30.7198 0.470408 31.8801C1.40364 33.0633 3.38164 33.0713 4.85338 31.8868L13.2713 25.0303C13.2713 25.0303 13.1477 25.9568 13.1584 26.5074L13.184 26.5394ZM34.8721 29.6364C33.136 31.3927 30.7011 32.3944 28.0771 32.3944C25.4464 32.3984 23.0115 31.4142 21.275 29.6592C20.4264 28.7995 19.8046 27.8206 19.418 26.7732C19.0399 25.7425 18.8942 24.641 18.991 23.5475C19.0829 22.4805 19.4011 21.4454 19.9242 20.511C20.4305 19.5992 21.1302 18.7708 21.9869 18.0697C23.6776 16.7065 25.8233 15.96 28.0673 15.96C30.3211 15.9573 32.4671 16.6903 34.1579 18.0549C35.0145 18.752 35.7116 19.5764 36.2205 20.4881C36.7448 21.4225 37.0626 22.4584 37.1524 23.526C37.248 24.6191 37.1022 25.7198 36.7255 26.7503C36.3401 27.8058 35.717 28.7848 34.8667 29.6444L34.8721 29.6364Z" fill="#E87500"/>
</svg>
