<svg width="42" height="41" viewBox="0 0 42 41" fill="none" xmlns="http://www.w3.org/2000/svg">
<g clip-path="url(#clip0_131_125)">
<path d="M35.0273 0H6.97266C3.12176 0 0 3.12058 0 6.97V33.9644C0 37.8138 3.12176 40.9344 6.97266 40.9344H35.0273C38.8782 40.9344 42 37.8138 42 33.9644V6.97C42 3.12058 38.8782 0 35.0273 0Z" fill="#00005B"/>
<path d="M16.8727 24.4905H10.3641L9.03983 28.6104C9.02285 28.681 8.98313 28.7441 8.92678 28.7899C8.87042 28.8358 8.80056 28.8618 8.72794 28.8641L5.40535 28.8639C5.21722 28.8639 5.15149 28.7606 5.20815 28.554L10.8432 12.3985L10.8995 12.2288L10.9182 12.1707L10.9559 12.0493C10.9746 11.9867 10.9933 11.9203 11.0122 11.8483C11.086 11.4725 11.1237 11.0906 11.1249 10.7077C11.1211 10.6809 11.1236 10.6536 11.1321 10.6279C11.1407 10.6023 11.1551 10.579 11.1742 10.5599C11.1934 10.5407 11.2167 10.5263 11.2424 10.5178C11.268 10.5092 11.2953 10.5067 11.3221 10.5105H15.802C15.9332 10.5105 16.0084 10.5575 16.0274 10.6514L22.4231 28.5823C22.4794 28.7702 22.4231 28.864 22.2541 28.8639H18.5912C18.5283 28.8708 18.4651 28.8546 18.4133 28.8183C18.3615 28.7821 18.3246 28.7282 18.3095 28.6668L16.8727 24.4905ZM11.3785 21.0169H15.8302L15.7667 20.8074L15.6648 20.4758L15.5157 20.0009L15.2294 19.1043L14.9567 18.2426L14.4495 16.6372C14.3093 16.1941 14.1748 15.7492 14.0459 15.3026L13.9018 14.7949L13.7463 14.2384L13.6042 13.7223H13.576C13.435 14.3983 13.2633 15.0676 13.0615 15.728L12.8712 16.3386L12.4134 17.8146L12.1815 18.5665C12.1396 18.7023 12.0977 18.8366 12.056 18.9693L11.9313 19.3626L11.8072 19.7467L11.6839 20.1213L11.5611 20.4865C11.5 20.6669 11.4391 20.8437 11.3785 21.0169ZM32.7916 22.8871H27.2412C27.3091 23.4361 27.4915 23.9647 27.7766 24.4387C28.0916 24.9082 28.5372 25.2753 29.0584 25.4949C29.7648 25.8006 30.5288 25.9503 31.2983 25.9337C31.9089 25.9219 32.5171 25.8552 33.1157 25.7343C33.651 25.6621 34.1756 25.5255 34.678 25.3273C34.772 25.2524 34.819 25.2993 34.8191 25.468V28.1436C34.8237 28.2166 34.8091 28.2894 34.7766 28.3549C34.7445 28.406 34.7012 28.4493 34.65 28.4816C34.0926 28.7284 33.506 28.9031 32.9044 29.0015C32.087 29.1549 31.2564 29.2256 30.4249 29.2126C29.1327 29.2126 28.0435 29.0188 27.1572 28.6312L27.0719 28.593C26.2199 28.2179 25.4674 27.6489 24.8745 26.9314C24.3206 26.2553 23.9086 25.4746 23.6629 24.636C23.4198 23.8082 23.2965 22.9499 23.2969 22.0871C23.2942 21.1451 23.4416 20.2086 23.7336 19.3129C24.0147 18.4392 24.4593 17.6269 25.0436 16.919C25.6202 16.2195 26.341 15.6527 27.1568 15.2572C27.9831 14.8537 28.96 14.7089 30.0869 14.7089C31.0216 14.6855 31.9499 14.8682 32.8059 15.2441C33.5256 15.5508 34.1592 16.0292 34.6513 16.6372C35.113 17.2326 35.4659 17.9047 35.6937 18.6228C35.9156 19.3147 36.0296 20.0367 36.0319 20.7633C36.0319 21.1766 36.0178 21.5522 35.9897 21.89L35.9646 22.1793L35.9384 22.4538L35.9228 22.5929L35.9192 22.6222C35.9119 22.6843 35.882 22.7416 35.8353 22.7831C35.7886 22.8246 35.7282 22.8476 35.6657 22.8476L35.5884 22.8492L35.4921 22.8541L35.4171 22.8596L35.2419 22.8745L35.088 22.8897C35.0461 22.8941 35.0027 22.8982 34.9576 22.902L34.818 22.913L34.6688 22.9229L34.5105 22.9311L34.3429 22.9381L34.2554 22.9411L34.0738 22.946C33.8941 22.9504 33.7101 22.9393 33.5212 22.9255L33.2348 22.9045C33.0874 22.8937 32.9395 22.8879 32.7916 22.8871ZM27.2414 20.3213H31.0782L31.405 20.3192L31.6271 20.3161L31.771 20.3128L31.9325 20.3072C32.0769 20.2928 32.2164 20.2466 32.341 20.1719V20.003C32.3354 19.7827 32.2975 19.5645 32.2284 19.3552C32.0764 18.8747 31.7708 18.4574 31.3585 18.1673C30.9462 17.8772 30.4501 17.7305 29.9463 17.7496C29.4721 17.721 28.9998 17.8309 28.5871 18.066C28.1743 18.3011 27.8389 18.6511 27.6217 19.0735C27.4286 19.4663 27.3002 19.8876 27.2414 20.3213Z" fill="#9999FF"/>
</g>
<defs>
<clipPath id="clip0_131_125">
<rect width="42" height="41" fill="white"/>
</clipPath>
</defs>
</svg>
