<svg width="37" height="56" viewBox="0 0 37 56" fill="none" xmlns="http://www.w3.org/2000/svg">
<g clip-path="url(#clip0_131_95)">
<path d="M9.25 55.5C14.356 55.5 18.5 51.356 18.5 46.25V37H9.25C4.144 37 0 41.144 0 46.25C0 51.356 4.144 55.5 9.25 55.5Z" fill="#0ACF83"/>
<path d="M0 27.75C0 22.644 4.144 18.5 9.25 18.5H18.5V37H9.25C4.144 37 0 32.856 0 27.75Z" fill="#A259FF"/>
<path d="M0 9.25C0 4.144 4.144 0 9.25 0H18.5V18.5H9.25C4.144 18.5 0 14.356 0 9.25Z" fill="#F24E1E"/>
<path d="M18.5 0H27.75C32.856 0 37 4.144 37 9.25C37 14.356 32.856 18.5 27.75 18.5H18.5V0Z" fill="#FF7262"/>
<path d="M37 27.75C37 32.856 32.856 37 27.75 37C22.644 37 18.5 32.856 18.5 27.75C18.5 22.644 22.644 18.5 27.75 18.5C32.856 18.5 37 22.644 37 27.75Z" fill="#1ABCFE"/>
</g>
<defs>
<clipPath id="clip0_131_95">
<rect width="37" height="55.5" fill="white"/>
</clipPath>
</defs>
</svg>
