<svg width="47" height="47" viewBox="0 0 47 47" fill="none" xmlns="http://www.w3.org/2000/svg">
<g clip-path="url(#clip0_131_101)">
<path d="M8.33516 0.587891H38.7016C43.2914 0.587891 47.0367 4.29648 47.0367 8.92305V38.1145C47.0367 42.7043 43.3281 46.4496 38.7016 46.4496H8.33516C3.70859 46.4129 0 42.7043 0 38.0777V8.92305C0 4.29648 3.70859 0.587891 8.33516 0.587891Z" fill="#330000"/>
<path d="M22.7292 28.0166H15.4222L13.9534 32.6064C13.9167 32.79 13.7698 32.9002 13.5862 32.8635H9.91436C9.69405 32.8635 9.65733 32.7533 9.69405 32.4963L16.0097 14.3572C16.0831 14.1736 16.1198 13.9533 16.1933 13.6963C16.2667 13.2924 16.3034 12.8518 16.3034 12.4111C16.2667 12.301 16.3769 12.2275 16.4503 12.1908H21.5175C21.6644 12.1908 21.7378 12.2643 21.7745 12.3377L28.9347 32.4963C29.0081 32.7166 28.9347 32.8268 28.7511 32.8268H24.6386C24.4917 32.8635 24.3815 32.7533 24.3081 32.6064L22.7292 28.0166ZM16.5605 24.0143H21.5175C21.4073 23.6104 21.2605 23.0963 21.0769 22.6189C20.8933 22.1049 20.7097 21.5174 20.5628 20.9299C20.3792 20.3057 20.1956 19.7182 20.012 19.1307C19.8284 18.5064 19.6448 17.9557 19.498 17.4049C19.3511 16.8541 19.2042 16.34 19.0573 15.8627H19.0206C18.837 16.7072 18.6167 17.5518 18.3597 18.3963C18.0659 19.351 17.7722 20.3057 17.4417 21.2971C17.148 22.2885 16.8542 23.2064 16.5605 24.0143ZM33.3042 15.6791C32.6433 15.7158 32.019 15.4588 31.5784 14.9814C31.1378 14.5041 30.8808 13.8432 30.9175 13.1822C30.8808 12.5213 31.1378 11.8971 31.6151 11.4564C32.0925 11.0158 32.7167 10.7588 33.3409 10.7588C34.112 10.7588 34.6995 10.9791 35.1401 11.4564C35.5808 11.9338 35.8011 12.558 35.8011 13.1822C35.8378 13.8432 35.5808 14.5041 35.1034 14.9814C34.6261 15.4588 33.9651 15.7158 33.3042 15.6791ZM31.1011 32.6799V17.5885C31.1011 17.4049 31.1745 17.3314 31.3581 17.3314H35.2503C35.4339 17.3314 35.5073 17.4416 35.5073 17.5885V32.6799C35.5073 32.9002 35.4339 33.0104 35.2503 33.0104H31.3948C31.2112 32.9736 31.1011 32.8635 31.1011 32.6799Z" fill="#FF9A00"/>
</g>
<defs>
<clipPath id="clip0_131_101">
<rect width="47" height="47" fill="white"/>
</clipPath>
</defs>
</svg>
