<svg width="51" height="51" viewBox="0 0 51 51" fill="none" xmlns="http://www.w3.org/2000/svg">
<path d="M40.203 6.34766C41.3253 6.34766 42.4017 6.79351 43.1954 7.58715C43.989 8.38078 44.4349 9.45717 44.4349 10.5795V40.2027C44.4349 41.3251 43.989 42.4015 43.1954 43.1951C42.4017 43.9888 41.3253 44.4346 40.203 44.4346H10.5798C9.45742 44.4346 8.38102 43.9888 7.58739 43.1951C6.79376 42.4015 6.3479 41.3251 6.3479 40.2027V10.5795C6.3479 9.45717 6.79376 8.38078 7.58739 7.58715C8.38102 6.79351 9.45742 6.34766 10.5798 6.34766H40.203ZM39.145 39.1448V27.9303C39.145 26.1008 38.4183 24.3463 37.1246 23.0527C35.831 21.759 34.0765 21.0323 32.247 21.0323C30.4485 21.0323 28.3537 22.1326 27.338 23.783V21.4343H21.4346V39.1448H27.338V28.7132C27.338 27.0839 28.6499 25.7508 30.2792 25.7508C31.0649 25.7508 31.8183 26.0629 32.3739 26.6185C32.9294 27.174 33.2415 27.9275 33.2415 28.7132V39.1448H39.145ZM14.5578 18.1123C15.5005 18.1123 16.4047 17.7378 17.0714 17.0711C17.738 16.4045 18.1125 15.5003 18.1125 14.5575C18.1125 12.5897 16.5256 10.9816 14.5578 10.9816C13.6094 10.9816 12.6998 11.3583 12.0292 12.0289C11.3586 12.6996 10.9818 13.6091 10.9818 14.5575C10.9818 16.5253 12.5899 18.1123 14.5578 18.1123ZM17.4989 39.1448V21.4343H11.6378V39.1448H17.4989Z" fill="#204794"/>
</svg>
