<svg width="123" height="96" viewBox="0 0 123 96" fill="none" xmlns="http://www.w3.org/2000/svg">
<path d="M97.1686 22.0508C97.1686 22.0508 86.5661 1.73142 86.1432 1.24036C85.7202 0.749293 85.0406 0 85.0406 0C85.0406 0 84.1616 0.7158 83.6625 1.24036C83.1633 1.76491 81.2684 5.06507 80.4927 7.71777C79.7169 10.3705 79.6658 14.7465 79.6658 14.7465C79.6658 14.7465 73.8278 6.17008 72.2236 4.68579C70.6194 3.2015 67.8135 1.24036 67.8135 1.24036C67.8135 1.24036 65.5879 3.16654 64.5058 4.68579C63.4238 6.20504 62.2344 12.6113 61.6117 16.4003C60.989 20.1893 60.0596 24.0251 60.6469 26.1853C61.2343 28.3455 63.2655 31.2845 63.2655 31.2845C63.2655 31.2845 60.7127 36.3191 59.6822 39.4158C58.6518 42.5125 58.1819 44.3117 57.7528 47.547C57.3236 50.7823 58.0612 56.7393 57.7528 58.4346C57.4444 60.1299 56.6503 62.7069 56.6503 62.7069L62.7142 65.7389L74.5665 70.0112L83.9381 71.6651C83.9381 71.6651 92.8716 76.0672 93.4624 73.8602C94.0532 71.6532 93.9523 68.2877 93.7231 66.0145C93.4939 63.7414 93.9783 60.3957 94.2744 59.3993C94.5705 58.4029 94.687 57.7993 95.2391 56.9186C95.7913 56.0379 99.5949 54.4222 102.681 53.7488C105.768 53.0754 110.884 53.9163 111.915 53.7488C112.947 53.5812 113.764 53.6166 114.534 53.1975C115.303 52.7784 115.936 52.2791 116.187 51.6815C116.438 51.084 115.978 50.5749 116.325 50.0277C116.673 49.4806 117.797 49.8645 118.53 49.3386C119.263 48.8128 119.78 47.7631 120.046 46.7201C120.312 45.6771 119.825 45.0172 120.046 43.9638C120.267 42.9103 122.251 40.2427 122.251 40.2427C122.251 40.2427 115.816 38.16 113.844 36.5216C111.873 34.8833 111.31 33.4257 109.71 31.4224C108.11 29.4191 105.579 24.397 103.37 23.2911C101.162 22.1853 97.1686 22.0508 97.1686 22.0508Z" fill="#204794"/>
<path d="M73.732 28.9416C75.1307 27.4283 76.5046 27.1539 77.7287 25.4962C78.9528 23.8384 72.074 8.45793 71.1135 6.75299C70.153 5.04805 67.9437 2.48065 67.9437 2.48065C67.9437 2.48065 66.395 5.0238 65.6008 6.75299C64.8066 8.48218 62.0102 21.784 62.5688 23.7045C63.1274 25.625 63.6068 26.6754 64.6361 28.3903C65.6653 30.1052 67.8306 33.5228 70.3368 33.0365C72.843 32.5502 72.3333 30.4549 73.732 28.9416Z" fill="#0E0E0E"/>
<path d="M104.87 32.4933L106.816 34.7826H99.3345C97.4241 34.7826 95.5426 34.3153 93.8542 33.4214L90.0021 31.3821L97.124 29.9287C98.5215 29.6434 99.9701 29.7402 101.317 30.2088L101.758 30.3623C102.967 30.7826 104.041 31.5183 104.87 32.4933Z" fill="#0E0E0E"/>
<path d="M100.201 34.8635C101.48 34.5256 101.992 30.0442 101.992 30.0442L98.2712 29.6412C98.2712 29.6412 98.9214 35.2014 100.201 34.8635Z" fill="#204794"/>
<mask id="path-5-outside-1_123_31" maskUnits="userSpaceOnUse" x="-2.57857" y="19.8755" width="101.625" height="73.3372" fill="black">
<rect fill="white" x="-2.57857" y="19.8755" width="101.625" height="73.3372"/>
<path d="M12.6598 46.5533L14.8721 40.5681L16.0817 48.3882L19.2176 46.9181L18.3855 36.5348L22.9006 35.6112L23.0694 41.0241L25.8937 28.2599L37.9803 47.4917L35.5608 36.0804L47.3228 44.2524L43.367 47.7913L48.5845 51.1356L48.1817 41.481L47.284 40.7263L52.6452 33.0368L51.6297 42.8474L51.6552 50.8365L56.8219 33.9738L69.1046 37.0063L69.0653 41.9377L61.011 43.1343L73.3329 45.4641L80.3599 33.1686L80.9705 47.5334L86.3312 48.3014L80.8533 49.6413L81.243 59.5301L83.13 55.1713L92.887 82.4963L87.656 87.8437L85.0414 75.7168L80.8908 74.3112L77.2474 79.0299L75.5957 63.9147L79.5509 68.8333L77.9907 50.4218L74.3994 51.6317L74.364 58.5783L60.087 59.8561L73.0726 45.9195L55.7535 57.4076L53.0081 56.0803L47.2308 58.5782L48.4542 53.4777L42.4603 59.0051L38.6305 52.6964L35.0527 54.6771L30.7558 45.8854L32.7758 43.9132L27.1937 47.1267L26.842 53.4503L22.509 55.3237L22.1573 61.6474L19.1777 60.307L19.2303 50.9126L16.5759 52.1746L17.1483 54.5557L12.516 57.5871L12.2562 49.585L7.72838 46.514L12.6598 46.5533Z"/>
</mask>
<path d="M12.6598 46.5533L14.8721 40.5681L16.0817 48.3882L19.2176 46.9181L18.3855 36.5348L22.9006 35.6112L23.0694 41.0241L25.8937 28.2599L37.9803 47.4917L35.5608 36.0804L47.3228 44.2524L43.367 47.7913L48.5845 51.1356L48.1817 41.481L47.284 40.7263L52.6452 33.0368L51.6297 42.8474L51.6552 50.8365L56.8219 33.9738L69.1046 37.0063L69.0653 41.9377L61.011 43.1343L73.3329 45.4641L80.3599 33.1686L80.9705 47.5334L86.3312 48.3014L80.8533 49.6413L81.243 59.5301L83.13 55.1713L92.887 82.4963L87.656 87.8437L85.0414 75.7168L80.8908 74.3112L77.2474 79.0299L75.5957 63.9147L79.5509 68.8333L77.9907 50.4218L74.3994 51.6317L74.364 58.5783L60.087 59.8561L73.0726 45.9195L55.7535 57.4076L53.0081 56.0803L47.2308 58.5782L48.4542 53.4777L42.4603 59.0051L38.6305 52.6964L35.0527 54.6771L30.7558 45.8854L32.7758 43.9132L27.1937 47.1267L26.842 53.4503L22.509 55.3237L22.1573 61.6474L19.1777 60.307L19.2303 50.9126L16.5759 52.1746L17.1483 54.5557L12.516 57.5871L12.2562 49.585L7.72838 46.514L12.6598 46.5533Z" fill="#0E0E0E"/>
<path d="M12.6598 46.5533L14.8721 40.5681L16.0817 48.3882L19.2176 46.9181L18.3855 36.5348L22.9006 35.6112L23.0694 41.0241L25.8937 28.2599L37.9803 47.4917L35.5608 36.0804L47.3228 44.2524L43.367 47.7913L48.5845 51.1356L48.1817 41.481L47.284 40.7263L52.6452 33.0368L51.6297 42.8474L51.6552 50.8365L56.8219 33.9738L69.1046 37.0063L69.0653 41.9377L61.011 43.1343L73.3329 45.4641L80.3599 33.1686L80.9705 47.5334L86.3312 48.3014L80.8533 49.6413L81.243 59.5301L83.13 55.1713L92.887 82.4963L87.656 87.8437L85.0414 75.7168L80.8908 74.3112L77.2474 79.0299L75.5957 63.9147L79.5509 68.8333L77.9907 50.4218L74.3994 51.6317L74.364 58.5783L60.087 59.8561L73.0726 45.9195L55.7535 57.4076L53.0081 56.0803L47.2308 58.5782L48.4542 53.4777L42.4603 59.0051L38.6305 52.6964L35.0527 54.6771L30.7558 45.8854L32.7758 43.9132L27.1937 47.1267L26.842 53.4503L22.509 55.3237L22.1573 61.6474L19.1777 60.307L19.2303 50.9126L16.5759 52.1746L17.1483 54.5557L12.516 57.5871L12.2562 49.585L7.72838 46.514L12.6598 46.5533Z" stroke="#204794" stroke-width="4.69139" mask="url(#path-5-outside-1_123_31)"/>
<path d="M27.6624 42.924L27.4285 38.6822L29.5882 42.0914L27.6624 42.924Z" fill="#204794" stroke="#204794" stroke-width="0.938279"/>
<path d="M41.1294 45.7873L40.8303 42.7166L43.3285 44.2651L41.1294 45.7873Z" fill="#204794"/>
<path d="M41.6755 52.8656L41.6236 49.5737L44.3169 51.8379L41.6755 52.8656Z" fill="#204794"/>
<path d="M41.1294 45.7873L40.8303 42.7166L43.3285 44.2651L41.1294 45.7873Z" stroke="#204794" stroke-width="0.938279"/>
<path d="M41.6755 52.8656L41.6236 49.5737L44.3169 51.8379L41.6755 52.8656Z" stroke="#204794" stroke-width="0.938279"/>
<path d="M59.5374 39.9593L60.3702 37.6563L64.5078 39.296L59.5374 39.9593Z" fill="#204794"/>
<path d="M55.9456 49.6267L57.8455 45.0337L64.1301 46.088L55.9456 49.6267Z" fill="#204794"/>
<path d="M59.5374 39.9593L60.3702 37.6563L64.5078 39.296L59.5374 39.9593Z" stroke="#204794" stroke-width="0.938279"/>
<path d="M55.9456 49.6267L57.8455 45.0337L64.1301 46.088L55.9456 49.6267Z" stroke="#204794" stroke-width="0.938279"/>
<path d="M77.7046 47.1168L76.2993 47.0387L77.6006 44.7617L77.7046 47.1168Z" fill="#204794" stroke="#204794" stroke-width="0.938279"/>
<path d="M84.3129 71.9179L82.0099 71.085L82.9339 67.1425L84.3129 71.9179Z" fill="#204794" stroke="#204794" stroke-width="0.938279"/>
<mask id="path-11-outside-2_123_31" maskUnits="userSpaceOnUse" x="5.1674" y="47.3253" width="78.0225" height="48.0541" fill="black">
<rect fill="white" x="5.1674" y="47.3253" width="78.0225" height="48.0541"/>
<path d="M11.9955 62.2637L25.6499 55.5038L24.0802 61.6626L18.4918 62.7792L18.1019 66.2309L23.1613 65.9285L22.3399 69.3315L17.879 70.1385L17.6804 73.8303L25.1652 71.3986L27.4586 56.1072L29.9896 56.9337L28.2549 73.0585L32.5488 71.7957L30.8473 54.7509L43.8083 63.3832L39.2682 68.4035L43.1478 70.8082L45.2476 60.5395L53.7891 59.7751L51.3113 64.3019L56.0846 76.2024L55.4942 58.2198L63.0927 72.1874L62.449 61.1479L65.7225 61.2993L67.6374 81.6943L67.4036 76.3089L66.6255 61.3411L69.1589 61.1144L72.9438 71.4748L72.1774 61.1455L75.338 61.2917L76.1655 82.5252L71.4985 75.8196L71.1497 83.358L67.6374 81.6943L67.7477 83.2006L60.1176 73.3807L59.3792 83.7847L56.3698 77.5456L51.7834 81.3972L49.7588 74.1769L46.474 74.2428L45.3358 80.4503L39.3612 83.0527L41.4354 76.2954L30.8013 83.3966L33.1888 75.8008L24.7193 79.2137L24.9702 73.1244L12.2482 81.3006L13.6338 70.9698L12.2906 71.2551L13.3765 67.445L14.0237 67.5181L14.3162 64.9293L11.9955 62.2637Z"/>
</mask>
<path d="M11.9955 62.2637L25.6499 55.5038L24.0802 61.6626L18.4918 62.7792L18.1019 66.2309L23.1613 65.9285L22.3399 69.3315L17.879 70.1385L17.6804 73.8303L25.1652 71.3986L27.4586 56.1072L29.9896 56.9337L28.2549 73.0585L32.5488 71.7957L30.8473 54.7509L43.8083 63.3832L39.2682 68.4035L43.1478 70.8082L45.2476 60.5395L53.7891 59.7751L51.3113 64.3019L56.0846 76.2024L55.4942 58.2198L63.0927 72.1874L62.449 61.1479L65.7225 61.2993L67.6374 81.6943L67.4036 76.3089L66.6255 61.3411L69.1589 61.1144L72.9438 71.4748L72.1774 61.1455L75.338 61.2917L76.1655 82.5252L71.4985 75.8196L71.1497 83.358L67.6374 81.6943L67.7477 83.2006L60.1176 73.3807L59.3792 83.7847L56.3698 77.5456L51.7834 81.3972L49.7588 74.1769L46.474 74.2428L45.3358 80.4503L39.3612 83.0527L41.4354 76.2954L30.8013 83.3966L33.1888 75.8008L24.7193 79.2137L24.9702 73.1244L12.2482 81.3006L13.6338 70.9698L12.2906 71.2551L13.3765 67.445L14.0237 67.5181L14.3162 64.9293L11.9955 62.2637Z" fill="#0E0E0E"/>
<path d="M25.6499 55.5038L27.7537 56.04L28.9204 51.462L24.6866 53.5581L25.6499 55.5038ZM11.9955 62.2637L11.0322 60.3181L8.51002 61.5668L10.358 63.6894L11.9955 62.2637ZM14.3162 64.9293L16.4735 65.173L16.5807 64.224L15.9536 63.5037L14.3162 64.9293ZM14.0237 67.5181L13.78 69.6754L15.9374 69.9191L16.1811 67.7618L14.0237 67.5181ZM13.3765 67.445L13.6202 65.2876L11.7927 65.0812L11.2886 66.8499L13.3765 67.445ZM12.2906 71.2551L10.2027 70.66L9.21439 74.1278L12.7417 73.3788L12.2906 71.2551ZM13.6338 70.9698L15.7856 71.2584L16.1949 68.2064L13.1828 68.8461L13.6338 70.9698ZM12.2482 81.3006L10.0964 81.0121L9.47234 85.6655L13.422 83.127L12.2482 81.3006ZM24.9702 73.1244L27.1394 73.2138L27.3114 69.039L23.7964 71.298L24.9702 73.1244ZM24.7193 79.2137L22.55 79.1243L22.4116 82.4843L25.5307 81.2274L24.7193 79.2137ZM33.1888 75.8008L35.26 76.4518L36.6371 72.0705L32.3774 73.7871L33.1888 75.8008ZM30.8013 83.3966L28.7302 82.7456L26.8824 88.6241L32.007 85.2021L30.8013 83.3966ZM41.4354 76.2954L43.5109 76.9325L45.3001 71.1041L40.2298 74.4899L41.4354 76.2954ZM39.3612 83.0527L37.2857 82.4155L35.9005 86.9281L40.2281 85.0431L39.3612 83.0527ZM45.3358 80.4503L46.2028 82.4407L47.2627 81.9791L47.4713 80.8419L45.3358 80.4503ZM46.474 74.2428L46.4305 72.0722L44.6583 72.1077L44.3386 73.8512L46.474 74.2428ZM49.7588 74.1769L51.8492 73.5907L51.3955 71.9725L49.7152 72.0063L49.7588 74.1769ZM51.7834 81.3972L49.693 81.9834L50.6019 85.2245L53.1796 83.0597L51.7834 81.3972ZM56.3698 77.5456L58.3253 76.6023L57.112 74.0871L54.9736 75.883L56.3698 77.5456ZM59.3792 83.7847L57.4238 84.7279L60.9675 92.0745L61.5449 83.9384L59.3792 83.7847ZM60.1176 73.3807L61.832 72.0486L58.3533 67.5717L57.952 73.227L60.1176 73.3807ZM67.7477 83.2006L66.0333 84.5327L70.4371 90.2003L69.913 83.0421L67.7477 83.2006ZM63.0927 72.1874L61.1856 73.2249L65.2601 72.061L63.0927 72.1874ZM55.4942 58.2198L57.4013 57.1823L53.3243 58.291L55.4942 58.2198ZM56.0846 76.2024L54.0695 77.0106L58.2544 76.1312L56.0846 76.2024ZM51.3113 64.3019L49.4069 63.2595L48.9147 64.1587L49.2963 65.1101L51.3113 64.3019ZM53.7891 59.7751L55.6935 60.8175L57.6461 57.2501L53.5956 57.6127L53.7891 59.7751ZM45.2476 60.5395L45.0541 58.3771L43.4444 58.5212L43.1206 60.1046L45.2476 60.5395ZM43.1478 70.8082L42.004 72.6535L44.6509 74.2941L45.2748 71.2432L43.1478 70.8082ZM39.2682 68.4035L37.6579 66.9473L35.9122 68.8777L38.1244 70.2489L39.2682 68.4035ZM43.8083 63.3832L45.4186 64.8395L47.1074 62.972L45.0118 61.5763L43.8083 63.3832ZM30.8473 54.7509L32.0508 52.944L28.2311 50.4L28.687 54.9666L30.8473 54.7509ZM32.5488 71.7957L33.1614 73.8786L34.8879 73.3708L34.7092 71.5801L32.5488 71.7957ZM28.2549 73.0585L26.0963 72.8263L25.7486 76.0586L28.8675 75.1414L28.2549 73.0585ZM29.9896 56.9337L32.1482 57.1659L32.3365 55.4162L30.6636 54.8699L29.9896 56.9337ZM27.4586 56.1072L28.1325 54.0434L25.6923 53.2465L25.3116 55.7852L27.4586 56.1072ZM25.1652 71.3986L25.836 73.4634L27.113 73.0485L27.3122 71.7206L25.1652 71.3986ZM17.6804 73.8303L15.5125 73.7137L15.3425 76.8726L18.3512 75.8951L17.6804 73.8303ZM17.879 70.1385L17.4925 68.0021L15.8032 68.3077L15.711 70.0219L17.879 70.1385ZM22.3399 69.3315L22.7263 71.4679L24.1184 71.2161L24.4503 69.8409L22.3399 69.3315ZM23.1613 65.9285L25.2717 66.4379L25.96 63.5863L23.0317 63.7613L23.1613 65.9285ZM18.1019 66.2309L15.9446 65.9872L15.6548 68.5521L18.2314 68.3981L18.1019 66.2309ZM18.4918 62.7792L18.0665 60.6502L16.5124 60.9607L16.3345 62.5354L18.4918 62.7792ZM24.0802 61.6626L24.5055 63.7915L25.8463 63.5237L26.184 62.1988L24.0802 61.6626ZM71.1497 83.358L70.2203 85.3201L73.1677 86.7163L73.3185 83.4584L71.1497 83.358ZM71.4985 75.8196L73.2804 74.5794L69.6254 69.3279L69.3297 75.7193L71.4985 75.8196ZM76.1655 82.5252L74.3835 83.7654L78.624 89.8581L78.3349 82.4407L76.1655 82.5252ZM75.338 61.2917L77.5074 61.2072L77.4297 59.2151L75.4383 59.123L75.338 61.2917ZM72.1774 61.1455L72.2777 58.9768L69.8311 58.8636L70.0123 61.3061L72.1774 61.1455ZM72.9438 71.4748L70.9046 72.2198L75.1089 71.3142L72.9438 71.4748ZM69.1589 61.1144L71.1982 60.3694L70.6261 58.8033L68.9654 58.952L69.1589 61.1144ZM66.6255 61.3411L66.432 59.1787L64.3488 59.3651L64.4574 61.4538L66.6255 61.3411ZM67.4036 76.3089L69.5726 76.2147L69.5722 76.2054L69.5717 76.1962L67.4036 76.3089ZM62.449 61.1479L62.5493 58.9792L60.1413 58.8677L60.2816 61.2743L62.449 61.1479ZM65.7225 61.2993L67.884 61.0964L67.7076 59.2178L65.8228 59.1306L65.7225 61.2993ZM25.6499 55.5038L24.6866 53.5581L11.0322 60.3181L11.9955 62.2637L12.9587 64.2094L26.6131 57.4494L25.6499 55.5038ZM11.9955 62.2637L10.358 63.6894L12.6788 66.3549L14.3162 64.9293L15.9536 63.5037L13.6329 60.8381L11.9955 62.2637ZM14.3162 64.9293L12.1588 64.6856L11.8664 67.2744L14.0237 67.5181L16.1811 67.7618L16.4735 65.173L14.3162 64.9293ZM14.0237 67.5181L14.2674 65.3607L13.6202 65.2876L13.3765 67.445L13.1328 69.6023L13.78 69.6754L14.0237 67.5181ZM13.3765 67.445L11.2886 66.8499L10.2027 70.66L12.2906 71.2551L14.3786 71.8501L15.4644 68.04L13.3765 67.445ZM12.2906 71.2551L12.7417 73.3788L14.0848 73.0935L13.6338 70.9698L13.1828 68.8461L11.8396 69.1314L12.2906 71.2551ZM13.6338 70.9698L11.482 70.6812L10.0964 81.0121L12.2482 81.3006L14.4 81.5892L15.7856 71.2584L13.6338 70.9698ZM12.2482 81.3006L13.422 83.127L26.144 74.9508L24.9702 73.1244L23.7964 71.298L11.0744 79.4743L12.2482 81.3006ZM24.9702 73.1244L22.801 73.035L22.55 79.1243L24.7193 79.2137L26.8885 79.3031L27.1394 73.2138L24.9702 73.1244ZM24.7193 79.2137L25.5307 81.2274L34.0003 77.8145L33.1888 75.8008L32.3774 73.7871L23.9078 77.2L24.7193 79.2137ZM33.1888 75.8008L31.1177 75.1498L28.7302 82.7456L30.8013 83.3966L32.8725 84.0476L35.26 76.4518L33.1888 75.8008ZM30.8013 83.3966L32.007 85.2021L42.6411 78.1009L41.4354 76.2954L40.2298 74.4899L29.5957 81.5911L30.8013 83.3966ZM41.4354 76.2954L39.36 75.6583L37.2857 82.4155L39.3612 83.0527L41.4366 83.6898L43.5109 76.9325L41.4354 76.2954ZM39.3612 83.0527L40.2281 85.0431L46.2028 82.4407L45.3358 80.4503L44.4688 78.4599L38.4942 81.0622L39.3612 83.0527ZM45.3358 80.4503L47.4713 80.8419L48.6095 74.6343L46.474 74.2428L44.3386 73.8512L43.2003 80.0587L45.3358 80.4503ZM46.474 74.2428L46.5176 76.4134L49.8023 76.3475L49.7588 74.1769L49.7152 72.0063L46.4305 72.0722L46.474 74.2428ZM49.7588 74.1769L47.6684 74.7631L49.693 81.9834L51.7834 81.3972L53.8739 80.811L51.8492 73.5907L49.7588 74.1769ZM51.7834 81.3972L53.1796 83.0597L57.766 79.2081L56.3698 77.5456L54.9736 75.883L50.3872 79.7346L51.7834 81.3972ZM56.3698 77.5456L54.4143 78.4888L57.4238 84.7279L59.3792 83.7847L61.3347 82.8414L58.3253 76.6023L56.3698 77.5456ZM59.3792 83.7847L61.5449 83.9384L62.2832 73.5344L60.1176 73.3807L57.952 73.227L57.2136 83.631L59.3792 83.7847ZM60.1176 73.3807L58.4032 74.7128L66.0333 84.5327L67.7477 83.2006L69.4621 81.8686L61.832 72.0486L60.1176 73.3807ZM63.0927 72.1874L64.9998 71.1499L57.4013 57.1823L55.4942 58.2198L53.5871 59.2573L61.1856 73.2249L63.0927 72.1874ZM55.4942 58.2198L53.3243 58.291L53.9147 76.2737L56.0846 76.2024L58.2544 76.1312L57.6641 58.1486L55.4942 58.2198ZM56.0846 76.2024L58.0996 75.3942L53.3263 63.4937L51.3113 64.3019L49.2963 65.1101L54.0695 77.0106L56.0846 76.2024ZM51.3113 64.3019L53.2158 65.3443L55.6935 60.8175L53.7891 59.7751L51.8847 58.7327L49.4069 63.2595L51.3113 64.3019ZM53.7891 59.7751L53.5956 57.6127L45.0541 58.3771L45.2476 60.5395L45.4411 62.7019L53.9826 61.9375L53.7891 59.7751ZM45.2476 60.5395L43.1206 60.1046L41.0207 70.3732L43.1478 70.8082L45.2748 71.2432L47.3746 60.9745L45.2476 60.5395ZM43.1478 70.8082L44.2915 68.9629L40.4119 66.5582L39.2682 68.4035L38.1244 70.2489L42.004 72.6535L43.1478 70.8082ZM39.2682 68.4035L40.8784 69.8598L45.4186 64.8395L43.8083 63.3832L42.1981 61.927L37.6579 66.9473L39.2682 68.4035ZM43.8083 63.3832L45.0118 61.5763L32.0508 52.944L30.8473 54.7509L29.6438 56.5579L42.6048 65.1902L43.8083 63.3832ZM30.8473 54.7509L28.687 54.9666L30.3885 72.0114L32.5488 71.7957L34.7092 71.5801L33.0076 54.5353L30.8473 54.7509ZM32.5488 71.7957L31.9363 69.7129L27.6424 70.9757L28.2549 73.0585L28.8675 75.1414L33.1614 73.8786L32.5488 71.7957ZM28.2549 73.0585L30.4135 73.2907L32.1482 57.1659L29.9896 56.9337L27.831 56.7015L26.0963 72.8263L28.2549 73.0585ZM29.9896 56.9337L30.6636 54.8699L28.1325 54.0434L27.4586 56.1072L26.7847 58.171L29.3157 58.9975L29.9896 56.9337ZM27.4586 56.1072L25.3116 55.7852L23.0181 71.0765L25.1652 71.3986L27.3122 71.7206L29.6056 56.4292L27.4586 56.1072ZM25.1652 71.3986L24.4943 69.3337L17.0095 71.7655L17.6804 73.8303L18.3512 75.8951L25.836 73.4634L25.1652 71.3986ZM17.6804 73.8303L19.8483 73.9469L20.0469 70.2551L17.879 70.1385L15.711 70.0219L15.5125 73.7137L17.6804 73.8303ZM17.879 70.1385L18.2654 72.2748L22.7263 71.4679L22.3399 69.3315L21.9534 67.1951L17.4925 68.0021L17.879 70.1385ZM22.3399 69.3315L24.4503 69.8409L25.2717 66.4379L23.1613 65.9285L21.0508 65.4191L20.2294 68.8221L22.3399 69.3315ZM23.1613 65.9285L23.0317 63.7613L17.9724 64.0637L18.1019 66.2309L18.2314 68.3981L23.2908 68.0957L23.1613 65.9285ZM18.1019 66.2309L20.2592 66.4746L20.6492 63.0229L18.4918 62.7792L16.3345 62.5354L15.9446 65.9872L18.1019 66.2309ZM18.4918 62.7792L18.9172 64.9081L24.5055 63.7915L24.0802 61.6626L23.6548 59.5336L18.0665 60.6502L18.4918 62.7792ZM24.0802 61.6626L26.184 62.1988L27.7537 56.04L25.6499 55.5038L23.546 54.9676L21.9763 61.1264L24.0802 61.6626ZM67.7477 83.2006L69.913 83.0421L69.8027 81.5358L67.6374 81.6943L65.4722 81.8529L65.5825 83.3592L67.7477 83.2006ZM67.6374 81.6943L66.708 83.6564L70.2203 85.3201L71.1497 83.358L72.0791 81.396L68.5668 79.7323L67.6374 81.6943ZM71.1497 83.358L73.3185 83.4584L73.6672 75.9199L71.4985 75.8196L69.3297 75.7193L68.981 83.2577L71.1497 83.358ZM71.4985 75.8196L69.7165 77.0598L74.3835 83.7654L76.1655 82.5252L77.9475 81.285L73.2804 74.5794L71.4985 75.8196ZM76.1655 82.5252L78.3349 82.4407L77.5074 61.2072L75.338 61.2917L73.1686 61.3763L73.9961 82.6098L76.1655 82.5252ZM75.338 61.2917L75.4383 59.123L72.2777 58.9768L72.1774 61.1455L72.0771 63.3142L75.2376 63.4605L75.338 61.2917ZM72.1774 61.1455L70.0123 61.3061L70.7787 71.6355L72.9438 71.4748L75.1089 71.3142L74.3425 60.9849L72.1774 61.1455ZM72.9438 71.4748L74.9831 70.7298L71.1982 60.3694L69.1589 61.1144L67.1197 61.8594L70.9046 72.2198L72.9438 71.4748ZM69.1589 61.1144L68.9654 58.952L66.432 59.1787L66.6255 61.3411L66.819 63.5035L69.3525 63.2768L69.1589 61.1144ZM66.6255 61.3411L64.4574 61.4538L65.2354 76.4216L67.4036 76.3089L69.5717 76.1962L68.7936 61.2284L66.6255 61.3411ZM67.4036 76.3089L65.2345 76.4031L65.4684 81.7885L67.6374 81.6943L69.8064 81.6001L69.5726 76.2147L67.4036 76.3089ZM63.0927 72.1874L65.2601 72.061L64.6164 61.0215L62.449 61.1479L60.2816 61.2743L60.9254 72.3138L63.0927 72.1874ZM62.449 61.1479L62.3487 63.3166L65.6221 63.4681L65.7225 61.2993L65.8228 59.1306L62.5493 58.9792L62.449 61.1479ZM65.7225 61.2993L63.5609 61.5023L65.4759 81.8973L67.6374 81.6943L69.799 81.4914L67.884 61.0964L65.7225 61.2993Z" fill="#204794" mask="url(#path-11-outside-2_123_31)"/>
<path d="M47.2299 71.1677L48.6366 67.496L49.1716 71.1928L47.2299 71.1677Z" fill="#204794" stroke="#204794" stroke-width="0.868423"/>
<path d="M36.3939 66.7685L36.2793 63.9152L38.5061 65.4777L36.3939 66.7685Z" fill="#204794"/>
<path d="M36.5257 73.338L36.6512 70.2934L39.0207 72.5274L36.5257 73.338Z" fill="#204794"/>
<path d="M36.3939 66.7685L36.2793 63.9152L38.5061 65.4777L36.3939 66.7685Z" stroke="#204794" stroke-width="0.868423"/>
<path d="M36.5257 73.338L36.6512 70.2934L39.0207 72.5274L36.5257 73.338Z" stroke="#204794" stroke-width="0.868423"/>
</svg>
