<svg width="42" height="42" viewBox="0 0 42 42" fill="none" xmlns="http://www.w3.org/2000/svg">
<path d="M7.43761 0.525391H34.5624C38.6751 0.525391 42 3.85028 42 7.963V34.0378C42 38.1505 38.6751 41.4754 34.5624 41.4754H7.43761C3.32489 41.4754 0 38.1505 0 34.0378V7.963C0 3.85028 3.32489 0.525391 7.43761 0.525391Z" fill="#001E36"/>
<path d="M15.0503 10.937C14.5253 10.937 14.0003 10.937 13.4579 10.9547C12.9152 10.9721 12.4076 10.9721 11.9351 10.9898C11.4626 11.0072 11.0252 11.0072 10.6052 11.0246C10.2026 11.042 9.9227 11.042 9.62509 11.042C9.5027 11.042 9.4502 11.1119 9.4502 11.2346V29.2421C9.4502 29.3996 9.52009 29.4698 9.6602 29.4698H13.0553C13.1777 29.4521 13.2653 29.3471 13.2476 29.2247V23.6072C13.58 23.6072 13.8251 23.6072 14.0003 23.6246C14.1752 23.642 14.4551 23.642 14.8751 23.642C16.3103 23.642 17.6228 23.4845 18.8126 23.0471C19.9502 22.6271 20.9303 21.8921 21.6302 20.912C22.3302 19.932 22.6802 18.6895 22.6802 17.1845C22.6802 16.397 22.5404 15.6446 22.2779 14.9096C21.9998 14.1608 21.564 13.4805 21.0002 12.9146C20.3347 12.2681 19.5336 11.7778 18.6551 11.4794C17.675 11.1119 16.4852 10.937 15.0503 10.937ZM15.4408 14.384C16.0642 14.3958 16.6712 14.5047 17.2376 14.7344C17.7452 14.927 18.1652 15.2771 18.4628 15.7319C18.7419 16.2026 18.8815 16.7429 18.8654 17.2898C18.8654 18.0596 18.6902 18.6548 18.3227 19.0922C17.9375 19.5296 17.4476 19.8623 16.8878 20.0198C16.2401 20.2298 15.5576 20.3345 14.8751 20.3345H13.9475C13.7375 20.3345 13.5104 20.3171 13.2653 20.2997V14.4197C13.3877 14.402 13.6328 14.3846 13.9829 14.4023C14.3153 14.3846 14.7176 14.3846 15.1727 14.3846C15.2624 14.3824 15.3517 14.3822 15.4408 14.384ZM30.1178 15.2774C28.8752 15.2774 27.8426 15.4697 27.0203 15.8897C26.2679 16.2398 25.6202 16.7996 25.1828 17.4995C24.7979 18.1472 24.5876 18.8645 24.5876 19.6172C24.5726 20.2363 24.7109 20.8495 24.9902 21.4022C25.3175 21.9908 25.7719 22.4989 26.3204 22.8896C27.0902 23.4162 27.9256 23.8397 28.8053 24.1496C29.6627 24.482 30.2402 24.7445 30.5204 24.9719C30.8003 25.1996 30.9404 25.427 30.9404 25.6721C30.9404 25.9871 30.7478 26.2847 30.4679 26.4071C30.1529 26.5646 29.6804 26.6522 29.0153 26.6522C28.3154 26.6522 27.6152 26.5646 26.9501 26.3897C26.1864 26.2192 25.4542 25.9299 24.7802 25.5323C24.7277 25.4972 24.6752 25.4798 24.6227 25.5149C24.5702 25.5497 24.5528 25.6196 24.5528 25.6721V28.7171C24.5354 28.8572 24.6227 28.9796 24.7454 29.0495C25.3129 29.3146 25.9132 29.503 26.5304 29.6096C27.3179 29.7671 28.1051 29.837 28.91 29.837C30.17 29.837 31.2203 29.6447 32.0777 29.2772C32.8652 28.9622 33.5477 28.4198 34.0376 27.7196C34.4964 27.0312 34.7345 26.2194 34.7201 25.3922C34.7373 24.7674 34.5991 24.148 34.3178 23.5898C33.9851 22.9946 33.5126 22.5047 32.9351 22.1372C32.0902 21.6067 31.1857 21.1778 30.2402 20.8595C29.818 20.6848 29.4034 20.4921 28.9976 20.282C28.7702 20.1596 28.5602 20.0021 28.4027 19.8095C28.2977 19.6694 28.2278 19.5122 28.2278 19.3547C28.2278 19.1972 28.2803 19.0223 28.3676 18.8822C28.4903 18.7073 28.6826 18.5846 28.91 18.5321C29.2427 18.4448 29.6102 18.392 29.96 18.4094C30.6251 18.4094 31.2725 18.497 31.9202 18.6371C32.5154 18.7595 33.0752 18.9521 33.6002 19.2323C33.6701 19.2671 33.7577 19.2671 33.9152 19.2323C33.9425 19.2121 33.9647 19.1856 33.9799 19.1552C33.9952 19.1248 34.003 19.0912 34.0028 19.0571V16.2047C34.0028 16.1345 33.9851 16.0646 33.9677 15.9947C33.9326 15.9248 33.8627 15.8546 33.7928 15.8372C33.3101 15.64 32.8044 15.5047 32.2877 15.4346C31.5691 15.33 30.844 15.2777 30.1178 15.2774Z" fill="#31A8FF"/>
</svg>
