<svg width="51" height="51" viewBox="0 0 51 51" fill="none" xmlns="http://www.w3.org/2000/svg">
<path d="M8.5 17V12.75C8.5 11.6228 8.94777 10.5418 9.7448 9.7448C10.5418 8.94777 11.6228 8.5 12.75 8.5H17M8.5 34V38.25C8.5 39.3772 8.94777 40.4582 9.7448 41.2552C10.5418 42.0522 11.6228 42.5 12.75 42.5H17M34 8.5H38.25C39.3772 8.5 40.4582 8.94777 41.2552 9.7448C42.0522 10.5418 42.5 11.6228 42.5 12.75V17M34 42.5H38.25C39.3772 42.5 40.4582 42.0522 41.2552 41.2552C42.0522 40.4582 42.5 39.3772 42.5 38.25V34M25.5 26.5625L34 21.25M25.5 26.5625L17 21.25L25.5 15.9375L34 21.25M25.5 26.5625V36.125L34 30.8125V21.25" stroke="#204794" stroke-width="3.5" stroke-linecap="round" stroke-linejoin="round"/>
<path d="M17 21.25V30.8125L25.5 36.125" stroke="#204794" stroke-width="3.5" stroke-linecap="round" stroke-linejoin="round"/>
</svg>
