<svg width="42" height="42" viewBox="0 0 42 42" fill="none" xmlns="http://www.w3.org/2000/svg">
<g clip-path="url(#clip0_131_111)">
<mask id="mask0_131_111" style="mask-type:alpha" maskUnits="userSpaceOnUse" x="0" y="0" width="42" height="42">
<path fill-rule="evenodd" clip-rule="evenodd" d="M29.783 41.7132C30.1173 41.8435 30.4747 41.9036 30.8332 41.8898C31.1916 41.876 31.5434 41.7887 31.8666 41.6331L40.5137 37.4722C40.959 37.2578 41.3348 36.9221 41.5977 36.5036C41.8607 36.0852 42.0002 35.601 42.0001 35.1067V6.89356C42.0002 6.39928 41.8608 5.91501 41.5978 5.49649C41.3349 5.07796 40.9591 4.74218 40.5137 4.52778L31.8666 0.367486C31.378 0.132386 30.8284 0.0549801 30.2939 0.145981C29.7593 0.236982 29.2663 0.491889 28.883 0.875423L12.3291 15.9777L5.11887 10.5042C4.79356 10.2574 4.39214 10.1322 3.98419 10.1503C3.57624 10.1684 3.18749 10.3287 2.88532 10.6033L0.572696 12.707C0.392473 12.8709 0.248447 13.0706 0.149833 13.2934C0.051218 13.5161 0.000185813 13.757 5.0648e-07 14.0006C-0.0001848 14.2443 0.0504809 14.4852 0.148756 14.7081C0.247032 14.9311 0.390753 15.131 0.570727 15.2952L6.8238 21L0.571055 26.7051C0.39118 26.8693 0.247544 27.0692 0.14933 27.2921C0.0511152 27.515 0.000482431 27.7559 0.000667718 27.9995C0.000853006 28.243 0.0518523 28.4839 0.150406 28.7066C0.248959 28.9294 0.392899 29.1291 0.573024 29.293L2.88565 31.3966C3.18778 31.6713 3.57651 31.8317 3.98446 31.8498C4.39241 31.868 4.79385 31.7428 5.1192 31.496L12.3294 26.0229L28.8833 41.1249C29.1395 41.381 29.4456 41.5813 29.783 41.7132ZM31.5064 11.4657L18.9461 21L31.5067 30.5346L31.5064 11.4657Z" fill="white"/>
</mask>
<g mask="url(#mask0_131_111)">
<path d="M40.5138 4.5351L31.8598 0.367912C31.3711 0.132511 30.8212 0.0549417 30.2864 0.145949C29.7516 0.236956 29.2583 0.492035 28.8749 0.87585L0.54523 26.7055C0.36522 26.8697 0.221463 27.0696 0.123162 27.2925C0.0248605 27.5154 -0.0258196 27.7563 -0.0256343 27.9999C-0.0254489 28.2435 0.0255977 28.4844 0.124238 28.7071C0.222879 28.9299 0.366939 29.1296 0.547199 29.2934L2.86114 31.397C3.16335 31.6721 3.55235 31.8327 3.96059 31.8508C4.36883 31.869 4.77055 31.7436 5.096 31.4965L39.2115 5.61561C40.356 4.7474 41.9999 5.56377 41.9999 7.0003V6.8999C41.9999 6.40576 41.8604 5.92166 41.5975 5.50326C41.3347 5.08486 40.959 4.74949 40.5138 4.5351Z" fill="#0065A9"/>
<g filter="url(#filter0_d_131_111)">
<path d="M40.514 37.4667L31.8601 41.6332C31.3714 41.8687 30.8215 41.9464 30.2867 41.8555C29.7519 41.7646 29.2586 41.5097 28.8751 41.126L0.545475 15.296C0.365464 15.1318 0.221708 14.9319 0.123406 14.709C0.0251047 14.4861 -0.0255754 14.2452 -0.0253901 14.0016C-0.0252048 13.7579 0.0258419 13.5171 0.124482 13.2943C0.223123 13.0716 0.367184 12.8719 0.547443 12.708L2.86138 10.6044C3.1636 10.3294 3.55259 10.1688 3.96083 10.1507C4.36908 10.1325 4.77079 10.2579 5.09624 10.505L39.2117 36.3855C40.3562 37.2541 42.0001 36.4377 42.0001 35.0012V35.1016C42.0001 35.5957 41.8607 36.0798 41.5978 36.4982C41.3349 36.9166 40.9593 37.2523 40.514 37.4667Z" fill="#007ACC"/>
</g>
<g filter="url(#filter1_d_131_111)">
<path d="M31.8605 41.6335C31.3716 41.8685 30.8217 41.9458 30.287 41.8547C29.7522 41.7637 29.2589 41.5088 28.8752 41.1253C29.8439 42.0939 31.5002 41.4078 31.5002 40.0379V1.96257C31.5002 0.59265 29.8439 -0.0934599 28.8752 0.875493C29.2589 0.491977 29.7522 0.237083 30.287 0.146034C30.8217 0.0549856 31.3716 0.132277 31.8605 0.367228L40.5129 4.52851C40.9584 4.74276 41.3344 5.07848 41.5975 5.49702C41.8607 5.91556 42.0003 6.3999 42.0002 6.89429V35.1071C42.0003 35.6015 41.8607 36.0859 41.5975 36.5044C41.3344 36.9229 40.9584 37.2587 40.5129 37.4729L31.8605 41.6335Z" fill="#1F9CF0"/>
</g>
<path opacity="0.25" fill-rule="evenodd" clip-rule="evenodd" d="M29.7578 41.7132C30.092 41.8434 30.4494 41.9035 30.8078 41.8897C31.1662 41.876 31.5179 41.7886 31.8411 41.6331L40.4882 37.4722C40.9335 37.2578 41.3093 36.922 41.5723 36.5035C41.8352 36.085 41.9747 35.6007 41.9746 35.1064V6.89356C41.9747 6.39928 41.8352 5.91502 41.5723 5.49649C41.3093 5.07796 40.9335 4.74218 40.4882 4.52778L31.8411 0.367486C31.3525 0.132386 30.8029 0.0549801 30.2683 0.145981C29.7338 0.236982 29.2407 0.491889 28.8574 0.875423L12.3035 15.9777L5.09332 10.5046C4.76801 10.2577 4.36659 10.1325 3.95864 10.1506C3.55069 10.1687 3.16194 10.329 2.85977 10.6037L0.547146 12.7073C0.366968 12.8712 0.222983 13.071 0.124397 13.2937C0.0258116 13.5165 -0.0252048 13.7574 -0.0253901 14.001C-0.0255754 14.2446 0.0250745 14.4855 0.123321 14.7084C0.221568 14.9314 0.365249 15.1313 0.545177 15.2955L6.79826 21L0.545505 26.7048C0.365532 26.869 0.22181 27.0689 0.123535 27.2918C0.0252593 27.5147 -0.0254064 27.7557 -0.0252211 27.9993C-0.0250358 28.2429 0.0259964 28.4838 0.124611 28.7066C0.223225 28.9294 0.367251 29.1291 0.547474 29.293L2.8601 31.3966C3.16223 31.6713 3.55096 31.8317 3.95891 31.8498C4.36686 31.868 4.76831 31.7428 5.09365 31.496L12.3042 26.0226L28.8581 41.1249C29.1142 41.381 29.4205 41.5813 29.7578 41.7132ZM31.4811 11.4653L18.9205 21L31.4811 30.5343V11.4653Z" fill="url(#paint0_linear_131_111)"/>
</g>
</g>
<defs>
<filter id="filter0_d_131_111" x="-2.56466" y="7.60966" width="47.1042" height="36.8222" filterUnits="userSpaceOnUse" color-interpolation-filters="sRGB">
<feFlood flood-opacity="0" result="BackgroundImageFix"/>
<feColorMatrix in="SourceAlpha" type="matrix" values="0 0 0 0 0 0 0 0 0 0 0 0 0 0 0 0 0 0 127 0" result="hardAlpha"/>
<feOffset/>
<feGaussianBlur stdDeviation="1.26963"/>
<feColorMatrix type="matrix" values="0 0 0 0 0 0 0 0 0 0 0 0 0 0 0 0 0 0 0.25 0"/>
<feBlend mode="overlay" in2="BackgroundImageFix" result="effect1_dropShadow_131_111"/>
<feBlend mode="normal" in="SourceGraphic" in2="effect1_dropShadow_131_111" result="shape"/>
</filter>
<filter id="filter1_d_131_111" x="26.336" y="-2.43038" width="18.2035" height="46.8617" filterUnits="userSpaceOnUse" color-interpolation-filters="sRGB">
<feFlood flood-opacity="0" result="BackgroundImageFix"/>
<feColorMatrix in="SourceAlpha" type="matrix" values="0 0 0 0 0 0 0 0 0 0 0 0 0 0 0 0 0 0 127 0" result="hardAlpha"/>
<feOffset/>
<feGaussianBlur stdDeviation="1.26963"/>
<feColorMatrix type="matrix" values="0 0 0 0 0 0 0 0 0 0 0 0 0 0 0 0 0 0 0.25 0"/>
<feBlend mode="overlay" in2="BackgroundImageFix" result="effect1_dropShadow_131_111"/>
<feBlend mode="normal" in="SourceGraphic" in2="effect1_dropShadow_131_111" result="shape"/>
</filter>
<linearGradient id="paint0_linear_131_111" x1="20.9746" y1="0.108267" x2="20.9746" y2="41.8917" gradientUnits="userSpaceOnUse">
<stop stop-color="white"/>
<stop offset="1" stop-color="white" stop-opacity="0"/>
</linearGradient>
<clipPath id="clip0_131_111">
<rect width="42" height="42" fill="white"/>
</clipPath>
</defs>
</svg>
