<svg width="394" height="848" viewBox="0 0 394 848" fill="none" xmlns="http://www.w3.org/2000/svg">
<rect x="1" y="1" width="392" height="846" rx="16" fill="white"/>
<rect x="1" y="1" width="392" height="846" rx="16" stroke="#E0789C" stroke-width="2"/>
<path d="M110.742 53.0898H116.156V74.3418H128.988V79H110.742V53.0898ZM139.904 63.4609C138.744 63.4609 137.842 63.8242 137.197 64.5508C136.564 65.2773 136.166 66.2617 136.002 67.5039H143.789C143.707 66.1797 143.303 65.1777 142.576 64.498C141.861 63.8066 140.971 63.4609 139.904 63.4609ZM139.904 59.3301C141.498 59.3301 142.934 59.6289 144.211 60.2266C145.488 60.8242 146.543 61.7676 147.375 63.0566C148.125 64.1934 148.611 65.5117 148.834 67.0117C148.963 67.8906 149.016 69.1562 148.992 70.8086H135.879C135.949 72.7305 136.553 74.0781 137.689 74.8516C138.381 75.332 139.213 75.5723 140.186 75.5723C141.217 75.5723 142.055 75.2793 142.699 74.6934C143.051 74.377 143.361 73.9375 143.631 73.375H148.746C148.617 74.5117 148.025 75.666 146.971 76.8379C145.33 78.7012 143.033 79.6328 140.08 79.6328C137.643 79.6328 135.492 78.8477 133.629 77.2773C131.766 75.707 130.834 73.1523 130.834 69.6133C130.834 66.2969 131.672 63.7539 133.348 61.9844C135.035 60.2148 137.221 59.3301 139.904 59.3301ZM150.416 63.584V60.0156H153.088V54.6719H158.045V60.0156H161.156V63.584H158.045V73.709C158.045 74.4941 158.145 74.9863 158.344 75.1855C158.543 75.373 159.152 75.4668 160.172 75.4668C160.324 75.4668 160.482 75.4668 160.646 75.4668C160.822 75.4551 160.992 75.4434 161.156 75.4316V79.1758L158.783 79.2637C156.416 79.3457 154.799 78.9355 153.932 78.0332C153.369 77.459 153.088 76.5742 153.088 75.3789V63.584H150.416ZM168.275 72.8828C168.381 73.7734 168.609 74.4062 168.961 74.7812C169.582 75.4492 170.73 75.7832 172.406 75.7832C173.391 75.7832 174.17 75.6367 174.744 75.3438C175.33 75.0508 175.623 74.6113 175.623 74.0254C175.623 73.4629 175.389 73.0352 174.92 72.7422C174.451 72.4492 172.711 71.9453 169.699 71.2305C167.531 70.6914 166.002 70.0176 165.111 69.209C164.221 68.4121 163.775 67.2637 163.775 65.7637C163.775 63.9941 164.467 62.4766 165.85 61.2109C167.244 59.9336 169.201 59.2949 171.721 59.2949C174.111 59.2949 176.057 59.7754 177.557 60.7363C179.068 61.6855 179.936 63.332 180.158 65.6758H175.148C175.078 65.0312 174.896 64.5215 174.604 64.1465C174.053 63.4668 173.115 63.127 171.791 63.127C170.701 63.127 169.922 63.2969 169.453 63.6367C168.996 63.9766 168.768 64.375 168.768 64.832C168.768 65.4062 169.014 65.8223 169.506 66.0801C169.998 66.3496 171.738 66.8125 174.727 67.4688C176.719 67.9375 178.213 68.6465 179.209 69.5957C180.193 70.5566 180.686 71.7578 180.686 73.1992C180.686 75.0977 179.977 76.6504 178.559 77.8574C177.152 79.0527 174.973 79.6504 172.02 79.6504C169.008 79.6504 166.781 79.0176 165.34 77.752C163.91 76.4746 163.195 74.8516 163.195 72.8828H168.275ZM198.756 71.002C198.92 72.1855 199.242 73.0703 199.723 73.6562C200.602 74.7227 202.107 75.2559 204.24 75.2559C205.518 75.2559 206.555 75.1152 207.352 74.834C208.863 74.2949 209.619 73.293 209.619 71.8281C209.619 70.9727 209.244 70.3105 208.494 69.8418C207.744 69.3848 206.566 68.9805 204.961 68.6289L202.219 68.0137C199.523 67.4043 197.66 66.7422 196.629 66.0273C194.883 64.832 194.01 62.9629 194.01 60.4199C194.01 58.0996 194.854 56.1719 196.541 54.6367C198.229 53.1016 200.707 52.334 203.977 52.334C206.707 52.334 209.033 53.0605 210.955 54.5137C212.889 55.9551 213.902 58.0527 213.996 60.8066H208.793C208.699 59.248 208.02 58.1406 206.754 57.4844C205.91 57.0508 204.861 56.834 203.607 56.834C202.213 56.834 201.1 57.1152 200.268 57.6777C199.436 58.2402 199.02 59.0254 199.02 60.0332C199.02 60.959 199.43 61.6504 200.25 62.1074C200.777 62.4121 201.902 62.7695 203.625 63.1797L208.09 64.252C210.047 64.7207 211.523 65.3477 212.52 66.1328C214.066 67.3516 214.84 69.1152 214.84 71.4238C214.84 73.791 213.932 75.7598 212.115 77.3301C210.311 78.8887 207.756 79.668 204.451 79.668C201.076 79.668 198.422 78.9004 196.488 77.3652C194.555 75.8184 193.588 73.6973 193.588 71.002H198.756ZM216.475 63.584V60.0156H219.146V54.6719H224.104V60.0156H227.215V63.584H224.104V73.709C224.104 74.4941 224.203 74.9863 224.402 75.1855C224.602 75.373 225.211 75.4668 226.23 75.4668C226.383 75.4668 226.541 75.4668 226.705 75.4668C226.881 75.4551 227.051 75.4434 227.215 75.4316V79.1758L224.842 79.2637C222.475 79.3457 220.857 78.9355 219.99 78.0332C219.428 77.459 219.146 76.5742 219.146 75.3789V63.584H216.475ZM240.996 69.6836C240.68 69.8828 240.357 70.0469 240.029 70.1758C239.713 70.293 239.273 70.4043 238.711 70.5098L237.586 70.7207C236.531 70.9082 235.775 71.1367 235.318 71.4062C234.545 71.8633 234.158 72.5723 234.158 73.5332C234.158 74.3887 234.393 75.0098 234.861 75.3965C235.342 75.7715 235.922 75.959 236.602 75.959C237.68 75.959 238.67 75.6426 239.572 75.0098C240.486 74.377 240.961 73.2227 240.996 71.5469V69.6836ZM237.955 67.3457C238.881 67.2285 239.543 67.082 239.941 66.9062C240.656 66.6016 241.014 66.127 241.014 65.4824C241.014 64.6973 240.738 64.1582 240.188 63.8652C239.648 63.5605 238.852 63.4082 237.797 63.4082C236.613 63.4082 235.775 63.7012 235.283 64.2871C234.932 64.7207 234.697 65.3066 234.58 66.0449H229.746C229.852 64.3691 230.32 62.9922 231.152 61.9141C232.477 60.2266 234.75 59.3828 237.973 59.3828C240.07 59.3828 241.934 59.7988 243.562 60.6309C245.191 61.4629 246.006 63.0332 246.006 65.3418V74.1309C246.006 74.7402 246.018 75.4785 246.041 76.3457C246.076 77.002 246.176 77.4473 246.34 77.6816C246.504 77.916 246.75 78.1094 247.078 78.2617V79H241.629C241.477 78.6133 241.371 78.25 241.312 77.9102C241.254 77.5703 241.207 77.1836 241.172 76.75C240.48 77.5 239.684 78.1387 238.781 78.666C237.703 79.2871 236.484 79.5977 235.125 79.5977C233.391 79.5977 231.955 79.1055 230.818 78.1211C229.693 77.125 229.131 75.7188 229.131 73.9023C229.131 71.5469 230.039 69.8418 231.855 68.7871C232.852 68.2129 234.316 67.8027 236.25 67.5566L237.955 67.3457ZM260.877 59.3828C260.971 59.3828 261.047 59.3887 261.105 59.4004C261.176 59.4004 261.322 59.4062 261.545 59.418V64.5508C261.229 64.5156 260.947 64.4922 260.701 64.4805C260.455 64.4688 260.256 64.4629 260.104 64.4629C258.088 64.4629 256.734 65.1191 256.043 66.4316C255.656 67.1699 255.463 68.3066 255.463 69.8418V79H250.418V59.8398H255.199V63.1797C255.973 61.9023 256.646 61.0293 257.221 60.5605C258.158 59.7754 259.377 59.3828 260.877 59.3828ZM262.529 63.584V60.0156H265.201V54.6719H270.158V60.0156H273.27V63.584H270.158V73.709C270.158 74.4941 270.258 74.9863 270.457 75.1855C270.656 75.373 271.266 75.4668 272.285 75.4668C272.438 75.4668 272.596 75.4668 272.76 75.4668C272.936 75.4551 273.105 75.4434 273.27 75.4316V79.1758L270.896 79.2637C268.529 79.3457 266.912 78.9355 266.045 78.0332C265.482 77.459 265.201 76.5742 265.201 75.3789V63.584H262.529ZM278.104 53.1777H283.605V59.752L282.182 71.8457H279.562L278.104 59.752V53.1777ZM278.227 73.9199H283.465V79H278.227V73.9199Z" fill="#DF3D7D"/>
<path d="M39.8281 320.75H52.0742V323.785H43.4141V327.758H50.9961V330.758H43.4141V338H39.8281V320.75ZM57.5586 325.227V332.926C57.5586 333.652 57.6445 334.199 57.8164 334.566C58.1211 335.215 58.7188 335.539 59.6094 335.539C60.75 335.539 61.5312 335.078 61.9531 334.156C62.1719 333.656 62.2812 332.996 62.2812 332.176V325.227H65.668V338H62.4219V336.195C62.3906 336.234 62.3125 336.352 62.1875 336.547C62.0625 336.742 61.9141 336.914 61.7422 337.062C61.2188 337.531 60.7109 337.852 60.2188 338.023C59.7344 338.195 59.1641 338.281 58.5078 338.281C56.6172 338.281 55.3438 337.602 54.6875 336.242C54.3203 335.492 54.1367 334.387 54.1367 332.926V325.227H57.5586ZM72.3125 338H68.9727V320.727H72.3125V338ZM78.9922 338H75.6523V320.727H78.9922V338ZM96.0195 324.922C97.3398 324.922 98.418 325.27 99.2539 325.965C100.098 326.652 100.52 327.797 100.52 329.398V338H97.0977V330.23C97.0977 329.559 97.0078 329.043 96.8281 328.684C96.5 328.027 95.875 327.699 94.9531 327.699C93.8203 327.699 93.043 328.18 92.6211 329.141C92.4023 329.648 92.293 330.297 92.293 331.086V338H88.9648V325.25H92.1875V327.113C92.6172 326.457 93.0234 325.984 93.4062 325.695C94.0938 325.18 94.9648 324.922 96.0195 324.922ZM110.656 331.789C110.445 331.922 110.23 332.031 110.012 332.117C109.801 332.195 109.508 332.27 109.133 332.34L108.383 332.48C107.68 332.605 107.176 332.758 106.871 332.938C106.355 333.242 106.098 333.715 106.098 334.355C106.098 334.926 106.254 335.34 106.566 335.598C106.887 335.848 107.273 335.973 107.727 335.973C108.445 335.973 109.105 335.762 109.707 335.34C110.316 334.918 110.633 334.148 110.656 333.031V331.789ZM108.629 330.23C109.246 330.152 109.688 330.055 109.953 329.938C110.43 329.734 110.668 329.418 110.668 328.988C110.668 328.465 110.484 328.105 110.117 327.91C109.758 327.707 109.227 327.605 108.523 327.605C107.734 327.605 107.176 327.801 106.848 328.191C106.613 328.48 106.457 328.871 106.379 329.363H103.156C103.227 328.246 103.539 327.328 104.094 326.609C104.977 325.484 106.492 324.922 108.641 324.922C110.039 324.922 111.281 325.199 112.367 325.754C113.453 326.309 113.996 327.355 113.996 328.895V334.754C113.996 335.16 114.004 335.652 114.02 336.23C114.043 336.668 114.109 336.965 114.219 337.121C114.328 337.277 114.492 337.406 114.711 337.508V338H111.078C110.977 337.742 110.906 337.5 110.867 337.273C110.828 337.047 110.797 336.789 110.773 336.5C110.312 337 109.781 337.426 109.18 337.777C108.461 338.191 107.648 338.398 106.742 338.398C105.586 338.398 104.629 338.07 103.871 337.414C103.121 336.75 102.746 335.812 102.746 334.602C102.746 333.031 103.352 331.895 104.562 331.191C105.227 330.809 106.203 330.535 107.492 330.371L108.629 330.23ZM131.246 324.945C131.809 324.945 132.363 325.055 132.91 325.273C133.457 325.492 133.953 325.875 134.398 326.422C134.758 326.867 135 327.414 135.125 328.062C135.203 328.492 135.242 329.121 135.242 329.949L135.219 338H131.797V329.867C131.797 329.383 131.719 328.984 131.562 328.672C131.266 328.078 130.719 327.781 129.922 327.781C129 327.781 128.363 328.164 128.012 328.93C127.832 329.336 127.742 329.824 127.742 330.395V338H124.379V330.395C124.379 329.637 124.301 329.086 124.145 328.742C123.863 328.125 123.312 327.816 122.492 327.816C121.539 327.816 120.898 328.125 120.57 328.742C120.391 329.094 120.301 329.617 120.301 330.312V338H116.914V325.25H120.16V327.113C120.574 326.449 120.965 325.977 121.332 325.695C121.98 325.195 122.82 324.945 123.852 324.945C124.828 324.945 125.617 325.16 126.219 325.59C126.703 325.988 127.07 326.5 127.32 327.125C127.758 326.375 128.301 325.824 128.949 325.473C129.637 325.121 130.402 324.945 131.246 324.945ZM143.363 327.641C142.59 327.641 141.988 327.883 141.559 328.367C141.137 328.852 140.871 329.508 140.762 330.336H145.953C145.898 329.453 145.629 328.785 145.145 328.332C144.668 327.871 144.074 327.641 143.363 327.641ZM143.363 324.887C144.426 324.887 145.383 325.086 146.234 325.484C147.086 325.883 147.789 326.512 148.344 327.371C148.844 328.129 149.168 329.008 149.316 330.008C149.402 330.594 149.438 331.438 149.422 332.539H140.68C140.727 333.82 141.129 334.719 141.887 335.234C142.348 335.555 142.902 335.715 143.551 335.715C144.238 335.715 144.797 335.52 145.227 335.129C145.461 334.918 145.668 334.625 145.848 334.25H149.258C149.172 335.008 148.777 335.777 148.074 336.559C146.98 337.801 145.449 338.422 143.48 338.422C141.855 338.422 140.422 337.898 139.18 336.852C137.938 335.805 137.316 334.102 137.316 331.742C137.316 329.531 137.875 327.836 138.992 326.656C140.117 325.477 141.574 324.887 143.363 324.887Z" fill="black"/>
<path d="M53.6016 446.785H44.4609V450.453H52.8516V453.453H44.4609V457.895H54.0234V461H40.9336V443.727H53.6016V446.785ZM55.5586 452.727H62.2852V455.891H55.5586V452.727ZM78.832 447.945C79.3945 447.945 79.9492 448.055 80.4961 448.273C81.043 448.492 81.5391 448.875 81.9844 449.422C82.3438 449.867 82.5859 450.414 82.7109 451.062C82.7891 451.492 82.8281 452.121 82.8281 452.949L82.8047 461H79.3828V452.867C79.3828 452.383 79.3047 451.984 79.1484 451.672C78.8516 451.078 78.3047 450.781 77.5078 450.781C76.5859 450.781 75.9492 451.164 75.5977 451.93C75.418 452.336 75.3281 452.824 75.3281 453.395V461H71.9648V453.395C71.9648 452.637 71.8867 452.086 71.7305 451.742C71.4492 451.125 70.8984 450.816 70.0781 450.816C69.125 450.816 68.4844 451.125 68.1562 451.742C67.9766 452.094 67.8867 452.617 67.8867 453.312V461H64.5V448.25H67.7461V450.113C68.1602 449.449 68.5508 448.977 68.918 448.695C69.5664 448.195 70.4062 447.945 71.4375 447.945C72.4141 447.945 73.2031 448.16 73.8047 448.59C74.2891 448.988 74.6562 449.5 74.9062 450.125C75.3438 449.375 75.8867 448.824 76.5352 448.473C77.2227 448.121 77.9883 447.945 78.832 447.945ZM92.9531 454.789C92.7422 454.922 92.5273 455.031 92.3086 455.117C92.0977 455.195 91.8047 455.27 91.4297 455.34L90.6797 455.48C89.9766 455.605 89.4727 455.758 89.168 455.938C88.6523 456.242 88.3945 456.715 88.3945 457.355C88.3945 457.926 88.5508 458.34 88.8633 458.598C89.1836 458.848 89.5703 458.973 90.0234 458.973C90.7422 458.973 91.4023 458.762 92.0039 458.34C92.6133 457.918 92.9297 457.148 92.9531 456.031V454.789ZM90.9258 453.23C91.543 453.152 91.9844 453.055 92.25 452.938C92.7266 452.734 92.9648 452.418 92.9648 451.988C92.9648 451.465 92.7812 451.105 92.4141 450.91C92.0547 450.707 91.5234 450.605 90.8203 450.605C90.0312 450.605 89.4727 450.801 89.1445 451.191C88.9102 451.48 88.7539 451.871 88.6758 452.363H85.4531C85.5234 451.246 85.8359 450.328 86.3906 449.609C87.2734 448.484 88.7891 447.922 90.9375 447.922C92.3359 447.922 93.5781 448.199 94.6641 448.754C95.75 449.309 96.293 450.355 96.293 451.895V457.754C96.293 458.16 96.3008 458.652 96.3164 459.23C96.3398 459.668 96.4062 459.965 96.5156 460.121C96.625 460.277 96.7891 460.406 97.0078 460.508V461H93.375C93.2734 460.742 93.2031 460.5 93.1641 460.273C93.125 460.047 93.0938 459.789 93.0703 459.5C92.6094 460 92.0781 460.426 91.4766 460.777C90.7578 461.191 89.9453 461.398 89.0391 461.398C87.8828 461.398 86.9258 461.07 86.168 460.414C85.418 459.75 85.043 458.812 85.043 457.602C85.043 456.031 85.6484 454.895 86.8594 454.191C87.5234 453.809 88.5 453.535 89.7891 453.371L90.9258 453.23ZM102.703 446.703H99.3164V443.621H102.703V446.703ZM99.3164 448.227H102.703V461H99.3164V448.227ZM109.359 461H106.02V443.727H109.359V461Z" fill="black"/>
<rect x="32" y="227" width="110" height="40" rx="10" fill="#D9D9D9"/>
<path d="M87.84 247.512V245.064C87.84 244.408 88.208 243.944 88.8 243.944C89.392 243.944 89.76 244.408 89.76 245.064V247.512H92.208C92.88 247.512 93.328 247.896 93.328 248.472C93.328 249.048 92.88 249.432 92.208 249.432H89.76V251.88C89.76 252.536 89.392 253 88.8 253C88.208 253 87.84 252.536 87.84 251.88V249.432H85.392C84.72 249.432 84.272 248.952 84.272 248.472C84.272 247.896 84.72 247.512 85.392 247.512H87.84ZM96.7298 250.984H101.53C102.138 250.984 102.586 251.272 102.586 251.992C102.586 252.712 102.138 253 101.402 253H95.4018C94.4738 253 94.0898 252.376 94.0898 251.816C94.0898 250.68 95.0978 249.416 97.0978 248.152C99.3218 246.744 100.09 246.456 100.09 245.16C100.09 244.12 99.2898 243.544 98.4098 243.544C97.3858 243.544 96.6978 243.96 96.3458 245.24C96.1858 245.832 95.9778 246.136 95.3378 246.136C94.6818 246.136 94.1698 245.864 94.1698 245.064C94.1698 243.112 96.0898 241.624 98.4418 241.624C101.002 241.624 102.522 243.304 102.522 244.776C102.522 246.904 101.546 247.736 99.8498 248.696C98.0418 249.72 96.9378 250.376 96.7298 250.984ZM106.038 247.416C106.038 250.28 106.742 251.288 107.974 251.288C109.206 251.288 109.91 250.28 109.91 247.416C109.91 245.016 109.382 243.544 107.974 243.544C106.566 243.544 106.038 245.016 106.038 247.416ZM103.702 247.272C103.702 243.496 105.382 241.624 107.974 241.624C110.566 241.624 112.246 243.496 112.246 247.272C112.246 250.104 111.35 253.208 107.974 253.208C104.598 253.208 103.702 250.104 103.702 247.272Z" fill="black"/>
<g clip-path="url(#clip0_298_1157)">
<path d="M72 253C72 253.707 71.719 254.385 71.219 254.885C70.7189 255.385 70.0406 255.666 69.3333 255.666H50.6667C49.9594 255.666 49.2811 255.385 48.781 254.885C48.281 254.385 48 253.707 48 253V241C48 240.292 48.281 239.614 48.781 239.114C49.2811 238.614 49.9594 238.333 50.6667 238.333H69.3333C70.0406 238.333 70.7189 238.614 71.219 239.114C71.719 239.614 72 240.292 72 241V253Z" fill="#141414"/>
<path d="M48 243.667H72V250.334H48V243.667Z" fill="#EEEEEE"/>
<path d="M69.3333 238.333H50.6667C49.9594 238.333 49.2811 238.614 48.781 239.114C48.281 239.614 48 240.292 48 241V243.666H72V241C72 240.292 71.719 239.614 71.219 239.114C70.7189 238.614 70.0406 238.333 69.3333 238.333Z" fill="#CE1225"/>
<path d="M57.833 249.374C57.833 249.374 57.8437 249.541 57.989 249.624C57.989 249.624 57.9477 249.75 58.1037 249.822C58.2597 249.895 58.8223 250.01 59.8017 250.01C60.781 250.01 61.333 249.906 61.479 249.832C61.625 249.76 61.635 249.593 61.635 249.593C61.635 249.593 61.791 249.51 61.781 249.406C61.7703 249.302 61.5623 249.187 61.5623 249.187C61.5623 249.187 61.5103 249.052 61.3643 249C61.2183 248.948 60.7497 249.229 59.8537 249.187C58.9577 249.146 58.4477 249.01 58.281 249.02C58.1143 249.031 58.0417 249.198 58.0417 249.198C58.0417 249.198 57.8537 249.281 57.833 249.374Z" fill="#BF9300"/>
<path d="M57.9477 249.365C57.939 249.427 58.073 249.563 58.073 249.563C58.073 249.563 58.073 249.719 58.2083 249.761C58.3437 249.803 58.8957 249.907 59.7917 249.896C60.6877 249.885 61.323 249.833 61.3957 249.771C61.4683 249.708 61.531 249.573 61.531 249.573C61.531 249.573 61.677 249.469 61.6663 249.385C61.6557 249.302 61.4477 249.25 61.4477 249.25C61.4477 249.25 61.389 249.125 61.3197 249.073C61.2503 249.021 60.8023 249.281 59.8437 249.281C58.9057 249.281 58.3643 249.051 58.271 249.062C58.177 249.073 58.115 249.249 58.115 249.249C58.115 249.249 57.9583 249.292 57.9477 249.365Z" fill="#EEEEEE"/>
<path d="M61.9055 245.322C61.9055 245.322 61.8849 244.833 61.4369 244.895C60.9889 244.958 60.9575 245.176 60.4782 245.228L60.3795 245.238C60.2996 245.021 60.2554 244.793 60.2489 244.562C60.2489 244.249 60.3429 244.114 60.0195 243.958C59.6969 243.802 59.6342 243.947 59.6342 243.947C59.6342 243.947 59.3842 243.822 59.2695 243.916C59.1549 244.01 59.2175 244.249 59.2695 244.176C59.3215 244.104 59.5302 244.312 59.5302 244.312C59.6009 244.658 59.4002 245.032 59.2629 245.241C59.2155 245.236 59.1775 245.234 59.1242 245.228C58.6449 245.176 58.6135 244.958 58.1655 244.895C57.7175 244.832 57.6969 245.322 57.6969 245.322L57.5195 249.104L57.8842 248.822L57.8862 248.778L58.6449 248.104L58.7715 247.977L58.4575 248.895C58.4575 248.895 57.9782 248.864 58.1135 249.249C58.1135 249.249 58.1862 249.03 58.3115 249.072C58.4369 249.113 58.8009 249.207 58.8009 249.207L58.9262 249.405L59.0822 249.259L59.5715 249.238C59.5715 249.238 59.7275 249.28 59.7175 249.416C59.7462 249.357 59.7549 249.291 59.7422 249.227L59.8895 249.217C59.8737 249.284 59.8817 249.355 59.9122 249.416C59.9015 249.281 60.0582 249.239 60.0582 249.239L60.5475 249.26L60.7042 249.406L60.8295 249.208C60.8295 249.208 61.1935 249.114 61.3182 249.072C61.4429 249.031 61.5162 249.25 61.5162 249.25C61.6515 248.864 61.1722 248.896 61.1722 248.896L60.8729 248.02L60.9569 248.104L61.7155 248.778L61.7175 248.823L62.0822 249.104L61.9055 245.322ZM59.8342 247.614C59.0829 247.15 59.0209 245.979 59.0209 245.979C59.0209 245.979 59.4855 245.955 59.8229 245.718C60.1269 245.988 60.6455 245.958 60.6455 245.958C60.6455 245.958 60.6102 247.134 59.8342 247.614ZM61.5515 245.177L60.9162 245.781L60.8095 245.824C60.7002 245.828 60.1682 245.829 59.8329 245.531C59.4162 245.823 58.8435 245.844 58.8435 245.844L58.7549 245.808L58.0515 245.177L57.8669 245.253C57.8749 245.178 57.9162 245.008 58.1455 245.042C58.5215 245.096 58.6769 245.302 59.0729 245.344L59.1849 245.355L59.1455 245.406C59.2069 245.406 59.2975 245.388 59.3642 245.373L59.4395 245.38L59.4055 245.499C59.4589 245.483 59.5362 245.437 59.5995 245.396L59.7729 245.413L59.8122 245.468L59.9442 245.402L60.0329 245.393C60.1095 245.438 60.2189 245.478 60.2189 245.478L60.2395 245.374C60.3335 245.436 60.4895 245.436 60.4895 245.436C60.4715 245.422 60.4535 245.384 60.4349 245.352L60.5309 245.342C60.9269 245.301 61.0815 245.094 61.4582 245.04C61.6875 245.008 61.7289 245.176 61.7369 245.252L61.5515 245.177Z" fill="#BF9300"/>
<path d="M59.583 247.594L59.2077 249.021L58.583 248.896L59.229 247.062L59.583 247.594ZM60.049 247.594L60.4237 249.021L61.049 248.896L60.403 247.062L60.049 247.594Z" fill="#EEEEEE"/>
<path d="M59.1777 246.094C59.1777 246.094 59.2297 246.698 59.5004 247.167V245.959C59.5004 245.959 59.3231 246.063 59.1777 246.094ZM60.4797 246.115C60.4797 246.115 60.4277 246.719 60.1571 247.188V245.98C60.1564 245.98 60.3337 246.084 60.4797 246.115Z" fill="#BF9300"/>
<path d="M59.3018 244.052C59.3018 244.052 59.3744 243.98 59.5831 244.125C59.7184 244.22 59.8384 244.292 59.8384 244.292C59.8384 244.292 59.9238 244.202 60.0491 244.222C60.1744 244.243 60.1044 244.417 60.1251 244.781C60.1458 245.146 60.2918 245.302 60.2918 245.302L60.1144 245.198L60.1251 245.312L59.9271 245.218L59.8331 245.354L59.7391 245.208L59.5871 245.3L59.5411 245.176L59.3638 245.27C59.3638 245.27 59.6244 244.948 59.6451 244.593C59.6511 244.487 59.6244 244.249 59.6244 244.249C59.6244 244.249 59.4584 244.042 59.3018 244.052Z" fill="#EEEEEE"/>
<path d="M58.365 249.437C58.2457 249.509 58.2924 249.552 58.365 249.583C58.4377 249.615 58.875 249.667 59.761 249.687C60.667 249.708 61.2297 249.604 61.3024 249.562C61.375 249.521 61.3857 249.447 61.261 249.427C61.1357 249.406 60.511 249.51 59.7504 249.51C58.813 249.511 58.417 249.406 58.365 249.437Z" fill="#BF9300"/>
</g>
<line x1="172" y1="266.5" x2="332" y2="266.5" stroke="#DF3D7D"/>
<path d="M172.196 225.958H176.715C177.608 225.958 178.328 226.211 178.875 226.717C179.422 227.218 179.695 227.924 179.695 228.836C179.695 229.62 179.451 230.303 178.964 230.887C178.476 231.465 177.727 231.755 176.715 231.755H173.557V236H172.196V225.958ZM178.321 228.843C178.321 228.104 178.048 227.603 177.501 227.339C177.2 227.198 176.788 227.127 176.264 227.127H173.557V230.606H176.264C176.874 230.606 177.369 230.477 177.747 230.217C178.13 229.957 178.321 229.499 178.321 228.843ZM181.24 225.924H182.471V229.67C182.762 229.301 183.024 229.041 183.257 228.891C183.653 228.631 184.148 228.501 184.74 228.501C185.802 228.501 186.522 228.872 186.9 229.615C187.105 230.021 187.208 230.584 187.208 231.304V236H185.943V231.386C185.943 230.848 185.875 230.454 185.738 230.203C185.515 229.802 185.096 229.602 184.48 229.602C183.97 229.602 183.507 229.777 183.093 230.128C182.678 230.479 182.471 231.142 182.471 232.117V236H181.24V225.924ZM191.938 235.207C192.754 235.207 193.312 234.899 193.613 234.284C193.919 233.664 194.071 232.976 194.071 232.22C194.071 231.536 193.962 230.98 193.743 230.552C193.397 229.877 192.8 229.54 191.952 229.54C191.2 229.54 190.653 229.827 190.312 230.401C189.97 230.976 189.799 231.668 189.799 232.479C189.799 233.259 189.97 233.908 190.312 234.428C190.653 234.947 191.196 235.207 191.938 235.207ZM191.986 228.467C192.93 228.467 193.727 228.781 194.379 229.41C195.031 230.039 195.356 230.964 195.356 232.186C195.356 233.366 195.069 234.341 194.495 235.111C193.921 235.882 193.03 236.267 191.822 236.267C190.815 236.267 190.015 235.927 189.423 235.248C188.83 234.564 188.534 233.648 188.534 232.5C188.534 231.27 188.846 230.29 189.471 229.561C190.095 228.831 190.934 228.467 191.986 228.467ZM196.826 228.679H197.995V229.718C198.341 229.289 198.708 228.982 199.096 228.795C199.483 228.608 199.914 228.515 200.388 228.515C201.427 228.515 202.129 228.877 202.493 229.602C202.694 229.998 202.794 230.565 202.794 231.304V236H201.543V231.386C201.543 230.939 201.477 230.579 201.345 230.306C201.126 229.85 200.729 229.622 200.155 229.622C199.864 229.622 199.624 229.652 199.438 229.711C199.1 229.811 198.804 230.012 198.549 230.312C198.344 230.554 198.209 230.805 198.146 231.064C198.086 231.32 198.057 231.687 198.057 232.165V236H196.826V228.679ZM207.668 228.515C208.188 228.515 208.691 228.638 209.179 228.884C209.666 229.125 210.038 229.44 210.293 229.827C210.539 230.196 210.703 230.627 210.785 231.119C210.858 231.456 210.895 231.994 210.895 232.732H205.528C205.551 233.475 205.727 234.072 206.055 234.523C206.383 234.97 206.891 235.193 207.579 235.193C208.222 235.193 208.734 234.981 209.117 234.558C209.336 234.312 209.491 234.027 209.582 233.703H210.792C210.76 233.972 210.653 234.273 210.471 234.605C210.293 234.934 210.092 235.202 209.869 235.412C209.495 235.777 209.033 236.023 208.481 236.15C208.185 236.223 207.85 236.26 207.477 236.26C206.565 236.26 205.793 235.929 205.159 235.269C204.526 234.603 204.209 233.674 204.209 232.479C204.209 231.304 204.528 230.349 205.166 229.615C205.804 228.882 206.638 228.515 207.668 228.515ZM209.63 231.755C209.58 231.222 209.464 230.796 209.281 230.477C208.944 229.884 208.381 229.588 207.593 229.588C207.028 229.588 206.554 229.793 206.171 230.203C205.788 230.609 205.585 231.126 205.562 231.755H209.63ZM216.309 228.679H217.478V229.718C217.824 229.289 218.191 228.982 218.578 228.795C218.965 228.608 219.396 228.515 219.87 228.515C220.909 228.515 221.611 228.877 221.976 229.602C222.176 229.998 222.276 230.565 222.276 231.304V236H221.025V231.386C221.025 230.939 220.959 230.579 220.827 230.306C220.608 229.85 220.212 229.622 219.638 229.622C219.346 229.622 219.107 229.652 218.92 229.711C218.583 229.811 218.286 230.012 218.031 230.312C217.826 230.554 217.692 230.805 217.628 231.064C217.569 231.32 217.539 231.687 217.539 232.165V236H216.309V228.679ZM225.332 228.679V233.539C225.332 233.913 225.391 234.218 225.51 234.455C225.729 234.893 226.136 235.111 226.733 235.111C227.59 235.111 228.174 234.729 228.483 233.963C228.652 233.553 228.736 232.99 228.736 232.274V228.679H229.967V236H228.805L228.818 234.92C228.659 235.198 228.461 235.433 228.224 235.624C227.754 236.007 227.185 236.198 226.515 236.198C225.471 236.198 224.76 235.85 224.382 235.152C224.177 234.779 224.074 234.28 224.074 233.655V228.679H225.332ZM231.895 228.679H233.111V229.718C233.403 229.358 233.667 229.096 233.904 228.932C234.31 228.654 234.77 228.515 235.285 228.515C235.868 228.515 236.338 228.658 236.693 228.945C236.894 229.109 237.076 229.351 237.24 229.67C237.514 229.278 237.835 228.989 238.204 228.802C238.573 228.61 238.988 228.515 239.448 228.515C240.433 228.515 241.103 228.87 241.458 229.581C241.649 229.964 241.745 230.479 241.745 231.126V236H240.467V230.914C240.467 230.426 240.344 230.091 240.098 229.909C239.856 229.727 239.56 229.636 239.209 229.636C238.726 229.636 238.309 229.798 237.958 230.121C237.612 230.445 237.438 230.985 237.438 231.741V236H236.188V231.222C236.188 230.725 236.128 230.363 236.01 230.135C235.823 229.793 235.474 229.622 234.964 229.622C234.499 229.622 234.075 229.802 233.692 230.162C233.314 230.522 233.125 231.174 233.125 232.117V236H231.895V228.679ZM243.461 225.924H244.657V229.567C244.926 229.216 245.247 228.95 245.621 228.768C245.995 228.581 246.4 228.487 246.838 228.487C247.749 228.487 248.488 228.802 249.053 229.431C249.622 230.055 249.907 230.978 249.907 232.199C249.907 233.357 249.627 234.318 249.066 235.084C248.506 235.85 247.729 236.232 246.735 236.232C246.179 236.232 245.71 236.098 245.327 235.829C245.099 235.67 244.855 235.414 244.596 235.063V236H243.461V225.924ZM246.66 235.146C247.326 235.146 247.822 234.881 248.15 234.353C248.483 233.824 248.649 233.127 248.649 232.261C248.649 231.491 248.483 230.853 248.15 230.347C247.822 229.841 247.337 229.588 246.694 229.588C246.134 229.588 245.642 229.795 245.218 230.21C244.799 230.625 244.589 231.308 244.589 232.261C244.589 232.949 244.675 233.507 244.849 233.936C245.172 234.742 245.776 235.146 246.66 235.146ZM254.398 228.515C254.918 228.515 255.422 228.638 255.909 228.884C256.397 229.125 256.768 229.44 257.023 229.827C257.27 230.196 257.434 230.627 257.516 231.119C257.589 231.456 257.625 231.994 257.625 232.732H252.259C252.282 233.475 252.457 234.072 252.785 234.523C253.113 234.97 253.621 235.193 254.31 235.193C254.952 235.193 255.465 234.981 255.848 234.558C256.066 234.312 256.221 234.027 256.312 233.703H257.522C257.491 233.972 257.383 234.273 257.201 234.605C257.023 234.934 256.823 235.202 256.6 235.412C256.226 235.777 255.763 236.023 255.212 236.15C254.916 236.223 254.581 236.26 254.207 236.26C253.296 236.26 252.523 235.929 251.89 235.269C251.256 234.603 250.939 233.674 250.939 232.479C250.939 231.304 251.258 230.349 251.896 229.615C252.535 228.882 253.368 228.515 254.398 228.515ZM256.36 231.755C256.31 231.222 256.194 230.796 256.012 230.477C255.674 229.884 255.112 229.588 254.323 229.588C253.758 229.588 253.284 229.793 252.901 230.203C252.519 230.609 252.316 231.126 252.293 231.755H256.36ZM259.177 228.679H260.346V229.943C260.441 229.697 260.676 229.399 261.05 229.048C261.424 228.692 261.854 228.515 262.342 228.515C262.365 228.515 262.403 228.517 262.458 228.521C262.513 228.526 262.606 228.535 262.738 228.549V229.848C262.665 229.834 262.597 229.825 262.533 229.82C262.474 229.816 262.408 229.813 262.335 229.813C261.715 229.813 261.239 230.014 260.906 230.415C260.574 230.812 260.407 231.27 260.407 231.789V236H259.177V228.679Z" fill="#DF3D7D"/>
<g filter="url(#filter0_d_298_1157)">
<rect x="61.5" y="709" width="272" height="60" rx="20" fill="#DF3D7D"/>
<path d="M123.938 732.727V737.367H128.027C128.84 737.367 129.449 737.273 129.855 737.086C130.574 736.758 130.934 736.109 130.934 735.141C130.934 734.094 130.586 733.391 129.891 733.031C129.5 732.828 128.914 732.727 128.133 732.727H123.938ZM128.883 729.727C130.094 729.75 131.023 729.898 131.672 730.172C132.328 730.445 132.883 730.848 133.336 731.379C133.711 731.816 134.008 732.301 134.227 732.832C134.445 733.363 134.555 733.969 134.555 734.648C134.555 735.469 134.348 736.277 133.934 737.074C133.52 737.863 132.836 738.422 131.883 738.75C132.68 739.07 133.242 739.527 133.57 740.121C133.906 740.707 134.074 741.605 134.074 742.816V743.977C134.074 744.766 134.105 745.301 134.168 745.582C134.262 746.027 134.48 746.355 134.824 746.566V747H130.852C130.742 746.617 130.664 746.309 130.617 746.074C130.523 745.59 130.473 745.094 130.465 744.586L130.441 742.98C130.426 741.879 130.223 741.145 129.832 740.777C129.449 740.41 128.727 740.227 127.664 740.227H123.938V747H120.41V729.727H128.883ZM142.441 736.641C141.668 736.641 141.066 736.883 140.637 737.367C140.215 737.852 139.949 738.508 139.84 739.336H145.031C144.977 738.453 144.707 737.785 144.223 737.332C143.746 736.871 143.152 736.641 142.441 736.641ZM142.441 733.887C143.504 733.887 144.461 734.086 145.312 734.484C146.164 734.883 146.867 735.512 147.422 736.371C147.922 737.129 148.246 738.008 148.395 739.008C148.48 739.594 148.516 740.438 148.5 741.539H139.758C139.805 742.82 140.207 743.719 140.965 744.234C141.426 744.555 141.98 744.715 142.629 744.715C143.316 744.715 143.875 744.52 144.305 744.129C144.539 743.918 144.746 743.625 144.926 743.25H148.336C148.25 744.008 147.855 744.777 147.152 745.559C146.059 746.801 144.527 747.422 142.559 747.422C140.934 747.422 139.5 746.898 138.258 745.852C137.016 744.805 136.395 743.102 136.395 740.742C136.395 738.531 136.953 736.836 138.07 735.656C139.195 734.477 140.652 733.887 142.441 733.887ZM156.176 744.539C157.324 744.539 158.141 744.047 158.625 743.062C158.938 742.414 159.094 741.594 159.094 740.602C159.094 739.82 158.961 739.121 158.695 738.504C158.219 737.395 157.383 736.84 156.188 736.84C155.344 736.84 154.664 737.164 154.148 737.812C153.641 738.461 153.387 739.445 153.387 740.766C153.387 741.648 153.504 742.371 153.738 742.934C154.176 744.004 154.988 744.539 156.176 744.539ZM155.332 733.898C156.395 733.898 157.254 734.16 157.91 734.684C158.293 734.98 158.684 735.469 159.082 736.148V734.25H162.305V752.062H159V745.418C158.75 745.934 158.32 746.395 157.711 746.801C157.109 747.199 156.285 747.398 155.238 747.398C153.762 747.398 152.504 746.809 151.465 745.629C150.426 744.449 149.906 742.875 149.906 740.906C149.906 738.781 150.426 737.082 151.465 735.809C152.512 734.535 153.801 733.898 155.332 733.898ZM168.762 734.227V741.926C168.762 742.652 168.848 743.199 169.02 743.566C169.324 744.215 169.922 744.539 170.812 744.539C171.953 744.539 172.734 744.078 173.156 743.156C173.375 742.656 173.484 741.996 173.484 741.176V734.227H176.871V747H173.625V745.195C173.594 745.234 173.516 745.352 173.391 745.547C173.266 745.742 173.117 745.914 172.945 746.062C172.422 746.531 171.914 746.852 171.422 747.023C170.938 747.195 170.367 747.281 169.711 747.281C167.82 747.281 166.547 746.602 165.891 745.242C165.523 744.492 165.34 743.387 165.34 741.926V734.227H168.762ZM185.145 736.641C184.371 736.641 183.77 736.883 183.34 737.367C182.918 737.852 182.652 738.508 182.543 739.336H187.734C187.68 738.453 187.41 737.785 186.926 737.332C186.449 736.871 185.855 736.641 185.145 736.641ZM185.145 733.887C186.207 733.887 187.164 734.086 188.016 734.484C188.867 734.883 189.57 735.512 190.125 736.371C190.625 737.129 190.949 738.008 191.098 739.008C191.184 739.594 191.219 740.438 191.203 741.539H182.461C182.508 742.82 182.91 743.719 183.668 744.234C184.129 744.555 184.684 744.715 185.332 744.715C186.02 744.715 186.578 744.52 187.008 744.129C187.242 743.918 187.449 743.625 187.629 743.25H191.039C190.953 744.008 190.559 744.777 189.855 745.559C188.762 746.801 187.23 747.422 185.262 747.422C183.637 747.422 182.203 746.898 180.961 745.852C179.719 744.805 179.098 743.102 179.098 740.742C179.098 738.531 179.656 736.836 180.773 735.656C181.898 734.477 183.355 733.887 185.145 733.887ZM196.066 742.922C196.137 743.516 196.289 743.938 196.523 744.188C196.938 744.633 197.703 744.855 198.82 744.855C199.477 744.855 199.996 744.758 200.379 744.562C200.77 744.367 200.965 744.074 200.965 743.684C200.965 743.309 200.809 743.023 200.496 742.828C200.184 742.633 199.023 742.297 197.016 741.82C195.57 741.461 194.551 741.012 193.957 740.473C193.363 739.941 193.066 739.176 193.066 738.176C193.066 736.996 193.527 735.984 194.449 735.141C195.379 734.289 196.684 733.863 198.363 733.863C199.957 733.863 201.254 734.184 202.254 734.824C203.262 735.457 203.84 736.555 203.988 738.117H200.648C200.602 737.688 200.48 737.348 200.285 737.098C199.918 736.645 199.293 736.418 198.41 736.418C197.684 736.418 197.164 736.531 196.852 736.758C196.547 736.984 196.395 737.25 196.395 737.555C196.395 737.938 196.559 738.215 196.887 738.387C197.215 738.566 198.375 738.875 200.367 739.312C201.695 739.625 202.691 740.098 203.355 740.73C204.012 741.371 204.34 742.172 204.34 743.133C204.34 744.398 203.867 745.434 202.922 746.238C201.984 747.035 200.531 747.434 198.562 747.434C196.555 747.434 195.07 747.012 194.109 746.168C193.156 745.316 192.68 744.234 192.68 742.922H196.066ZM205.512 736.723V734.344H207.293V730.781H210.598V734.344H212.672V736.723H210.598V743.473C210.598 743.996 210.664 744.324 210.797 744.457C210.93 744.582 211.336 744.645 212.016 744.645C212.117 744.645 212.223 744.645 212.332 744.645C212.449 744.637 212.562 744.629 212.672 744.621V747.117L211.09 747.176C209.512 747.23 208.434 746.957 207.855 746.355C207.48 745.973 207.293 745.383 207.293 744.586V736.723H205.512ZM229.125 738.809C229.062 738.332 228.902 737.902 228.645 737.52C228.27 737.004 227.688 736.746 226.898 736.746C225.773 736.746 225.004 737.305 224.59 738.422C224.371 739.016 224.262 739.805 224.262 740.789C224.262 741.727 224.371 742.48 224.59 743.051C224.988 744.113 225.738 744.645 226.84 744.645C227.621 744.645 228.176 744.434 228.504 744.012C228.832 743.59 229.031 743.043 229.102 742.371H232.512C232.434 743.387 232.066 744.348 231.41 745.254C230.363 746.715 228.812 747.445 226.758 747.445C224.703 747.445 223.191 746.836 222.223 745.617C221.254 744.398 220.77 742.816 220.77 740.871C220.77 738.676 221.305 736.969 222.375 735.75C223.445 734.531 224.922 733.922 226.805 733.922C228.406 733.922 229.715 734.281 230.73 735C231.754 735.719 232.359 736.988 232.547 738.809H229.125ZM240.586 744.645C241.562 744.645 242.312 744.297 242.836 743.602C243.359 742.906 243.621 741.918 243.621 740.637C243.621 739.355 243.359 738.371 242.836 737.684C242.312 736.988 241.562 736.641 240.586 736.641C239.609 736.641 238.855 736.988 238.324 737.684C237.801 738.371 237.539 739.355 237.539 740.637C237.539 741.918 237.801 742.906 238.324 743.602C238.855 744.297 239.609 744.645 240.586 744.645ZM247.125 740.637C247.125 742.512 246.586 744.117 245.508 745.453C244.43 746.781 242.793 747.445 240.598 747.445C238.402 747.445 236.766 746.781 235.688 745.453C234.609 744.117 234.07 742.512 234.07 740.637C234.07 738.793 234.609 737.195 235.688 735.844C236.766 734.492 238.402 733.816 240.598 733.816C242.793 733.816 244.43 734.492 245.508 735.844C246.586 737.195 247.125 738.793 247.125 740.637ZM254.238 733.922C255.012 733.922 255.699 734.094 256.301 734.438C256.902 734.773 257.391 735.242 257.766 735.844V729.75H261.152V747H257.906V745.23C257.43 745.988 256.887 746.539 256.277 746.883C255.668 747.227 254.91 747.398 254.004 747.398C252.512 747.398 251.254 746.797 250.23 745.594C249.215 744.383 248.707 742.832 248.707 740.941C248.707 738.762 249.207 737.047 250.207 735.797C251.215 734.547 252.559 733.922 254.238 733.922ZM254.965 744.586C255.91 744.586 256.629 744.234 257.121 743.531C257.613 742.828 257.859 741.918 257.859 740.801C257.859 739.238 257.465 738.121 256.676 737.449C256.191 737.043 255.629 736.84 254.988 736.84C254.012 736.84 253.293 737.211 252.832 737.953C252.379 738.688 252.152 739.602 252.152 740.695C252.152 741.875 252.383 742.82 252.844 743.531C253.312 744.234 254.02 744.586 254.965 744.586ZM269.238 736.641C268.465 736.641 267.863 736.883 267.434 737.367C267.012 737.852 266.746 738.508 266.637 739.336H271.828C271.773 738.453 271.504 737.785 271.02 737.332C270.543 736.871 269.949 736.641 269.238 736.641ZM269.238 733.887C270.301 733.887 271.258 734.086 272.109 734.484C272.961 734.883 273.664 735.512 274.219 736.371C274.719 737.129 275.043 738.008 275.191 739.008C275.277 739.594 275.312 740.438 275.297 741.539H266.555C266.602 742.82 267.004 743.719 267.762 744.234C268.223 744.555 268.777 744.715 269.426 744.715C270.113 744.715 270.672 744.52 271.102 744.129C271.336 743.918 271.543 743.625 271.723 743.25H275.133C275.047 744.008 274.652 744.777 273.949 745.559C272.855 746.801 271.324 747.422 269.355 747.422C267.73 747.422 266.297 746.898 265.055 745.852C263.812 744.805 263.191 743.102 263.191 740.742C263.191 738.531 263.75 736.836 264.867 735.656C265.992 734.477 267.449 733.887 269.238 733.887Z" fill="white"/>
</g>
<rect x="32" y="344" width="312" height="41" rx="10" fill="#D9D9D9"/>
<rect x="32" y="467" width="312" height="42" rx="10" fill="#D9D9D9"/>
<defs>
<filter id="filter0_d_298_1157" x="57.5" y="709" width="280" height="78" filterUnits="userSpaceOnUse" color-interpolation-filters="sRGB">
<feFlood flood-opacity="0" result="BackgroundImageFix"/>
<feColorMatrix in="SourceAlpha" type="matrix" values="0 0 0 0 0 0 0 0 0 0 0 0 0 0 0 0 0 0 127 0" result="hardAlpha"/>
<feOffset dy="14"/>
<feGaussianBlur stdDeviation="2"/>
<feComposite in2="hardAlpha" operator="out"/>
<feColorMatrix type="matrix" values="0 0 0 0 0.827451 0 0 0 0 0.00784314 0 0 0 0 0.333333 0 0 0 0.25 0"/>
<feBlend mode="normal" in2="BackgroundImageFix" result="effect1_dropShadow_298_1157"/>
<feBlend mode="normal" in="SourceGraphic" in2="effect1_dropShadow_298_1157" result="shape"/>
</filter>
<clipPath id="clip0_298_1157">
<rect width="24" height="24" fill="white" transform="translate(48 235)"/>
</clipPath>
</defs>
</svg>
