<svg width="366" height="187" viewBox="0 0 366 187" fill="none" xmlns="http://www.w3.org/2000/svg">
<rect width="366" height="187" fill="#FFF8EB"/>
<mask id="path-1-outside-1_65_2625" maskUnits="userSpaceOnUse" x="60.957" y="58.3569" width="245" height="73" fill="black">
<rect fill="white" x="60.957" y="58.3569" width="245" height="73"/>
<path d="M63.1756 77.1021C63.1756 75.7517 63.2399 74.2083 63.3685 72.4721C63.5614 70.6715 64.0759 68.9996 64.9118 67.4562C65.7478 65.8486 67.0018 64.5303 68.6737 63.5014C70.3457 62.4082 72.6928 61.8616 75.7152 61.8616H84.0106C86.2613 61.8616 88.8657 61.9259 91.8237 62.0546C94.7818 62.1189 97.8042 62.4725 100.891 63.1156C103.978 63.7587 107 64.7554 109.958 66.1058C112.98 67.3919 115.681 69.2889 118.06 71.7969C120.44 74.2405 122.337 77.3593 123.751 81.1533C125.231 84.9474 125.97 89.6095 125.97 95.1398V95.3327C125.97 100.863 125.231 105.493 123.751 109.223C122.337 112.952 120.44 116.007 118.06 118.386C115.681 120.766 112.98 122.566 109.958 123.788C107 125.01 103.978 125.91 100.891 126.489C97.8042 127.003 94.7818 127.293 91.8237 127.357C88.8657 127.357 86.2613 127.357 84.0106 127.357H75.7152C72.6928 127.357 70.3457 126.81 68.6737 125.717C67.0018 124.624 65.7478 123.306 64.9118 121.762C64.0759 120.155 63.5614 118.483 63.3685 116.747C63.2399 114.946 63.1756 113.37 63.1756 112.02V77.1021ZM92.6919 86.8444C91.4058 86.8444 90.6341 87.2302 90.3769 88.0019C90.1196 88.7092 89.991 89.3201 89.991 89.8346V98.3229C89.991 98.8374 90.1196 99.4804 90.3769 100.252C90.6984 100.959 91.5665 101.313 92.9812 101.313C94.2674 101.313 95.039 100.959 95.2962 100.252C95.5535 99.4804 95.6821 98.8374 95.6821 98.3229V89.8346C95.6821 89.3201 95.5213 88.7092 95.1998 88.0019C94.9426 87.2302 94.1066 86.8444 92.6919 86.8444ZM160.201 60.5112C165.281 60.5755 169.782 61.508 173.705 63.3085C177.692 65.0448 181.036 67.4562 183.737 70.5429C186.437 73.6296 188.463 77.3271 189.813 81.6356C191.228 85.8798 191.936 90.542 191.936 95.6221C191.936 100.638 191.357 104.946 190.199 108.548C189.106 112.084 187.627 115.075 185.762 117.518C183.962 119.962 181.904 121.923 179.589 123.402C177.338 124.817 175.055 125.91 172.74 126.682C170.425 127.453 168.207 127.936 166.085 128.129C163.963 128.386 162.194 128.514 160.779 128.514H159.236C157.757 128.514 155.957 128.386 153.834 128.129C151.777 127.936 149.59 127.453 147.275 126.682C144.96 125.91 142.645 124.817 140.33 123.402C138.08 121.923 136.022 119.962 134.157 117.518C132.356 115.075 130.877 112.084 129.72 108.548C128.627 104.946 128.08 100.638 128.08 95.6221C128.08 90.542 128.787 85.8476 130.202 81.5392C131.617 77.2307 133.675 73.5331 136.375 70.4464C139.076 67.2955 142.42 64.8518 146.407 63.1156C150.394 61.3793 154.96 60.5112 160.104 60.5112H160.201ZM159.718 87.3267C158.432 87.3267 157.661 87.7125 157.403 88.4842C157.146 89.1915 157.018 89.8024 157.018 90.3169V99.6734C157.018 100.188 157.146 100.831 157.403 101.603C157.725 102.31 158.593 102.664 160.008 102.664C161.294 102.664 162.066 102.31 162.323 101.603C162.58 100.831 162.709 100.188 162.709 99.6734V90.3169C162.709 89.8024 162.548 89.1915 162.226 88.4842C161.969 87.7125 161.133 87.3267 159.718 87.3267ZM215.879 75.7517C215.879 74.3369 215.976 72.7614 216.168 71.0252C216.426 69.2246 217.037 67.5527 218.001 66.0094C218.966 64.466 220.445 63.1799 222.438 62.151C224.432 61.0578 227.197 60.5112 230.734 60.5112C234.206 60.5112 236.907 61.0578 238.836 62.151C240.83 63.1799 242.309 64.466 243.273 66.0094C244.238 67.5527 244.817 69.2246 245.01 71.0252C245.267 72.7614 245.395 74.3369 245.395 75.7517V113.274C245.395 114.689 245.267 116.296 245.01 118.097C244.817 119.833 244.238 121.473 243.273 123.016C242.309 124.56 240.83 125.878 238.836 126.971C236.843 128 234.078 128.514 230.541 128.514C227.068 128.514 224.335 128 222.342 126.971C220.413 125.878 218.966 124.56 218.001 123.016C217.037 121.473 216.426 119.833 216.168 118.097C215.976 116.296 215.879 114.689 215.879 113.274V75.7517ZM261.634 86.0727H268.483V83.2754H257.39C256.361 83.2111 255.3 83.0182 254.207 82.6967C253.178 82.3751 252.214 81.8285 251.313 81.0569C250.477 80.2852 249.77 79.2242 249.191 77.8737C248.612 76.459 248.323 74.6585 248.323 72.4721C248.323 70.2857 248.612 68.5173 249.191 67.1669C249.77 65.8164 250.477 64.7554 251.313 63.9837C252.214 63.2121 253.178 62.6976 254.207 62.4404C255.3 62.1189 256.361 61.9259 257.39 61.8616H294.237C295.266 61.9259 296.295 62.1189 297.324 62.4404C298.417 62.6976 299.382 63.2121 300.218 63.9837C301.118 64.7554 301.858 65.8164 302.436 67.1669C303.015 68.5173 303.304 70.2857 303.304 72.4721C303.304 74.6585 303.079 76.459 302.629 77.8737C302.243 79.2885 301.632 80.4138 300.796 81.2498C300.025 82.0215 299.06 82.5681 297.903 82.8896C296.81 83.1468 295.588 83.2754 294.237 83.2754H291.151V113.274C291.151 114.689 291.022 116.296 290.765 118.097C290.572 119.833 289.993 121.473 289.029 123.016C288.064 124.56 286.585 125.878 284.591 126.971C282.598 128 279.833 128.514 276.296 128.514C272.824 128.514 270.091 128 268.097 126.971C266.168 125.878 264.721 124.56 263.756 123.016C262.792 121.473 262.181 119.833 261.924 118.097C261.731 116.296 261.634 114.689 261.634 113.274V86.0727Z"/>
</mask>
<path d="M63.1756 77.1021C63.1756 75.7517 63.2399 74.2083 63.3685 72.4721C63.5614 70.6715 64.0759 68.9996 64.9118 67.4562C65.7478 65.8486 67.0018 64.5303 68.6737 63.5014C70.3457 62.4082 72.6928 61.8616 75.7152 61.8616H84.0106C86.2613 61.8616 88.8657 61.9259 91.8237 62.0546C94.7818 62.1189 97.8042 62.4725 100.891 63.1156C103.978 63.7587 107 64.7554 109.958 66.1058C112.98 67.3919 115.681 69.2889 118.06 71.7969C120.44 74.2405 122.337 77.3593 123.751 81.1533C125.231 84.9474 125.97 89.6095 125.97 95.1398V95.3327C125.97 100.863 125.231 105.493 123.751 109.223C122.337 112.952 120.44 116.007 118.06 118.386C115.681 120.766 112.98 122.566 109.958 123.788C107 125.01 103.978 125.91 100.891 126.489C97.8042 127.003 94.7818 127.293 91.8237 127.357C88.8657 127.357 86.2613 127.357 84.0106 127.357H75.7152C72.6928 127.357 70.3457 126.81 68.6737 125.717C67.0018 124.624 65.7478 123.306 64.9118 121.762C64.0759 120.155 63.5614 118.483 63.3685 116.747C63.2399 114.946 63.1756 113.37 63.1756 112.02V77.1021ZM92.6919 86.8444C91.4058 86.8444 90.6341 87.2302 90.3769 88.0019C90.1196 88.7092 89.991 89.3201 89.991 89.8346V98.3229C89.991 98.8374 90.1196 99.4804 90.3769 100.252C90.6984 100.959 91.5665 101.313 92.9812 101.313C94.2674 101.313 95.039 100.959 95.2962 100.252C95.5535 99.4804 95.6821 98.8374 95.6821 98.3229V89.8346C95.6821 89.3201 95.5213 88.7092 95.1998 88.0019C94.9426 87.2302 94.1066 86.8444 92.6919 86.8444ZM160.201 60.5112C165.281 60.5755 169.782 61.508 173.705 63.3085C177.692 65.0448 181.036 67.4562 183.737 70.5429C186.437 73.6296 188.463 77.3271 189.813 81.6356C191.228 85.8798 191.936 90.542 191.936 95.6221C191.936 100.638 191.357 104.946 190.199 108.548C189.106 112.084 187.627 115.075 185.762 117.518C183.962 119.962 181.904 121.923 179.589 123.402C177.338 124.817 175.055 125.91 172.74 126.682C170.425 127.453 168.207 127.936 166.085 128.129C163.963 128.386 162.194 128.514 160.779 128.514H159.236C157.757 128.514 155.957 128.386 153.834 128.129C151.777 127.936 149.59 127.453 147.275 126.682C144.96 125.91 142.645 124.817 140.33 123.402C138.08 121.923 136.022 119.962 134.157 117.518C132.356 115.075 130.877 112.084 129.72 108.548C128.627 104.946 128.08 100.638 128.08 95.6221C128.08 90.542 128.787 85.8476 130.202 81.5392C131.617 77.2307 133.675 73.5331 136.375 70.4464C139.076 67.2955 142.42 64.8518 146.407 63.1156C150.394 61.3793 154.96 60.5112 160.104 60.5112H160.201ZM159.718 87.3267C158.432 87.3267 157.661 87.7125 157.403 88.4842C157.146 89.1915 157.018 89.8024 157.018 90.3169V99.6734C157.018 100.188 157.146 100.831 157.403 101.603C157.725 102.31 158.593 102.664 160.008 102.664C161.294 102.664 162.066 102.31 162.323 101.603C162.58 100.831 162.709 100.188 162.709 99.6734V90.3169C162.709 89.8024 162.548 89.1915 162.226 88.4842C161.969 87.7125 161.133 87.3267 159.718 87.3267ZM215.879 75.7517C215.879 74.3369 215.976 72.7614 216.168 71.0252C216.426 69.2246 217.037 67.5527 218.001 66.0094C218.966 64.466 220.445 63.1799 222.438 62.151C224.432 61.0578 227.197 60.5112 230.734 60.5112C234.206 60.5112 236.907 61.0578 238.836 62.151C240.83 63.1799 242.309 64.466 243.273 66.0094C244.238 67.5527 244.817 69.2246 245.01 71.0252C245.267 72.7614 245.395 74.3369 245.395 75.7517V113.274C245.395 114.689 245.267 116.296 245.01 118.097C244.817 119.833 244.238 121.473 243.273 123.016C242.309 124.56 240.83 125.878 238.836 126.971C236.843 128 234.078 128.514 230.541 128.514C227.068 128.514 224.335 128 222.342 126.971C220.413 125.878 218.966 124.56 218.001 123.016C217.037 121.473 216.426 119.833 216.168 118.097C215.976 116.296 215.879 114.689 215.879 113.274V75.7517ZM261.634 86.0727H268.483V83.2754H257.39C256.361 83.2111 255.3 83.0182 254.207 82.6967C253.178 82.3751 252.214 81.8285 251.313 81.0569C250.477 80.2852 249.77 79.2242 249.191 77.8737C248.612 76.459 248.323 74.6585 248.323 72.4721C248.323 70.2857 248.612 68.5173 249.191 67.1669C249.77 65.8164 250.477 64.7554 251.313 63.9837C252.214 63.2121 253.178 62.6976 254.207 62.4404C255.3 62.1189 256.361 61.9259 257.39 61.8616H294.237C295.266 61.9259 296.295 62.1189 297.324 62.4404C298.417 62.6976 299.382 63.2121 300.218 63.9837C301.118 64.7554 301.858 65.8164 302.436 67.1669C303.015 68.5173 303.304 70.2857 303.304 72.4721C303.304 74.6585 303.079 76.459 302.629 77.8737C302.243 79.2885 301.632 80.4138 300.796 81.2498C300.025 82.0215 299.06 82.5681 297.903 82.8896C296.81 83.1468 295.588 83.2754 294.237 83.2754H291.151V113.274C291.151 114.689 291.022 116.296 290.765 118.097C290.572 119.833 289.993 121.473 289.029 123.016C288.064 124.56 286.585 125.878 284.591 126.971C282.598 128 279.833 128.514 276.296 128.514C272.824 128.514 270.091 128 268.097 126.971C266.168 125.878 264.721 124.56 263.756 123.016C262.792 121.473 262.181 119.833 261.924 118.097C261.731 116.296 261.634 114.689 261.634 113.274V86.0727Z" fill="#4AB09C"/>
<path d="M63.3685 72.4721L61.5036 72.2723L61.5003 72.3028L61.498 72.3335L63.3685 72.4721ZM64.9118 67.4562L66.561 68.3495L66.5686 68.3356L66.5759 68.3215L64.9118 67.4562ZM68.6737 63.5014L69.6567 65.0988L69.6786 65.0853L69.7001 65.0712L68.6737 63.5014ZM91.8237 62.0546L91.7423 63.9284L91.7626 63.9292L91.783 63.9297L91.8237 62.0546ZM100.891 63.1156L100.508 64.9518L100.508 64.9518L100.891 63.1156ZM109.958 66.1058L109.179 67.812L109.201 67.8221L109.224 67.8316L109.958 66.1058ZM118.06 71.7969L116.7 73.0877L116.708 73.0966L116.717 73.1053L118.06 71.7969ZM123.751 81.1533L121.994 81.8086L121.999 81.8216L122.004 81.8346L123.751 81.1533ZM123.751 109.223L122.008 108.531L122.003 108.544L121.998 108.558L123.751 109.223ZM118.06 118.386L119.387 119.713L119.387 119.713L118.06 118.386ZM109.958 123.788L109.255 122.049L109.242 122.054L109.958 123.788ZM100.891 126.489L101.199 128.339L101.218 128.336L101.236 128.332L100.891 126.489ZM91.8237 127.357V129.233H91.8441L91.8645 129.232L91.8237 127.357ZM68.6737 125.717L69.7001 124.147L69.7001 124.147L68.6737 125.717ZM64.9118 121.762L63.2478 122.628L63.2551 122.642L63.2626 122.656L64.9118 121.762ZM63.3685 116.747L61.4977 116.88L61.5003 116.917L61.5044 116.954L63.3685 116.747ZM90.3769 88.0019L92.1395 88.6428L92.1482 88.619L92.1562 88.595L90.3769 88.0019ZM90.3769 100.252L88.5975 100.845L88.6287 100.939L88.6694 101.028L90.3769 100.252ZM95.2962 100.252L97.0589 100.893L97.0676 100.869L97.0756 100.845L95.2962 100.252ZM95.1998 88.0019L93.4205 88.595L93.4516 88.6884L93.4923 88.778L95.1998 88.0019ZM63.1756 77.1021H65.0512C65.0512 75.8088 65.1128 74.3132 65.2389 72.6106L63.3685 72.4721L61.498 72.3335C61.3669 74.1035 61.3 75.6945 61.3 77.1021H63.1756ZM63.3685 72.4721L65.2334 72.6719C65.4011 71.1065 65.8452 69.6711 66.561 68.3495L64.9118 67.4562L63.2626 66.5629C62.3066 68.328 61.7217 70.2366 61.5036 72.2723L63.3685 72.4721ZM64.9118 67.4562L66.5759 68.3215C67.2423 67.04 68.2489 65.9651 69.6567 65.0988L68.6737 63.5014L67.6907 61.9041C65.7547 63.0955 64.2533 64.6572 63.2478 66.5909L64.9118 67.4562ZM68.6737 63.5014L69.7001 65.0712C70.9479 64.2554 72.8829 63.7372 75.7152 63.7372V61.8616V59.9861C72.5028 59.9861 69.7434 60.5611 67.6473 61.9316L68.6737 63.5014ZM75.7152 61.8616V63.7372H84.0106V61.8616V59.9861H75.7152V61.8616ZM84.0106 61.8616V63.7372C86.2272 63.7372 88.8034 63.8006 91.7423 63.9284L91.8237 62.0546L91.9052 60.1807C88.9279 60.0513 86.2954 59.9861 84.0106 59.9861V61.8616ZM91.8237 62.0546L91.783 63.9297C94.6189 63.9913 97.5268 64.3306 100.508 64.9518L100.891 63.1156L101.273 61.2794C98.0815 60.6145 94.9447 60.2464 91.8645 60.1794L91.8237 62.0546ZM100.891 63.1156L100.508 64.9518C103.454 65.5655 106.344 66.5177 109.179 67.812L109.958 66.1058L110.737 64.3996C107.656 62.9931 104.501 61.9518 101.273 61.2794L100.891 63.1156ZM109.958 66.1058L109.224 67.8316C111.997 69.0119 114.488 70.7562 116.7 73.0877L118.06 71.7969L119.421 70.506C116.874 67.8217 113.963 65.7719 110.692 64.38L109.958 66.1058ZM118.06 71.7969L116.717 73.1053C118.883 75.3307 120.654 78.2137 121.994 81.8086L123.751 81.1533L125.509 80.498C124.02 76.5049 121.996 73.1503 119.404 70.4884L118.06 71.7969ZM123.751 81.1533L122.004 81.8346C123.374 85.3489 124.094 89.7644 124.094 95.1398H125.97H127.846C127.846 89.4546 127.087 84.5458 125.499 80.4721L123.751 81.1533ZM125.97 95.1398H124.094V95.3327H125.97H127.846V95.1398H125.97ZM125.97 95.3327H124.094C124.094 100.71 123.374 105.088 122.008 108.531L123.751 109.223L125.495 109.914C127.088 105.898 127.846 101.016 127.846 95.3327H125.97ZM123.751 109.223L121.998 108.558C120.66 112.085 118.894 114.9 116.734 117.06L118.06 118.386L119.387 119.713C121.985 117.114 124.014 113.82 125.505 109.888L123.751 109.223ZM118.06 118.386L116.734 117.06C114.527 119.267 112.036 120.925 109.255 122.049L109.958 123.788L110.661 125.527C113.924 124.208 116.835 122.264 119.387 119.713L118.06 118.386ZM109.958 123.788L109.242 122.054C106.401 123.228 103.503 124.091 100.545 124.645L100.891 126.489L101.236 128.332C104.452 127.729 107.599 126.792 110.674 125.521L109.958 123.788ZM100.891 126.489L100.582 124.639C97.5793 125.139 94.6464 125.42 91.783 125.482L91.8237 127.357L91.8645 129.232C94.9172 129.166 98.0291 128.867 101.199 128.339L100.891 126.489ZM91.8237 127.357V125.481C91.818 125.481 91.8122 125.481 91.8064 125.481C91.8006 125.481 91.7949 125.481 91.7891 125.481C91.7833 125.481 91.7775 125.481 91.7718 125.481C91.766 125.481 91.7602 125.481 91.7545 125.481C91.7487 125.481 91.7429 125.481 91.7372 125.481C91.7314 125.481 91.7257 125.481 91.7199 125.481C91.7141 125.481 91.7084 125.481 91.7026 125.481C91.6969 125.481 91.6911 125.481 91.6853 125.481C91.6796 125.481 91.6738 125.481 91.6681 125.481C91.6623 125.481 91.6566 125.481 91.6508 125.481C91.6451 125.481 91.6393 125.481 91.6336 125.481C91.6278 125.481 91.6221 125.481 91.6163 125.481C91.6106 125.481 91.6048 125.481 91.5991 125.481C91.5934 125.481 91.5876 125.481 91.5819 125.481C91.5761 125.481 91.5704 125.481 91.5647 125.481C91.5589 125.481 91.5532 125.481 91.5475 125.481C91.5417 125.481 91.536 125.481 91.5303 125.481C91.5245 125.481 91.5188 125.481 91.5131 125.481C91.5073 125.481 91.5016 125.481 91.4959 125.481C91.4902 125.481 91.4844 125.481 91.4787 125.481C91.473 125.481 91.4673 125.481 91.4615 125.481C91.4558 125.481 91.4501 125.481 91.4444 125.481C91.4387 125.481 91.433 125.481 91.4272 125.481C91.4215 125.481 91.4158 125.481 91.4101 125.481C91.4044 125.481 91.3987 125.481 91.393 125.481C91.3873 125.481 91.3815 125.481 91.3758 125.481C91.3701 125.481 91.3644 125.481 91.3587 125.481C91.353 125.481 91.3473 125.481 91.3416 125.481C91.3359 125.481 91.3302 125.481 91.3245 125.481C91.3188 125.481 91.3131 125.481 91.3074 125.481C91.3017 125.481 91.296 125.481 91.2903 125.481C91.2846 125.481 91.2789 125.481 91.2732 125.481C91.2676 125.481 91.2619 125.481 91.2562 125.481C91.2505 125.481 91.2448 125.481 91.2391 125.481C91.2334 125.481 91.2277 125.481 91.2221 125.481C91.2164 125.481 91.2107 125.481 91.205 125.481C91.1993 125.481 91.1937 125.481 91.188 125.481C91.1823 125.481 91.1766 125.481 91.171 125.481C91.1653 125.481 91.1596 125.481 91.1539 125.481C91.1483 125.481 91.1426 125.481 91.1369 125.481C91.1313 125.481 91.1256 125.481 91.1199 125.481C91.1142 125.481 91.1086 125.481 91.1029 125.481C91.0973 125.481 91.0916 125.481 91.0859 125.481C91.0803 125.481 91.0746 125.481 91.069 125.481C91.0633 125.481 91.0576 125.481 91.052 125.481C91.0463 125.481 91.0407 125.481 91.035 125.481C91.0294 125.481 91.0237 125.481 91.0181 125.481C91.0124 125.481 91.0068 125.481 91.0011 125.481C90.9955 125.481 90.9898 125.481 90.9842 125.481C90.9785 125.481 90.9729 125.481 90.9672 125.481C90.9616 125.481 90.956 125.481 90.9503 125.481C90.9447 125.481 90.939 125.481 90.9334 125.481C90.9278 125.481 90.9221 125.481 90.9165 125.481C90.9109 125.481 90.9052 125.481 90.8996 125.481C90.894 125.481 90.8883 125.481 90.8827 125.481C90.8771 125.481 90.8714 125.481 90.8658 125.481C90.8602 125.481 90.8546 125.481 90.8489 125.481C90.8433 125.481 90.8377 125.481 90.8321 125.481C90.8265 125.481 90.8208 125.481 90.8152 125.481C90.8096 125.481 90.804 125.481 90.7984 125.481C90.7928 125.481 90.7871 125.481 90.7815 125.481C90.7759 125.481 90.7703 125.481 90.7647 125.481C90.7591 125.481 90.7535 125.481 90.7479 125.481C90.7423 125.481 90.7367 125.481 90.731 125.481C90.7254 125.481 90.7198 125.481 90.7142 125.481C90.7086 125.481 90.703 125.481 90.6974 125.481C90.6918 125.481 90.6862 125.481 90.6806 125.481C90.675 125.481 90.6694 125.481 90.6639 125.481C90.6583 125.481 90.6527 125.481 90.6471 125.481C90.6415 125.481 90.6359 125.481 90.6303 125.481C90.6247 125.481 90.6191 125.481 90.6135 125.481C90.608 125.481 90.6024 125.481 90.5968 125.481C90.5912 125.481 90.5856 125.481 90.58 125.481C90.5745 125.481 90.5689 125.481 90.5633 125.481C90.5577 125.481 90.5522 125.481 90.5466 125.481C90.541 125.481 90.5354 125.481 90.5299 125.481C90.5243 125.481 90.5187 125.481 90.5131 125.481C90.5076 125.481 90.502 125.481 90.4964 125.481C90.4909 125.481 90.4853 125.481 90.4797 125.481C90.4742 125.481 90.4686 125.481 90.4631 125.481C90.4575 125.481 90.4519 125.481 90.4464 125.481C90.4408 125.481 90.4353 125.481 90.4297 125.481C90.4241 125.481 90.4186 125.481 90.413 125.481C90.4075 125.481 90.4019 125.481 90.3964 125.481C90.3908 125.481 90.3853 125.481 90.3797 125.481C90.3742 125.481 90.3686 125.481 90.3631 125.481C90.3575 125.481 90.352 125.481 90.3465 125.481C90.3409 125.481 90.3354 125.481 90.3298 125.481C90.3243 125.481 90.3188 125.481 90.3132 125.481C90.3077 125.481 90.3021 125.481 90.2966 125.481C90.2911 125.481 90.2855 125.481 90.28 125.481C90.2745 125.481 90.2689 125.481 90.2634 125.481C90.2579 125.481 90.2524 125.481 90.2468 125.481C90.2413 125.481 90.2358 125.481 90.2303 125.481C90.2247 125.481 90.2192 125.481 90.2137 125.481C90.2082 125.481 90.2027 125.481 90.1971 125.481C90.1916 125.481 90.1861 125.481 90.1806 125.481C90.1751 125.481 90.1696 125.481 90.164 125.481C90.1585 125.481 90.153 125.481 90.1475 125.481C90.142 125.481 90.1365 125.481 90.131 125.481C90.1255 125.481 90.12 125.481 90.1145 125.481C90.109 125.481 90.1035 125.481 90.0979 125.481C90.0924 125.481 90.0869 125.481 90.0814 125.481C90.0759 125.481 90.0704 125.481 90.065 125.481C90.0595 125.481 90.054 125.481 90.0485 125.481C90.043 125.481 90.0375 125.481 90.032 125.481C90.0265 125.481 90.021 125.481 90.0155 125.481C90.01 125.481 90.0045 125.481 89.9991 125.481C89.9936 125.481 89.9881 125.481 89.9826 125.481C89.9771 125.481 89.9716 125.481 89.9662 125.481C89.9607 125.481 89.9552 125.481 89.9497 125.481C89.9442 125.481 89.9388 125.481 89.9333 125.481C89.9278 125.481 89.9223 125.481 89.9169 125.481C89.9114 125.481 89.9059 125.481 89.9005 125.481C89.895 125.481 89.8895 125.481 89.884 125.481C89.8786 125.481 89.8731 125.481 89.8676 125.481C89.8622 125.481 89.8567 125.481 89.8513 125.481C89.8458 125.481 89.8403 125.481 89.8349 125.481C89.8294 125.481 89.824 125.481 89.8185 125.481C89.813 125.481 89.8076 125.481 89.8021 125.481C89.7967 125.481 89.7912 125.481 89.7858 125.481C89.7803 125.481 89.7749 125.481 89.7694 125.481C89.764 125.481 89.7585 125.481 89.7531 125.481C89.7476 125.481 89.7422 125.481 89.7368 125.481C89.7313 125.481 89.7259 125.481 89.7204 125.481C89.715 125.481 89.7096 125.481 89.7041 125.481C89.6987 125.481 89.6932 125.481 89.6878 125.481C89.6824 125.481 89.6769 125.481 89.6715 125.481C89.6661 125.481 89.6606 125.481 89.6552 125.481C89.6498 125.481 89.6444 125.481 89.6389 125.481C89.6335 125.481 89.6281 125.481 89.6227 125.481C89.6172 125.481 89.6118 125.481 89.6064 125.481C89.601 125.481 89.5955 125.481 89.5901 125.481C89.5847 125.481 89.5793 125.481 89.5739 125.481C89.5685 125.481 89.563 125.481 89.5576 125.481C89.5522 125.481 89.5468 125.481 89.5414 125.481C89.536 125.481 89.5306 125.481 89.5252 125.481C89.5198 125.481 89.5144 125.481 89.509 125.481C89.5035 125.481 89.4981 125.481 89.4927 125.481C89.4873 125.481 89.4819 125.481 89.4765 125.481C89.4711 125.481 89.4657 125.481 89.4603 125.481C89.4549 125.481 89.4496 125.481 89.4442 125.481C89.4388 125.481 89.4334 125.481 89.428 125.481C89.4226 125.481 89.4172 125.481 89.4118 125.481C89.4064 125.481 89.401 125.481 89.3956 125.481C89.3903 125.481 89.3849 125.481 89.3795 125.481C89.3741 125.481 89.3687 125.481 89.3633 125.481C89.358 125.481 89.3526 125.481 89.3472 125.481C89.3418 125.481 89.3365 125.481 89.3311 125.481C89.3257 125.481 89.3203 125.481 89.315 125.481C89.3096 125.481 89.3042 125.481 89.2988 125.481C89.2935 125.481 89.2881 125.481 89.2827 125.481C89.2774 125.481 89.272 125.481 89.2666 125.481C89.2613 125.481 89.2559 125.481 89.2505 125.481C89.2452 125.481 89.2398 125.481 89.2345 125.481C89.2291 125.481 89.2237 125.481 89.2184 125.481C89.213 125.481 89.2077 125.481 89.2023 125.481C89.197 125.481 89.1916 125.481 89.1863 125.481C89.1809 125.481 89.1756 125.481 89.1702 125.481C89.1649 125.481 89.1595 125.481 89.1542 125.481C89.1488 125.481 89.1435 125.481 89.1381 125.481C89.1328 125.481 89.1275 125.481 89.1221 125.481C89.1168 125.481 89.1114 125.481 89.1061 125.481C89.1008 125.481 89.0954 125.481 89.0901 125.481C89.0848 125.481 89.0794 125.481 89.0741 125.481C89.0688 125.481 89.0634 125.481 89.0581 125.481C89.0528 125.481 89.0474 125.481 89.0421 125.481C89.0368 125.481 89.0315 125.481 89.0261 125.481C89.0208 125.481 89.0155 125.481 89.0102 125.481C89.0048 125.481 88.9995 125.481 88.9942 125.481C88.9889 125.481 88.9836 125.481 88.9783 125.481C88.9729 125.481 88.9676 125.481 88.9623 125.481C88.957 125.481 88.9517 125.481 88.9464 125.481C88.9411 125.481 88.9358 125.481 88.9304 125.481C88.9251 125.481 88.9198 125.481 88.9145 125.481C88.9092 125.481 88.9039 125.481 88.8986 125.481C88.8933 125.481 88.888 125.481 88.8827 125.481C88.8774 125.481 88.8721 125.481 88.8668 125.481C88.8615 125.481 88.8562 125.481 88.8509 125.481C88.8456 125.481 88.8403 125.481 88.8351 125.481C88.8298 125.481 88.8245 125.481 88.8192 125.481C88.8139 125.481 88.8086 125.481 88.8033 125.481C88.798 125.481 88.7927 125.481 88.7875 125.481C88.7822 125.481 88.7769 125.481 88.7716 125.481C88.7663 125.481 88.7611 125.481 88.7558 125.481C88.7505 125.481 88.7452 125.481 88.7399 125.481C88.7347 125.481 88.7294 125.481 88.7241 125.481C88.7189 125.481 88.7136 125.481 88.7083 125.481C88.703 125.481 88.6978 125.481 88.6925 125.481C88.6872 125.481 88.682 125.481 88.6767 125.481C88.6714 125.481 88.6662 125.481 88.6609 125.481C88.6557 125.481 88.6504 125.481 88.6451 125.481C88.6399 125.481 88.6346 125.481 88.6294 125.481C88.6241 125.481 88.6188 125.481 88.6136 125.481C88.6083 125.481 88.6031 125.481 88.5978 125.481C88.5926 125.481 88.5873 125.481 88.5821 125.481C88.5768 125.481 88.5716 125.481 88.5663 125.481C88.5611 125.481 88.5559 125.481 88.5506 125.481C88.5454 125.481 88.5401 125.481 88.5349 125.481C88.5296 125.481 88.5244 125.481 88.5192 125.481C88.5139 125.481 88.5087 125.481 88.5035 125.481C88.4982 125.481 88.493 125.481 88.4878 125.481C88.4825 125.481 88.4773 125.481 88.4721 125.481C88.4668 125.481 88.4616 125.481 88.4564 125.481C88.4512 125.481 88.4459 125.481 88.4407 125.481C88.4355 125.481 88.4303 125.481 88.425 125.481C88.4198 125.481 88.4146 125.481 88.4094 125.481C88.4042 125.481 88.3989 125.481 88.3937 125.481C88.3885 125.481 88.3833 125.481 88.3781 125.481C88.3729 125.481 88.3676 125.481 88.3624 125.481C88.3572 125.481 88.352 125.481 88.3468 125.481C88.3416 125.481 88.3364 125.481 88.3312 125.481C88.326 125.481 88.3208 125.481 88.3156 125.481C88.3104 125.481 88.3052 125.481 88.3 125.481C88.2948 125.481 88.2896 125.481 88.2844 125.481C88.2792 125.481 88.274 125.481 88.2688 125.481C88.2636 125.481 88.2584 125.481 88.2532 125.481C88.248 125.481 88.2428 125.481 88.2376 125.481C88.2324 125.481 88.2273 125.481 88.2221 125.481C88.2169 125.481 88.2117 125.481 88.2065 125.481C88.2013 125.481 88.1962 125.481 88.191 125.481C88.1858 125.481 88.1806 125.481 88.1754 125.481C88.1703 125.481 88.1651 125.481 88.1599 125.481C88.1547 125.481 88.1495 125.481 88.1444 125.481C88.1392 125.481 88.134 125.481 88.1289 125.481C88.1237 125.481 88.1185 125.481 88.1134 125.481C88.1082 125.481 88.103 125.481 88.0979 125.481C88.0927 125.481 88.0875 125.481 88.0824 125.481C88.0772 125.481 88.072 125.481 88.0669 125.481C88.0617 125.481 88.0566 125.481 88.0514 125.481C88.0463 125.481 88.0411 125.481 88.0359 125.481C88.0308 125.481 88.0256 125.481 88.0205 125.481C88.0153 125.481 88.0102 125.481 88.005 125.481C87.9999 125.481 87.9947 125.481 87.9896 125.481C87.9844 125.481 87.9793 125.481 87.9742 125.481C87.969 125.481 87.9639 125.481 87.9587 125.481C87.9536 125.481 87.9485 125.481 87.9433 125.481C87.9382 125.481 87.933 125.481 87.9279 125.481C87.9228 125.481 87.9176 125.481 87.9125 125.481C87.9074 125.481 87.9022 125.481 87.8971 125.481C87.892 125.481 87.8868 125.481 87.8817 125.481C87.8766 125.481 87.8715 125.481 87.8663 125.481C87.8612 125.481 87.8561 125.481 87.851 125.481C87.8459 125.481 87.8407 125.481 87.8356 125.481C87.8305 125.481 87.8254 125.481 87.8203 125.481C87.8151 125.481 87.81 125.481 87.8049 125.481C87.7998 125.481 87.7947 125.481 87.7896 125.481C87.7845 125.481 87.7794 125.481 87.7743 125.481C87.7691 125.481 87.764 125.481 87.7589 125.481C87.7538 125.481 87.7487 125.481 87.7436 125.481C87.7385 125.481 87.7334 125.481 87.7283 125.481C87.7232 125.481 87.7181 125.481 87.713 125.481C87.7079 125.481 87.7028 125.481 87.6977 125.481C87.6926 125.481 87.6875 125.481 87.6824 125.481C87.6774 125.481 87.6723 125.481 87.6672 125.481C87.6621 125.481 87.657 125.481 87.6519 125.481C87.6468 125.481 87.6417 125.481 87.6367 125.481C87.6316 125.481 87.6265 125.481 87.6214 125.481C87.6163 125.481 87.6112 125.481 87.6062 125.481C87.6011 125.481 87.596 125.481 87.5909 125.481C87.5859 125.481 87.5808 125.481 87.5757 125.481C87.5706 125.481 87.5656 125.481 87.5605 125.481C87.5554 125.481 87.5504 125.481 87.5453 125.481C87.5402 125.481 87.5352 125.481 87.5301 125.481C87.525 125.481 87.52 125.481 87.5149 125.481C87.5098 125.481 87.5048 125.481 87.4997 125.481C87.4947 125.481 87.4896 125.481 87.4845 125.481C87.4795 125.481 87.4744 125.481 87.4694 125.481C87.4643 125.481 87.4593 125.481 87.4542 125.481C87.4492 125.481 87.4441 125.481 87.4391 125.481C87.434 125.481 87.429 125.481 87.4239 125.481C87.4189 125.481 87.4138 125.481 87.4088 125.481C87.4037 125.481 87.3987 125.481 87.3937 125.481C87.3886 125.481 87.3836 125.481 87.3785 125.481C87.3735 125.481 87.3685 125.481 87.3634 125.481C87.3584 125.481 87.3534 125.481 87.3483 125.481C87.3433 125.481 87.3383 125.481 87.3332 125.481C87.3282 125.481 87.3232 125.481 87.3181 125.481C87.3131 125.481 87.3081 125.481 87.3031 125.481C87.298 125.481 87.293 125.481 87.288 125.481C87.283 125.481 87.278 125.481 87.2729 125.481C87.2679 125.481 87.2629 125.481 87.2579 125.481C87.2529 125.481 87.2479 125.481 87.2428 125.481C87.2378 125.481 87.2328 125.481 87.2278 125.481C87.2228 125.481 87.2178 125.481 87.2128 125.481C87.2078 125.481 87.2028 125.481 87.1978 125.481C87.1927 125.481 87.1877 125.481 87.1827 125.481C87.1777 125.481 87.1727 125.481 87.1677 125.481C87.1627 125.481 87.1577 125.481 87.1527 125.481C87.1477 125.481 87.1427 125.481 87.1377 125.481C87.1328 125.481 87.1278 125.481 87.1228 125.481C87.1178 125.481 87.1128 125.481 87.1078 125.481C87.1028 125.481 87.0978 125.481 87.0928 125.481C87.0878 125.481 87.0829 125.481 87.0779 125.481C87.0729 125.481 87.0679 125.481 87.0629 125.481C87.0579 125.481 87.053 125.481 87.048 125.481C87.043 125.481 87.038 125.481 87.0331 125.481C87.0281 125.481 87.0231 125.481 87.0181 125.481C87.0132 125.481 87.0082 125.481 87.0032 125.481C86.9982 125.481 86.9933 125.481 86.9883 125.481C86.9833 125.481 86.9784 125.481 86.9734 125.481C86.9684 125.481 86.9635 125.481 86.9585 125.481C86.9536 125.481 86.9486 125.481 86.9436 125.481C86.9387 125.481 86.9337 125.481 86.9288 125.481C86.9238 125.481 86.9188 125.481 86.9139 125.481C86.9089 125.481 86.904 125.481 86.899 125.481C86.8941 125.481 86.8891 125.481 86.8842 125.481C86.8792 125.481 86.8743 125.481 86.8693 125.481C86.8644 125.481 86.8594 125.481 86.8545 125.481C86.8496 125.481 86.8446 125.481 86.8397 125.481C86.8347 125.481 86.8298 125.481 86.8249 125.481C86.8199 125.481 86.815 125.481 86.81 125.481C86.8051 125.481 86.8002 125.481 86.7952 125.481C86.7903 125.481 86.7854 125.481 86.7804 125.481C86.7755 125.481 86.7706 125.481 86.7657 125.481C86.7607 125.481 86.7558 125.481 86.7509 125.481C86.746 125.481 86.741 125.481 86.7361 125.481C86.7312 125.481 86.7263 125.481 86.7213 125.481C86.7164 125.481 86.7115 125.481 86.7066 125.481C86.7017 125.481 86.6968 125.481 86.6918 125.481C86.6869 125.481 86.682 125.481 86.6771 125.481C86.6722 125.481 86.6673 125.481 86.6624 125.481C86.6575 125.481 86.6526 125.481 86.6477 125.481C86.6428 125.481 86.6378 125.481 86.6329 125.481C86.628 125.481 86.6231 125.481 86.6182 125.481C86.6133 125.481 86.6084 125.481 86.6035 125.481C86.5986 125.481 86.5937 125.481 86.5889 125.481C86.584 125.481 86.5791 125.481 86.5742 125.481C86.5693 125.481 86.5644 125.481 86.5595 125.481C86.5546 125.481 86.5497 125.481 86.5448 125.481C86.5399 125.481 86.5351 125.481 86.5302 125.481C86.5253 125.481 86.5204 125.481 86.5155 125.481C86.5106 125.481 86.5058 125.481 86.5009 125.481C86.496 125.481 86.4911 125.481 86.4863 125.481C86.4814 125.481 86.4765 125.481 86.4716 125.481C86.4668 125.481 86.4619 125.481 86.457 125.481C86.4521 125.481 86.4473 125.481 86.4424 125.481C86.4375 125.481 86.4327 125.481 86.4278 125.481C86.4229 125.481 86.4181 125.481 86.4132 125.481C86.4083 125.481 86.4035 125.481 86.3986 125.481C86.3938 125.481 86.3889 125.481 86.3841 125.481C86.3792 125.481 86.3743 125.481 86.3695 125.481C86.3646 125.481 86.3598 125.481 86.3549 125.481C86.3501 125.481 86.3452 125.481 86.3404 125.481C86.3355 125.481 86.3307 125.481 86.3258 125.481C86.321 125.481 86.3161 125.481 86.3113 125.481C86.3064 125.481 86.3016 125.481 86.2968 125.481C86.2919 125.481 86.2871 125.481 86.2822 125.481C86.2774 125.481 86.2726 125.481 86.2677 125.481C86.2629 125.481 86.2581 125.481 86.2532 125.481C86.2484 125.481 86.2436 125.481 86.2387 125.481C86.2339 125.481 86.2291 125.481 86.2243 125.481C86.2194 125.481 86.2146 125.481 86.2098 125.481C86.2049 125.481 86.2001 125.481 86.1953 125.481C86.1905 125.481 86.1857 125.481 86.1808 125.481C86.176 125.481 86.1712 125.481 86.1664 125.481C86.1616 125.481 86.1568 125.481 86.1519 125.481C86.1471 125.481 86.1423 125.481 86.1375 125.481C86.1327 125.481 86.1279 125.481 86.1231 125.481C86.1183 125.481 86.1135 125.481 86.1086 125.481C86.1038 125.481 86.099 125.481 86.0942 125.481C86.0894 125.481 86.0846 125.481 86.0798 125.481C86.075 125.481 86.0702 125.481 86.0654 125.481C86.0606 125.481 86.0558 125.481 86.051 125.481C86.0462 125.481 86.0414 125.481 86.0367 125.481C86.0319 125.481 86.0271 125.481 86.0223 125.481C86.0175 125.481 86.0127 125.481 86.0079 125.481C86.0031 125.481 85.9983 125.481 85.9936 125.481C85.9888 125.481 85.984 125.481 85.9792 125.481C85.9744 125.481 85.9696 125.481 85.9649 125.481C85.9601 125.481 85.9553 125.481 85.9505 125.481C85.9458 125.481 85.941 125.481 85.9362 125.481C85.9314 125.481 85.9267 125.481 85.9219 125.481C85.9171 125.481 85.9124 125.481 85.9076 125.481C85.9028 125.481 85.8981 125.481 85.8933 125.481C85.8885 125.481 85.8838 125.481 85.879 125.481C85.8742 125.481 85.8695 125.481 85.8647 125.481C85.8599 125.481 85.8552 125.481 85.8504 125.481C85.8457 125.481 85.8409 125.481 85.8362 125.481C85.8314 125.481 85.8267 125.481 85.8219 125.481C85.8172 125.481 85.8124 125.481 85.8077 125.481C85.8029 125.481 85.7982 125.481 85.7934 125.481C85.7887 125.481 85.7839 125.481 85.7792 125.481C85.7744 125.481 85.7697 125.481 85.7649 125.481C85.7602 125.481 85.7555 125.481 85.7507 125.481C85.746 125.481 85.7412 125.481 85.7365 125.481C85.7318 125.481 85.727 125.481 85.7223 125.481C85.7176 125.481 85.7128 125.481 85.7081 125.481C85.7034 125.481 85.6987 125.481 85.6939 125.481C85.6892 125.481 85.6845 125.481 85.6797 125.481C85.675 125.481 85.6703 125.481 85.6656 125.481C85.6609 125.481 85.6561 125.481 85.6514 125.481C85.6467 125.481 85.642 125.481 85.6373 125.481C85.6325 125.481 85.6278 125.481 85.6231 125.481C85.6184 125.481 85.6137 125.481 85.609 125.481C85.6043 125.481 85.5995 125.481 85.5948 125.481C85.5901 125.481 85.5854 125.481 85.5807 125.481C85.576 125.481 85.5713 125.481 85.5666 125.481C85.5619 125.481 85.5572 125.481 85.5525 125.481C85.5478 125.481 85.5431 125.481 85.5384 125.481C85.5337 125.481 85.529 125.481 85.5243 125.481C85.5196 125.481 85.5149 125.481 85.5102 125.481C85.5055 125.481 85.5008 125.481 85.4961 125.481C85.4915 125.481 85.4868 125.481 85.4821 125.481C85.4774 125.481 85.4727 125.481 85.468 125.481C85.4633 125.481 85.4587 125.481 85.454 125.481C85.4493 125.481 85.4446 125.481 85.4399 125.481C85.4353 125.481 85.4306 125.481 85.4259 125.481C85.4212 125.481 85.4165 125.481 85.4119 125.481C85.4072 125.481 85.4025 125.481 85.3979 125.481C85.3932 125.481 85.3885 125.481 85.3838 125.481C85.3792 125.481 85.3745 125.481 85.3698 125.481C85.3652 125.481 85.3605 125.481 85.3559 125.481C85.3512 125.481 85.3465 125.481 85.3419 125.481C85.3372 125.481 85.3325 125.481 85.3279 125.481C85.3232 125.481 85.3186 125.481 85.3139 125.481C85.3093 125.481 85.3046 125.481 85.3 125.481C85.2953 125.481 85.2907 125.481 85.286 125.481C85.2814 125.481 85.2767 125.481 85.2721 125.481C85.2674 125.481 85.2628 125.481 85.2581 125.481C85.2535 125.481 85.2488 125.481 85.2442 125.481C85.2396 125.481 85.2349 125.481 85.2303 125.481C85.2256 125.481 85.221 125.481 85.2164 125.481C85.2117 125.481 85.2071 125.481 85.2025 125.481C85.1978 125.481 85.1932 125.481 85.1886 125.481C85.1839 125.481 85.1793 125.481 85.1747 125.481C85.1701 125.481 85.1654 125.481 85.1608 125.481C85.1562 125.481 85.1516 125.481 85.1469 125.481C85.1423 125.481 85.1377 125.481 85.1331 125.481C85.1284 125.481 85.1238 125.481 85.1192 125.481C85.1146 125.481 85.11 125.481 85.1054 125.481C85.1007 125.481 85.0961 125.481 85.0915 125.481C85.0869 125.481 85.0823 125.481 85.0777 125.481C85.0731 125.481 85.0685 125.481 85.0639 125.481C85.0593 125.481 85.0547 125.481 85.0501 125.481C85.0454 125.481 85.0408 125.481 85.0362 125.481C85.0316 125.481 85.027 125.481 85.0224 125.481C85.0178 125.481 85.0133 125.481 85.0087 125.481C85.0041 125.481 84.9995 125.481 84.9949 125.481C84.9903 125.481 84.9857 125.481 84.9811 125.481C84.9765 125.481 84.9719 125.481 84.9673 125.481C84.9627 125.481 84.9582 125.481 84.9536 125.481C84.949 125.481 84.9444 125.481 84.9398 125.481C84.9352 125.481 84.9307 125.481 84.9261 125.481C84.9215 125.481 84.9169 125.481 84.9123 125.481C84.9078 125.481 84.9032 125.481 84.8986 125.481C84.894 125.481 84.8895 125.481 84.8849 125.481C84.8803 125.481 84.8758 125.481 84.8712 125.481C84.8666 125.481 84.8621 125.481 84.8575 125.481C84.8529 125.481 84.8484 125.481 84.8438 125.481C84.8392 125.481 84.8347 125.481 84.8301 125.481C84.8256 125.481 84.821 125.481 84.8164 125.481C84.8119 125.481 84.8073 125.481 84.8028 125.481C84.7982 125.481 84.7937 125.481 84.7891 125.481C84.7846 125.481 84.78 125.481 84.7755 125.481C84.7709 125.481 84.7664 125.481 84.7618 125.481C84.7573 125.481 84.7527 125.481 84.7482 125.481C84.7436 125.481 84.7391 125.481 84.7345 125.481C84.73 125.481 84.7255 125.481 84.7209 125.481C84.7164 125.481 84.7118 125.481 84.7073 125.481C84.7028 125.481 84.6982 125.481 84.6937 125.481C84.6892 125.481 84.6846 125.481 84.6801 125.481C84.6756 125.481 84.671 125.481 84.6665 125.481C84.662 125.481 84.6575 125.481 84.6529 125.481C84.6484 125.481 84.6439 125.481 84.6394 125.481C84.6348 125.481 84.6303 125.481 84.6258 125.481C84.6213 125.481 84.6168 125.481 84.6122 125.481C84.6077 125.481 84.6032 125.481 84.5987 125.481C84.5942 125.481 84.5897 125.481 84.5852 125.481C84.5806 125.481 84.5761 125.481 84.5716 125.481C84.5671 125.481 84.5626 125.481 84.5581 125.481C84.5536 125.481 84.5491 125.481 84.5446 125.481C84.5401 125.481 84.5356 125.481 84.5311 125.481C84.5266 125.481 84.5221 125.481 84.5176 125.481C84.5131 125.481 84.5086 125.481 84.5041 125.481C84.4996 125.481 84.4951 125.481 84.4906 125.481C84.4861 125.481 84.4816 125.481 84.4771 125.481C84.4726 125.481 84.4682 125.481 84.4637 125.481C84.4592 125.481 84.4547 125.481 84.4502 125.481C84.4457 125.481 84.4412 125.481 84.4368 125.481C84.4323 125.481 84.4278 125.481 84.4233 125.481C84.4188 125.481 84.4144 125.481 84.4099 125.481C84.4054 125.481 84.4009 125.481 84.3965 125.481C84.392 125.481 84.3875 125.481 84.383 125.481C84.3786 125.481 84.3741 125.481 84.3696 125.481C84.3652 125.481 84.3607 125.481 84.3562 125.481C84.3518 125.481 84.3473 125.481 84.3428 125.481C84.3384 125.481 84.3339 125.481 84.3294 125.481C84.325 125.481 84.3205 125.481 84.3161 125.481C84.3116 125.481 84.3071 125.481 84.3027 125.481C84.2982 125.481 84.2938 125.481 84.2893 125.481C84.2849 125.481 84.2804 125.481 84.276 125.481C84.2715 125.481 84.2671 125.481 84.2626 125.481C84.2582 125.481 84.2537 125.481 84.2493 125.481C84.2448 125.481 84.2404 125.481 84.236 125.481C84.2315 125.481 84.2271 125.481 84.2226 125.481C84.2182 125.481 84.2138 125.481 84.2093 125.481C84.2049 125.481 84.2005 125.481 84.196 125.481C84.1916 125.481 84.1872 125.481 84.1827 125.481C84.1783 125.481 84.1739 125.481 84.1694 125.481C84.165 125.481 84.1606 125.481 84.1562 125.481C84.1517 125.481 84.1473 125.481 84.1429 125.481C84.1385 125.481 84.134 125.481 84.1296 125.481C84.1252 125.481 84.1208 125.481 84.1164 125.481C84.1119 125.481 84.1075 125.481 84.1031 125.481C84.0987 125.481 84.0943 125.481 84.0899 125.481C84.0855 125.481 84.0811 125.481 84.0766 125.481C84.0722 125.481 84.0678 125.481 84.0634 125.481C84.059 125.481 84.0546 125.481 84.0502 125.481C84.0458 125.481 84.0414 125.481 84.037 125.481C84.0326 125.481 84.0282 125.481 84.0238 125.481C84.0194 125.481 84.015 125.481 84.0106 125.481V127.357V129.233C84.015 129.233 84.0194 129.233 84.0238 129.233C84.0282 129.233 84.0326 129.233 84.037 129.233C84.0414 129.233 84.0458 129.233 84.0502 129.233C84.0546 129.233 84.059 129.233 84.0634 129.233C84.0678 129.233 84.0722 129.233 84.0766 129.233C84.0811 129.233 84.0855 129.233 84.0899 129.233C84.0943 129.233 84.0987 129.233 84.1031 129.233C84.1075 129.233 84.1119 129.233 84.1164 129.233C84.1208 129.233 84.1252 129.233 84.1296 129.233C84.134 129.233 84.1385 129.233 84.1429 129.233C84.1473 129.233 84.1517 129.233 84.1562 129.233C84.1606 129.233 84.165 129.233 84.1694 129.233C84.1739 129.233 84.1783 129.233 84.1827 129.233C84.1872 129.233 84.1916 129.233 84.196 129.233C84.2005 129.233 84.2049 129.233 84.2093 129.233C84.2138 129.233 84.2182 129.233 84.2226 129.233C84.2271 129.233 84.2315 129.233 84.236 129.233C84.2404 129.233 84.2448 129.233 84.2493 129.233C84.2537 129.233 84.2582 129.233 84.2626 129.233C84.2671 129.233 84.2715 129.233 84.276 129.233C84.2804 129.233 84.2849 129.233 84.2893 129.233C84.2938 129.233 84.2982 129.233 84.3027 129.233C84.3071 129.233 84.3116 129.233 84.3161 129.233C84.3205 129.233 84.325 129.233 84.3294 129.233C84.3339 129.233 84.3384 129.233 84.3428 129.233C84.3473 129.233 84.3518 129.233 84.3562 129.233C84.3607 129.233 84.3652 129.233 84.3696 129.233C84.3741 129.233 84.3786 129.233 84.383 129.233C84.3875 129.233 84.392 129.233 84.3965 129.233C84.4009 129.233 84.4054 129.233 84.4099 129.233C84.4144 129.233 84.4188 129.233 84.4233 129.233C84.4278 129.233 84.4323 129.233 84.4368 129.233C84.4412 129.233 84.4457 129.233 84.4502 129.233C84.4547 129.233 84.4592 129.233 84.4637 129.233C84.4682 129.233 84.4726 129.233 84.4771 129.233C84.4816 129.233 84.4861 129.233 84.4906 129.233C84.4951 129.233 84.4996 129.233 84.5041 129.233C84.5086 129.233 84.5131 129.233 84.5176 129.233C84.5221 129.233 84.5266 129.233 84.5311 129.233C84.5356 129.233 84.5401 129.233 84.5446 129.233C84.5491 129.233 84.5536 129.233 84.5581 129.233C84.5626 129.233 84.5671 129.233 84.5716 129.233C84.5761 129.233 84.5806 129.233 84.5852 129.233C84.5897 129.233 84.5942 129.233 84.5987 129.233C84.6032 129.233 84.6077 129.233 84.6122 129.233C84.6168 129.233 84.6213 129.233 84.6258 129.233C84.6303 129.233 84.6348 129.233 84.6394 129.233C84.6439 129.233 84.6484 129.233 84.6529 129.233C84.6575 129.233 84.662 129.233 84.6665 129.233C84.671 129.233 84.6756 129.233 84.6801 129.233C84.6846 129.233 84.6892 129.233 84.6937 129.233C84.6982 129.233 84.7028 129.233 84.7073 129.233C84.7118 129.233 84.7164 129.233 84.7209 129.233C84.7255 129.233 84.73 129.233 84.7345 129.233C84.7391 129.233 84.7436 129.233 84.7482 129.233C84.7527 129.233 84.7573 129.233 84.7618 129.233C84.7664 129.233 84.7709 129.233 84.7755 129.233C84.78 129.233 84.7846 129.233 84.7891 129.233C84.7937 129.233 84.7982 129.233 84.8028 129.233C84.8073 129.233 84.8119 129.233 84.8164 129.233C84.821 129.233 84.8256 129.233 84.8301 129.233C84.8347 129.233 84.8392 129.233 84.8438 129.233C84.8484 129.233 84.8529 129.233 84.8575 129.233C84.8621 129.233 84.8666 129.233 84.8712 129.233C84.8758 129.233 84.8803 129.233 84.8849 129.233C84.8895 129.233 84.894 129.233 84.8986 129.233C84.9032 129.233 84.9078 129.233 84.9123 129.233C84.9169 129.233 84.9215 129.233 84.9261 129.233C84.9307 129.233 84.9352 129.233 84.9398 129.233C84.9444 129.233 84.949 129.233 84.9536 129.233C84.9582 129.233 84.9627 129.233 84.9673 129.233C84.9719 129.233 84.9765 129.233 84.9811 129.233C84.9857 129.233 84.9903 129.233 84.9949 129.233C84.9995 129.233 85.0041 129.233 85.0087 129.233C85.0133 129.233 85.0178 129.233 85.0224 129.233C85.027 129.233 85.0316 129.233 85.0362 129.233C85.0408 129.233 85.0454 129.233 85.0501 129.233C85.0547 129.233 85.0593 129.233 85.0639 129.233C85.0685 129.233 85.0731 129.233 85.0777 129.233C85.0823 129.233 85.0869 129.233 85.0915 129.233C85.0961 129.233 85.1007 129.233 85.1054 129.233C85.11 129.233 85.1146 129.233 85.1192 129.233C85.1238 129.233 85.1284 129.233 85.1331 129.233C85.1377 129.233 85.1423 129.233 85.1469 129.233C85.1516 129.233 85.1562 129.233 85.1608 129.233C85.1654 129.233 85.1701 129.233 85.1747 129.233C85.1793 129.233 85.1839 129.233 85.1886 129.233C85.1932 129.233 85.1978 129.233 85.2025 129.233C85.2071 129.233 85.2117 129.233 85.2164 129.233C85.221 129.233 85.2256 129.233 85.2303 129.233C85.2349 129.233 85.2396 129.233 85.2442 129.233C85.2488 129.233 85.2535 129.233 85.2581 129.233C85.2628 129.233 85.2674 129.233 85.2721 129.233C85.2767 129.233 85.2814 129.233 85.286 129.233C85.2907 129.233 85.2953 129.233 85.3 129.233C85.3046 129.233 85.3093 129.233 85.3139 129.233C85.3186 129.233 85.3232 129.233 85.3279 129.233C85.3325 129.233 85.3372 129.233 85.3419 129.233C85.3465 129.233 85.3512 129.233 85.3559 129.233C85.3605 129.233 85.3652 129.233 85.3698 129.233C85.3745 129.233 85.3792 129.233 85.3838 129.233C85.3885 129.233 85.3932 129.233 85.3979 129.233C85.4025 129.233 85.4072 129.233 85.4119 129.233C85.4165 129.233 85.4212 129.233 85.4259 129.233C85.4306 129.233 85.4353 129.233 85.4399 129.233C85.4446 129.233 85.4493 129.233 85.454 129.233C85.4587 129.233 85.4633 129.233 85.468 129.233C85.4727 129.233 85.4774 129.233 85.4821 129.233C85.4868 129.233 85.4915 129.233 85.4961 129.233C85.5008 129.233 85.5055 129.233 85.5102 129.233C85.5149 129.233 85.5196 129.233 85.5243 129.233C85.529 129.233 85.5337 129.233 85.5384 129.233C85.5431 129.233 85.5478 129.233 85.5525 129.233C85.5572 129.233 85.5619 129.233 85.5666 129.233C85.5713 129.233 85.576 129.233 85.5807 129.233C85.5854 129.233 85.5901 129.233 85.5948 129.233C85.5995 129.233 85.6043 129.233 85.609 129.233C85.6137 129.233 85.6184 129.233 85.6231 129.233C85.6278 129.233 85.6325 129.233 85.6373 129.233C85.642 129.233 85.6467 129.233 85.6514 129.233C85.6561 129.233 85.6609 129.233 85.6656 129.233C85.6703 129.233 85.675 129.233 85.6797 129.233C85.6845 129.233 85.6892 129.233 85.6939 129.233C85.6987 129.233 85.7034 129.233 85.7081 129.233C85.7128 129.233 85.7176 129.233 85.7223 129.233C85.727 129.233 85.7318 129.233 85.7365 129.233C85.7412 129.233 85.746 129.233 85.7507 129.233C85.7555 129.233 85.7602 129.233 85.7649 129.233C85.7697 129.233 85.7744 129.233 85.7792 129.233C85.7839 129.233 85.7887 129.233 85.7934 129.233C85.7982 129.233 85.8029 129.233 85.8077 129.233C85.8124 129.233 85.8172 129.233 85.8219 129.233C85.8267 129.233 85.8314 129.233 85.8362 129.233C85.8409 129.233 85.8457 129.233 85.8504 129.233C85.8552 129.233 85.8599 129.233 85.8647 129.233C85.8695 129.233 85.8742 129.233 85.879 129.233C85.8838 129.233 85.8885 129.233 85.8933 129.233C85.8981 129.233 85.9028 129.233 85.9076 129.233C85.9124 129.233 85.9171 129.233 85.9219 129.233C85.9267 129.233 85.9314 129.233 85.9362 129.233C85.941 129.233 85.9458 129.233 85.9505 129.233C85.9553 129.233 85.9601 129.233 85.9649 129.233C85.9696 129.233 85.9744 129.233 85.9792 129.233C85.984 129.233 85.9888 129.233 85.9936 129.233C85.9983 129.233 86.0031 129.233 86.0079 129.233C86.0127 129.233 86.0175 129.233 86.0223 129.233C86.0271 129.233 86.0319 129.233 86.0367 129.233C86.0414 129.233 86.0462 129.233 86.051 129.233C86.0558 129.233 86.0606 129.233 86.0654 129.233C86.0702 129.233 86.075 129.233 86.0798 129.233C86.0846 129.233 86.0894 129.233 86.0942 129.233C86.099 129.233 86.1038 129.233 86.1086 129.233C86.1135 129.233 86.1183 129.233 86.1231 129.233C86.1279 129.233 86.1327 129.233 86.1375 129.233C86.1423 129.233 86.1471 129.233 86.1519 129.233C86.1568 129.233 86.1616 129.233 86.1664 129.233C86.1712 129.233 86.176 129.233 86.1808 129.233C86.1857 129.233 86.1905 129.233 86.1953 129.233C86.2001 129.233 86.2049 129.233 86.2098 129.233C86.2146 129.233 86.2194 129.233 86.2243 129.233C86.2291 129.233 86.2339 129.233 86.2387 129.233C86.2436 129.233 86.2484 129.233 86.2532 129.233C86.2581 129.233 86.2629 129.233 86.2677 129.233C86.2726 129.233 86.2774 129.233 86.2822 129.233C86.2871 129.233 86.2919 129.233 86.2968 129.233C86.3016 129.233 86.3064 129.233 86.3113 129.233C86.3161 129.233 86.321 129.233 86.3258 129.233C86.3307 129.233 86.3355 129.233 86.3404 129.233C86.3452 129.233 86.3501 129.233 86.3549 129.233C86.3598 129.233 86.3646 129.233 86.3695 129.233C86.3743 129.233 86.3792 129.233 86.3841 129.233C86.3889 129.233 86.3938 129.233 86.3986 129.233C86.4035 129.233 86.4083 129.233 86.4132 129.233C86.4181 129.233 86.4229 129.233 86.4278 129.233C86.4327 129.233 86.4375 129.233 86.4424 129.233C86.4473 129.233 86.4521 129.233 86.457 129.233C86.4619 129.233 86.4668 129.233 86.4716 129.233C86.4765 129.233 86.4814 129.233 86.4863 129.233C86.4911 129.233 86.496 129.233 86.5009 129.233C86.5058 129.233 86.5106 129.233 86.5155 129.233C86.5204 129.233 86.5253 129.233 86.5302 129.233C86.5351 129.233 86.5399 129.233 86.5448 129.233C86.5497 129.233 86.5546 129.233 86.5595 129.233C86.5644 129.233 86.5693 129.233 86.5742 129.233C86.5791 129.233 86.584 129.233 86.5889 129.233C86.5937 129.233 86.5986 129.233 86.6035 129.233C86.6084 129.233 86.6133 129.233 86.6182 129.233C86.6231 129.233 86.628 129.233 86.6329 129.233C86.6378 129.233 86.6428 129.233 86.6477 129.233C86.6526 129.233 86.6575 129.233 86.6624 129.233C86.6673 129.233 86.6722 129.233 86.6771 129.233C86.682 129.233 86.6869 129.233 86.6918 129.233C86.6968 129.233 86.7017 129.233 86.7066 129.233C86.7115 129.233 86.7164 129.233 86.7213 129.233C86.7263 129.233 86.7312 129.233 86.7361 129.233C86.741 129.233 86.746 129.233 86.7509 129.233C86.7558 129.233 86.7607 129.233 86.7657 129.233C86.7706 129.233 86.7755 129.233 86.7804 129.233C86.7854 129.233 86.7903 129.233 86.7952 129.233C86.8002 129.233 86.8051 129.233 86.81 129.233C86.815 129.233 86.8199 129.233 86.8249 129.233C86.8298 129.233 86.8347 129.233 86.8397 129.233C86.8446 129.233 86.8496 129.233 86.8545 129.233C86.8594 129.233 86.8644 129.233 86.8693 129.233C86.8743 129.233 86.8792 129.233 86.8842 129.233C86.8891 129.233 86.8941 129.233 86.899 129.233C86.904 129.233 86.9089 129.233 86.9139 129.233C86.9188 129.233 86.9238 129.233 86.9288 129.233C86.9337 129.233 86.9387 129.233 86.9436 129.233C86.9486 129.233 86.9536 129.233 86.9585 129.233C86.9635 129.233 86.9684 129.233 86.9734 129.233C86.9784 129.233 86.9833 129.233 86.9883 129.233C86.9933 129.233 86.9982 129.233 87.0032 129.233C87.0082 129.233 87.0132 129.233 87.0181 129.233C87.0231 129.233 87.0281 129.233 87.0331 129.233C87.038 129.233 87.043 129.233 87.048 129.233C87.053 129.233 87.0579 129.233 87.0629 129.233C87.0679 129.233 87.0729 129.233 87.0779 129.233C87.0829 129.233 87.0878 129.233 87.0928 129.233C87.0978 129.233 87.1028 129.233 87.1078 129.233C87.1128 129.233 87.1178 129.233 87.1228 129.233C87.1278 129.233 87.1328 129.233 87.1377 129.233C87.1427 129.233 87.1477 129.233 87.1527 129.233C87.1577 129.233 87.1627 129.233 87.1677 129.233C87.1727 129.233 87.1777 129.233 87.1827 129.233C87.1877 129.233 87.1927 129.233 87.1978 129.233C87.2028 129.233 87.2078 129.233 87.2128 129.233C87.2178 129.233 87.2228 129.233 87.2278 129.233C87.2328 129.233 87.2378 129.233 87.2428 129.233C87.2479 129.233 87.2529 129.233 87.2579 129.233C87.2629 129.233 87.2679 129.233 87.2729 129.233C87.278 129.233 87.283 129.233 87.288 129.233C87.293 129.233 87.298 129.233 87.3031 129.233C87.3081 129.233 87.3131 129.233 87.3181 129.233C87.3232 129.233 87.3282 129.233 87.3332 129.233C87.3383 129.233 87.3433 129.233 87.3483 129.233C87.3534 129.233 87.3584 129.233 87.3634 129.233C87.3685 129.233 87.3735 129.233 87.3785 129.233C87.3836 129.233 87.3886 129.233 87.3937 129.233C87.3987 129.233 87.4037 129.233 87.4088 129.233C87.4138 129.233 87.4189 129.233 87.4239 129.233C87.429 129.233 87.434 129.233 87.4391 129.233C87.4441 129.233 87.4492 129.233 87.4542 129.233C87.4593 129.233 87.4643 129.233 87.4694 129.233C87.4744 129.233 87.4795 129.233 87.4845 129.233C87.4896 129.233 87.4947 129.233 87.4997 129.233C87.5048 129.233 87.5098 129.233 87.5149 129.233C87.52 129.233 87.525 129.233 87.5301 129.233C87.5352 129.233 87.5402 129.233 87.5453 129.233C87.5504 129.233 87.5554 129.233 87.5605 129.233C87.5656 129.233 87.5706 129.233 87.5757 129.233C87.5808 129.233 87.5859 129.233 87.5909 129.233C87.596 129.233 87.6011 129.233 87.6062 129.233C87.6112 129.233 87.6163 129.233 87.6214 129.233C87.6265 129.233 87.6316 129.233 87.6367 129.233C87.6417 129.233 87.6468 129.233 87.6519 129.233C87.657 129.233 87.6621 129.233 87.6672 129.233C87.6723 129.233 87.6774 129.233 87.6824 129.233C87.6875 129.233 87.6926 129.233 87.6977 129.233C87.7028 129.233 87.7079 129.233 87.713 129.233C87.7181 129.233 87.7232 129.233 87.7283 129.233C87.7334 129.233 87.7385 129.233 87.7436 129.233C87.7487 129.233 87.7538 129.233 87.7589 129.233C87.764 129.233 87.7691 129.233 87.7743 129.233C87.7794 129.233 87.7845 129.233 87.7896 129.233C87.7947 129.233 87.7998 129.233 87.8049 129.233C87.81 129.233 87.8151 129.233 87.8203 129.233C87.8254 129.233 87.8305 129.233 87.8356 129.233C87.8407 129.233 87.8459 129.233 87.851 129.233C87.8561 129.233 87.8612 129.233 87.8663 129.233C87.8715 129.233 87.8766 129.233 87.8817 129.233C87.8868 129.233 87.892 129.233 87.8971 129.233C87.9022 129.233 87.9074 129.233 87.9125 129.233C87.9176 129.233 87.9228 129.233 87.9279 129.233C87.933 129.233 87.9382 129.233 87.9433 129.233C87.9485 129.233 87.9536 129.233 87.9587 129.233C87.9639 129.233 87.969 129.233 87.9742 129.233C87.9793 129.233 87.9844 129.233 87.9896 129.233C87.9947 129.233 87.9999 129.233 88.005 129.233C88.0102 129.233 88.0153 129.233 88.0205 129.233C88.0256 129.233 88.0308 129.233 88.0359 129.233C88.0411 129.233 88.0463 129.233 88.0514 129.233C88.0566 129.233 88.0617 129.233 88.0669 129.233C88.072 129.233 88.0772 129.233 88.0824 129.233C88.0875 129.233 88.0927 129.233 88.0979 129.233C88.103 129.233 88.1082 129.233 88.1134 129.233C88.1185 129.233 88.1237 129.233 88.1289 129.233C88.134 129.233 88.1392 129.233 88.1444 129.233C88.1495 129.233 88.1547 129.233 88.1599 129.233C88.1651 129.233 88.1703 129.233 88.1754 129.233C88.1806 129.233 88.1858 129.233 88.191 129.233C88.1962 129.233 88.2013 129.233 88.2065 129.233C88.2117 129.233 88.2169 129.233 88.2221 129.233C88.2273 129.233 88.2324 129.233 88.2376 129.233C88.2428 129.233 88.248 129.233 88.2532 129.233C88.2584 129.233 88.2636 129.233 88.2688 129.233C88.274 129.233 88.2792 129.233 88.2844 129.233C88.2896 129.233 88.2948 129.233 88.3 129.233C88.3052 129.233 88.3104 129.233 88.3156 129.233C88.3208 129.233 88.326 129.233 88.3312 129.233C88.3364 129.233 88.3416 129.233 88.3468 129.233C88.352 129.233 88.3572 129.233 88.3624 129.233C88.3676 129.233 88.3729 129.233 88.3781 129.233C88.3833 129.233 88.3885 129.233 88.3937 129.233C88.3989 129.233 88.4042 129.233 88.4094 129.233C88.4146 129.233 88.4198 129.233 88.425 129.233C88.4303 129.233 88.4355 129.233 88.4407 129.233C88.4459 129.233 88.4512 129.233 88.4564 129.233C88.4616 129.233 88.4668 129.233 88.4721 129.233C88.4773 129.233 88.4825 129.233 88.4878 129.233C88.493 129.233 88.4982 129.233 88.5035 129.233C88.5087 129.233 88.5139 129.233 88.5192 129.233C88.5244 129.233 88.5296 129.233 88.5349 129.233C88.5401 129.233 88.5454 129.233 88.5506 129.233C88.5559 129.233 88.5611 129.233 88.5663 129.233C88.5716 129.233 88.5768 129.233 88.5821 129.233C88.5873 129.233 88.5926 129.233 88.5978 129.233C88.6031 129.233 88.6083 129.233 88.6136 129.233C88.6188 129.233 88.6241 129.233 88.6294 129.233C88.6346 129.233 88.6399 129.233 88.6451 129.233C88.6504 129.233 88.6557 129.233 88.6609 129.233C88.6662 129.233 88.6714 129.233 88.6767 129.233C88.682 129.233 88.6872 129.233 88.6925 129.233C88.6978 129.233 88.703 129.233 88.7083 129.233C88.7136 129.233 88.7189 129.233 88.7241 129.233C88.7294 129.233 88.7347 129.233 88.7399 129.233C88.7452 129.233 88.7505 129.233 88.7558 129.233C88.7611 129.233 88.7663 129.233 88.7716 129.233C88.7769 129.233 88.7822 129.233 88.7875 129.233C88.7927 129.233 88.798 129.233 88.8033 129.233C88.8086 129.233 88.8139 129.233 88.8192 129.233C88.8245 129.233 88.8298 129.233 88.8351 129.233C88.8403 129.233 88.8456 129.233 88.8509 129.233C88.8562 129.233 88.8615 129.233 88.8668 129.233C88.8721 129.233 88.8774 129.233 88.8827 129.233C88.888 129.233 88.8933 129.233 88.8986 129.233C88.9039 129.233 88.9092 129.233 88.9145 129.233C88.9198 129.233 88.9251 129.233 88.9304 129.233C88.9358 129.233 88.9411 129.233 88.9464 129.233C88.9517 129.233 88.957 129.233 88.9623 129.233C88.9676 129.233 88.9729 129.233 88.9783 129.233C88.9836 129.233 88.9889 129.233 88.9942 129.233C88.9995 129.233 89.0048 129.233 89.0102 129.233C89.0155 129.233 89.0208 129.233 89.0261 129.233C89.0315 129.233 89.0368 129.233 89.0421 129.233C89.0474 129.233 89.0528 129.233 89.0581 129.233C89.0634 129.233 89.0688 129.233 89.0741 129.233C89.0794 129.233 89.0848 129.233 89.0901 129.233C89.0954 129.233 89.1008 129.233 89.1061 129.233C89.1114 129.233 89.1168 129.233 89.1221 129.233C89.1275 129.233 89.1328 129.233 89.1381 129.233C89.1435 129.233 89.1488 129.233 89.1542 129.233C89.1595 129.233 89.1649 129.233 89.1702 129.233C89.1756 129.233 89.1809 129.233 89.1863 129.233C89.1916 129.233 89.197 129.233 89.2023 129.233C89.2077 129.233 89.213 129.233 89.2184 129.233C89.2237 129.233 89.2291 129.233 89.2345 129.233C89.2398 129.233 89.2452 129.233 89.2505 129.233C89.2559 129.233 89.2613 129.233 89.2666 129.233C89.272 129.233 89.2774 129.233 89.2827 129.233C89.2881 129.233 89.2935 129.233 89.2988 129.233C89.3042 129.233 89.3096 129.233 89.315 129.233C89.3203 129.233 89.3257 129.233 89.3311 129.233C89.3365 129.233 89.3418 129.233 89.3472 129.233C89.3526 129.233 89.358 129.233 89.3633 129.233C89.3687 129.233 89.3741 129.233 89.3795 129.233C89.3849 129.233 89.3903 129.233 89.3956 129.233C89.401 129.233 89.4064 129.233 89.4118 129.233C89.4172 129.233 89.4226 129.233 89.428 129.233C89.4334 129.233 89.4388 129.233 89.4442 129.233C89.4496 129.233 89.4549 129.233 89.4603 129.233C89.4657 129.233 89.4711 129.233 89.4765 129.233C89.4819 129.233 89.4873 129.233 89.4927 129.233C89.4981 129.233 89.5035 129.233 89.509 129.233C89.5144 129.233 89.5198 129.233 89.5252 129.233C89.5306 129.233 89.536 129.233 89.5414 129.233C89.5468 129.233 89.5522 129.233 89.5576 129.233C89.563 129.233 89.5685 129.233 89.5739 129.233C89.5793 129.233 89.5847 129.233 89.5901 129.233C89.5955 129.233 89.601 129.233 89.6064 129.233C89.6118 129.233 89.6172 129.233 89.6227 129.233C89.6281 129.233 89.6335 129.233 89.6389 129.233C89.6444 129.233 89.6498 129.233 89.6552 129.233C89.6606 129.233 89.6661 129.233 89.6715 129.233C89.6769 129.233 89.6824 129.233 89.6878 129.233C89.6932 129.233 89.6987 129.233 89.7041 129.233C89.7096 129.233 89.715 129.233 89.7204 129.233C89.7259 129.233 89.7313 129.233 89.7368 129.233C89.7422 129.233 89.7476 129.233 89.7531 129.233C89.7585 129.233 89.764 129.233 89.7694 129.233C89.7749 129.233 89.7803 129.233 89.7858 129.233C89.7912 129.233 89.7967 129.233 89.8021 129.233C89.8076 129.233 89.813 129.233 89.8185 129.233C89.824 129.233 89.8294 129.233 89.8349 129.233C89.8403 129.233 89.8458 129.233 89.8513 129.233C89.8567 129.233 89.8622 129.233 89.8676 129.233C89.8731 129.233 89.8786 129.233 89.884 129.233C89.8895 129.233 89.895 129.233 89.9005 129.233C89.9059 129.233 89.9114 129.233 89.9169 129.233C89.9223 129.233 89.9278 129.233 89.9333 129.233C89.9388 129.233 89.9442 129.233 89.9497 129.233C89.9552 129.233 89.9607 129.233 89.9662 129.233C89.9716 129.233 89.9771 129.233 89.9826 129.233C89.9881 129.233 89.9936 129.233 89.9991 129.233C90.0045 129.233 90.01 129.233 90.0155 129.233C90.021 129.233 90.0265 129.233 90.032 129.233C90.0375 129.233 90.043 129.233 90.0485 129.233C90.054 129.233 90.0595 129.233 90.065 129.233C90.0704 129.233 90.0759 129.233 90.0814 129.233C90.0869 129.233 90.0924 129.233 90.0979 129.233C90.1035 129.233 90.109 129.233 90.1145 129.233C90.12 129.233 90.1255 129.233 90.131 129.233C90.1365 129.233 90.142 129.233 90.1475 129.233C90.153 129.233 90.1585 129.233 90.164 129.233C90.1696 129.233 90.1751 129.233 90.1806 129.233C90.1861 129.233 90.1916 129.233 90.1971 129.233C90.2027 129.233 90.2082 129.233 90.2137 129.233C90.2192 129.233 90.2247 129.233 90.2303 129.233C90.2358 129.233 90.2413 129.233 90.2468 129.233C90.2524 129.233 90.2579 129.233 90.2634 129.233C90.2689 129.233 90.2745 129.233 90.28 129.233C90.2855 129.233 90.2911 129.233 90.2966 129.233C90.3021 129.233 90.3077 129.233 90.3132 129.233C90.3188 129.233 90.3243 129.233 90.3298 129.233C90.3354 129.233 90.3409 129.233 90.3465 129.233C90.352 129.233 90.3575 129.233 90.3631 129.233C90.3686 129.233 90.3742 129.233 90.3797 129.233C90.3853 129.233 90.3908 129.233 90.3964 129.233C90.4019 129.233 90.4075 129.233 90.413 129.233C90.4186 129.233 90.4241 129.233 90.4297 129.233C90.4353 129.233 90.4408 129.233 90.4464 129.233C90.4519 129.233 90.4575 129.233 90.4631 129.233C90.4686 129.233 90.4742 129.233 90.4797 129.233C90.4853 129.233 90.4909 129.233 90.4964 129.233C90.502 129.233 90.5076 129.233 90.5131 129.233C90.5187 129.233 90.5243 129.233 90.5299 129.233C90.5354 129.233 90.541 129.233 90.5466 129.233C90.5522 129.233 90.5577 129.233 90.5633 129.233C90.5689 129.233 90.5745 129.233 90.58 129.233C90.5856 129.233 90.5912 129.233 90.5968 129.233C90.6024 129.233 90.608 129.233 90.6135 129.233C90.6191 129.233 90.6247 129.233 90.6303 129.233C90.6359 129.233 90.6415 129.233 90.6471 129.233C90.6527 129.233 90.6583 129.233 90.6639 129.233C90.6694 129.233 90.675 129.233 90.6806 129.233C90.6862 129.233 90.6918 129.233 90.6974 129.233C90.703 129.233 90.7086 129.233 90.7142 129.233C90.7198 129.233 90.7254 129.233 90.731 129.233C90.7367 129.233 90.7423 129.233 90.7479 129.233C90.7535 129.233 90.7591 129.233 90.7647 129.233C90.7703 129.233 90.7759 129.233 90.7815 129.233C90.7871 129.233 90.7928 129.233 90.7984 129.233C90.804 129.233 90.8096 129.233 90.8152 129.233C90.8208 129.233 90.8265 129.233 90.8321 129.233C90.8377 129.233 90.8433 129.233 90.8489 129.233C90.8546 129.233 90.8602 129.233 90.8658 129.233C90.8714 129.233 90.8771 129.233 90.8827 129.233C90.8883 129.233 90.894 129.233 90.8996 129.233C90.9052 129.233 90.9109 129.233 90.9165 129.233C90.9221 129.233 90.9278 129.233 90.9334 129.233C90.939 129.233 90.9447 129.233 90.9503 129.233C90.956 129.233 90.9616 129.233 90.9672 129.233C90.9729 129.233 90.9785 129.233 90.9842 129.233C90.9898 129.233 90.9955 129.233 91.0011 129.233C91.0068 129.233 91.0124 129.233 91.0181 129.233C91.0237 129.233 91.0294 129.233 91.035 129.233C91.0407 129.233 91.0463 129.233 91.052 129.233C91.0576 129.233 91.0633 129.233 91.069 129.233C91.0746 129.233 91.0803 129.233 91.0859 129.233C91.0916 129.233 91.0973 129.233 91.1029 129.233C91.1086 129.233 91.1142 129.233 91.1199 129.233C91.1256 129.233 91.1313 129.233 91.1369 129.233C91.1426 129.233 91.1483 129.233 91.1539 129.233C91.1596 129.233 91.1653 129.233 91.171 129.233C91.1766 129.233 91.1823 129.233 91.188 129.233C91.1937 129.233 91.1993 129.233 91.205 129.233C91.2107 129.233 91.2164 129.233 91.2221 129.233C91.2277 129.233 91.2334 129.233 91.2391 129.233C91.2448 129.233 91.2505 129.233 91.2562 129.233C91.2619 129.233 91.2676 129.233 91.2732 129.233C91.2789 129.233 91.2846 129.233 91.2903 129.233C91.296 129.233 91.3017 129.233 91.3074 129.233C91.3131 129.233 91.3188 129.233 91.3245 129.233C91.3302 129.233 91.3359 129.233 91.3416 129.233C91.3473 129.233 91.353 129.233 91.3587 129.233C91.3644 129.233 91.3701 129.233 91.3758 129.233C91.3815 129.233 91.3873 129.233 91.393 129.233C91.3987 129.233 91.4044 129.233 91.4101 129.233C91.4158 129.233 91.4215 129.233 91.4272 129.233C91.433 129.233 91.4387 129.233 91.4444 129.233C91.4501 129.233 91.4558 129.233 91.4615 129.233C91.4673 129.233 91.473 129.233 91.4787 129.233C91.4844 129.233 91.4902 129.233 91.4959 129.233C91.5016 129.233 91.5073 129.233 91.5131 129.233C91.5188 129.233 91.5245 129.233 91.5303 129.233C91.536 129.233 91.5417 129.233 91.5475 129.233C91.5532 129.233 91.5589 129.233 91.5647 129.233C91.5704 129.233 91.5761 129.233 91.5819 129.233C91.5876 129.233 91.5934 129.233 91.5991 129.233C91.6048 129.233 91.6106 129.233 91.6163 129.233C91.6221 129.233 91.6278 129.233 91.6336 129.233C91.6393 129.233 91.6451 129.233 91.6508 129.233C91.6566 129.233 91.6623 129.233 91.6681 129.233C91.6738 129.233 91.6796 129.233 91.6853 129.233C91.6911 129.233 91.6969 129.233 91.7026 129.233C91.7084 129.233 91.7141 129.233 91.7199 129.233C91.7257 129.233 91.7314 129.233 91.7372 129.233C91.7429 129.233 91.7487 129.233 91.7545 129.233C91.7602 129.233 91.766 129.233 91.7718 129.233C91.7775 129.233 91.7833 129.233 91.7891 129.233C91.7949 129.233 91.8006 129.233 91.8064 129.233C91.8122 129.233 91.818 129.233 91.8237 129.233V127.357ZM84.0106 127.357V125.481H75.7152V127.357V129.233H84.0106V127.357ZM75.7152 127.357V125.481C72.8829 125.481 70.9479 124.963 69.7001 124.147L68.6737 125.717L67.6473 127.287C69.7434 128.657 72.5028 129.233 75.7152 129.233V127.357ZM68.6737 125.717L69.7001 124.147C68.2523 123.201 67.2293 122.103 66.561 120.869L64.9118 121.762L63.2626 122.656C64.2663 124.509 65.7512 126.047 67.6473 127.287L68.6737 125.717ZM64.9118 121.762L66.5759 120.897C65.8426 119.487 65.399 118.037 65.2326 116.539L63.3685 116.747L61.5044 116.954C61.7238 118.928 62.3092 120.823 63.2478 122.628L64.9118 121.762ZM63.3685 116.747L65.2393 116.613C65.1129 114.843 65.0512 113.314 65.0512 112.02H63.1756H61.3C61.3 113.427 61.3669 115.049 61.4977 116.88L63.3685 116.747ZM63.1756 112.02H65.0512V77.1021H63.1756H61.3V112.02H63.1756ZM92.6919 86.8444V84.9688C91.1475 84.9688 89.2487 85.4552 88.5975 87.4088L90.3769 88.0019L92.1562 88.595C92.1443 88.6307 92.1167 88.6869 92.0681 88.7415C92.021 88.7945 91.9835 88.8132 91.9873 88.8113C91.9953 88.8073 92.0483 88.7829 92.1694 88.7602C92.2903 88.7375 92.4611 88.72 92.6919 88.72V86.8444ZM90.3769 88.0019L88.6142 87.3609C88.3137 88.1873 88.1154 89.0254 88.1154 89.8346H89.991H91.8666C91.8666 89.6149 91.9256 89.2312 92.1395 88.6428L90.3769 88.0019ZM89.991 89.8346H88.1154V98.3229H89.991H91.8666V89.8346H89.991ZM89.991 98.3229H88.1154C88.1154 99.1211 88.3091 99.9799 88.5975 100.845L90.3769 100.252L92.1562 99.659C91.9302 98.9809 91.8666 98.5537 91.8666 98.3229H89.991ZM90.3769 100.252L88.6694 101.028C89.4892 102.832 91.4578 103.189 92.9812 103.189V101.313V99.4376C92.405 99.4376 92.1019 99.3619 91.9768 99.3109C91.9238 99.2893 91.9326 99.2842 91.9689 99.3166C92.0098 99.353 92.0539 99.4091 92.0843 99.476L90.3769 100.252ZM92.9812 101.313V103.189C94.4343 103.189 96.3685 102.792 97.0589 100.893L95.2962 100.252L93.5336 99.6111C93.5579 99.5443 93.6015 99.4714 93.6604 99.4106C93.7159 99.3534 93.7556 99.3371 93.7431 99.3429C93.7272 99.3502 93.6639 99.3756 93.5317 99.3984C93.4002 99.421 93.2197 99.4376 92.9812 99.4376V101.313ZM95.2962 100.252L97.0756 100.845C97.364 99.9799 97.5577 99.1211 97.5577 98.3229H95.6821H93.8065C93.8065 98.5537 93.7429 98.9809 93.5169 99.659L95.2962 100.252ZM95.6821 98.3229H97.5577V89.8346H95.6821H93.8065V98.3229H95.6821ZM95.6821 89.8346H97.5577C97.5577 88.9513 97.2883 88.064 96.9073 87.2258L95.1998 88.0019L93.4923 88.778C93.7544 89.3545 93.8065 89.689 93.8065 89.8346H95.6821ZM95.1998 88.0019L96.9791 87.4088C96.3054 85.3875 94.2466 84.9688 92.6919 84.9688V86.8444V88.72C93.2592 88.72 93.5188 88.8021 93.5939 88.8367C93.6193 88.8484 93.5861 88.8376 93.5348 88.7833C93.4798 88.725 93.4406 88.6553 93.4205 88.595L95.1998 88.0019ZM160.201 60.5112L160.224 58.6358L160.213 58.6356H160.201V60.5112ZM173.705 63.3085L172.922 65.0131L172.939 65.0208L172.956 65.0281L173.705 63.3085ZM183.737 70.5429L185.148 69.3078L185.148 69.3078L183.737 70.5429ZM189.813 81.6356L188.024 82.1966L188.029 82.2127L188.034 82.2287L189.813 81.6356ZM190.199 108.548L188.414 107.974L188.41 107.984L188.407 107.994L190.199 108.548ZM185.762 117.518L184.271 116.38L184.262 116.393L184.252 116.406L185.762 117.518ZM179.589 123.402L180.587 124.99L180.599 124.983L179.589 123.402ZM172.74 126.682L173.333 128.461L172.74 126.682ZM166.085 128.129L165.915 126.261L165.887 126.263L165.859 126.267L166.085 128.129ZM153.834 128.129L154.06 126.267L154.035 126.264L154.01 126.261L153.834 128.129ZM147.275 126.682L146.682 128.461L147.275 126.682ZM140.33 123.402L139.3 124.97L139.326 124.986L139.352 125.003L140.33 123.402ZM134.157 117.518L132.647 118.631L132.656 118.643L132.666 118.656L134.157 117.518ZM129.72 108.548L127.925 109.092L127.931 109.112L127.937 109.131L129.72 108.548ZM130.202 81.5392L131.984 82.1243L131.984 82.1243L130.202 81.5392ZM136.375 70.4464L137.787 71.6815L137.793 71.6743L137.8 71.6671L136.375 70.4464ZM146.407 63.1156L147.156 64.8352L147.156 64.8352L146.407 63.1156ZM157.403 88.4842L159.166 89.1251L159.175 89.1013L159.183 89.0773L157.403 88.4842ZM157.403 101.603L155.624 102.196L155.655 102.289L155.696 102.379L157.403 101.603ZM162.323 101.603L164.085 102.243L164.094 102.22L164.102 102.196L162.323 101.603ZM162.226 88.4842L160.447 89.0773L160.478 89.1707L160.519 89.2603L162.226 88.4842ZM160.201 60.5112L160.177 62.3867C165.041 62.4482 169.276 63.3395 172.922 65.0131L173.705 63.3085L174.487 61.6039C170.288 59.6764 165.521 58.7028 160.224 58.6358L160.201 60.5112ZM173.705 63.3085L172.956 65.0281C176.705 66.6606 179.818 68.9122 182.325 71.778L183.737 70.5429L185.148 69.3078C182.254 66.0002 178.679 63.429 174.454 61.5889L173.705 63.3085ZM183.737 70.5429L182.325 71.778C184.838 74.6497 186.743 78.1114 188.024 82.1966L189.813 81.6356L191.603 81.0747C190.183 76.5429 188.037 72.6095 185.148 69.3078L183.737 70.5429ZM189.813 81.6356L188.034 82.2287C189.377 86.2577 190.06 90.7166 190.06 95.6221H191.936H193.811C193.811 90.3673 193.079 85.5019 191.593 81.0425L189.813 81.6356ZM191.936 95.6221H190.06C190.06 100.503 189.496 104.607 188.414 107.974L190.199 108.548L191.985 109.121C193.218 105.286 193.811 100.773 193.811 95.6221H191.936ZM190.199 108.548L188.407 107.994C187.366 111.361 185.978 114.144 184.271 116.38L185.762 117.518L187.253 118.656C189.276 116.005 190.846 112.807 191.991 109.101L190.199 108.548ZM185.762 117.518L184.252 116.406C182.574 118.683 180.681 120.479 178.579 121.822L179.589 123.402L180.599 124.983C183.127 123.367 185.349 121.24 187.272 118.631L185.762 117.518ZM179.589 123.402L178.591 121.814C176.456 123.156 174.308 124.182 172.147 124.902L172.74 126.682L173.333 128.461C175.803 127.638 178.221 126.478 180.587 124.99L179.589 123.402ZM172.74 126.682L172.147 124.902C169.95 125.635 167.874 126.083 165.915 126.261L166.085 128.129L166.254 129.996C168.54 129.789 170.901 129.272 173.333 128.461L172.74 126.682ZM166.085 128.129L165.859 126.267C163.778 126.519 162.091 126.639 160.779 126.639V128.514V130.39C162.297 130.39 164.147 130.253 166.31 129.991L166.085 128.129ZM160.779 128.514V126.639H159.236V128.514V130.39H160.779V128.514ZM159.236 128.514V126.639C157.858 126.639 156.137 126.518 154.06 126.267L153.834 128.129L153.609 129.991C155.776 130.253 157.657 130.39 159.236 130.39V128.514ZM153.834 128.129L154.01 126.261C152.117 126.084 150.071 125.637 147.868 124.902L147.275 126.682L146.682 128.461C149.109 129.27 151.437 129.788 153.659 129.996L153.834 128.129ZM147.275 126.682L147.868 124.902C145.702 124.18 143.515 123.151 141.308 121.802L140.33 123.402L139.352 125.003C141.775 126.483 144.218 127.64 146.682 128.461L147.275 126.682ZM140.33 123.402L141.36 121.835C139.309 120.487 137.402 118.679 135.648 116.38L134.157 117.518L132.666 118.656C134.641 121.244 136.85 123.359 139.3 124.97L140.33 123.402ZM134.157 117.518L135.667 116.406C134.008 114.154 132.611 111.352 131.502 107.964L129.72 108.548L127.937 109.131C129.143 112.816 130.705 115.995 132.647 118.631L134.157 117.518ZM129.72 108.548L131.515 108.003C130.489 104.626 129.956 100.511 129.956 95.6221H128.08H126.204C126.204 100.765 126.764 105.267 127.925 109.092L129.72 108.548ZM128.08 95.6221H129.956C129.956 90.7171 130.638 86.2227 131.984 82.1243L130.202 81.5392L128.42 80.954C126.936 85.4726 126.204 90.3668 126.204 95.6221H128.08ZM130.202 81.5392L131.984 82.1243C133.329 78.0298 135.269 74.5595 137.787 71.6815L136.375 70.4464L134.964 69.2114C132.081 72.5067 129.905 76.4316 128.42 80.954L130.202 81.5392ZM136.375 70.4464L137.8 71.6671C140.307 68.7416 143.416 66.4638 147.156 64.8352L146.407 63.1156L145.658 61.396C141.424 63.2399 137.846 65.8493 134.951 69.2258L136.375 70.4464ZM146.407 63.1156L147.156 64.8352C150.868 63.2189 155.171 62.3868 160.104 62.3868V60.5112V58.6356C154.749 58.6356 149.921 59.5398 145.658 61.396L146.407 63.1156ZM160.104 60.5112V62.3868H160.201V60.5112V58.6356H160.104V60.5112ZM159.718 87.3267V85.4511C158.174 85.4511 156.275 85.9375 155.624 87.8911L157.403 88.4842L159.183 89.0773C159.171 89.113 159.143 89.1692 159.095 89.2238C159.048 89.2767 159.01 89.2955 159.014 89.2936C159.022 89.2896 159.075 89.2652 159.196 89.2425C159.317 89.2198 159.488 89.2023 159.718 89.2023V87.3267ZM157.403 88.4842L155.641 87.8432C155.34 88.6696 155.142 89.5077 155.142 90.3169H157.018H158.893C158.893 90.0972 158.952 89.7135 159.166 89.1251L157.403 88.4842ZM157.018 90.3169H155.142V99.6734H157.018H158.893V90.3169H157.018ZM157.018 99.6734H155.142C155.142 100.471 155.336 101.33 155.624 102.196L157.403 101.603L159.183 101.009C158.957 100.331 158.893 99.9041 158.893 99.6734H157.018ZM157.403 101.603L155.696 102.379C156.516 104.182 158.484 104.539 160.008 104.539V102.664V100.788C159.432 100.788 159.128 100.712 159.003 100.661C158.95 100.64 158.959 100.635 158.995 100.667C159.036 100.703 159.08 100.759 159.111 100.826L157.403 101.603ZM160.008 102.664V104.539C161.461 104.539 163.395 104.142 164.085 102.243L162.323 101.603L160.56 100.962C160.584 100.895 160.628 100.822 160.687 100.761C160.742 100.704 160.782 100.688 160.77 100.693C160.754 100.701 160.69 100.726 160.558 100.749C160.427 100.771 160.246 100.788 160.008 100.788V102.664ZM162.323 101.603L164.102 102.196C164.391 101.33 164.584 100.471 164.584 99.6734H162.709H160.833C160.833 99.9041 160.769 100.331 160.543 101.009L162.323 101.603ZM162.709 99.6734H164.584V90.3169H162.709H160.833V99.6734H162.709ZM162.709 90.3169H164.584C164.584 89.4336 164.315 88.5463 163.934 87.7081L162.226 88.4842L160.519 89.2603C160.781 89.8368 160.833 90.1713 160.833 90.3169H162.709ZM162.226 88.4842L164.006 87.8911C163.332 85.8698 161.273 85.4511 159.718 85.4511V87.3267V89.2023C160.286 89.2023 160.545 89.2843 160.62 89.319C160.646 89.3307 160.613 89.3199 160.561 89.2656C160.506 89.2073 160.467 89.1376 160.447 89.0773L162.226 88.4842ZM216.168 71.0252L214.312 70.7599L214.308 70.7889L214.304 70.8181L216.168 71.0252ZM222.438 62.151L223.299 63.8177L223.319 63.8069L223.34 63.7955L222.438 62.151ZM238.836 62.151L237.912 63.7828L237.943 63.8009L237.976 63.8177L238.836 62.151ZM243.273 66.0094L244.864 65.0153L244.864 65.0153L243.273 66.0094ZM245.01 71.0252L243.145 71.225L243.149 71.2626L243.154 71.3001L245.01 71.0252ZM245.01 118.097L243.153 117.832L243.149 117.861L243.145 117.89L245.01 118.097ZM243.273 123.016L244.864 124.01L244.864 124.01L243.273 123.016ZM238.836 126.971L239.696 128.638L239.717 128.627L239.738 128.616L238.836 126.971ZM222.342 126.971L221.417 128.603L221.449 128.621L221.482 128.638L222.342 126.971ZM218.001 123.016L216.411 124.01L216.411 124.01L218.001 123.016ZM216.168 118.097L214.304 118.297L214.308 118.334L214.313 118.372L216.168 118.097ZM215.879 75.7517H217.755C217.755 74.4199 217.846 72.915 218.033 71.2323L216.168 71.0252L214.304 70.8181C214.106 72.6078 214.004 74.2539 214.004 75.7517H215.879ZM216.168 71.0252L218.025 71.2904C218.245 69.7489 218.766 68.3252 219.592 67.0034L218.001 66.0094L216.411 65.0153C215.308 66.7802 214.606 68.7004 214.312 70.7599L216.168 71.0252ZM218.001 66.0094L219.592 67.0034C220.34 65.8054 221.535 64.7278 223.299 63.8177L222.438 62.151L221.578 60.4843C219.354 61.632 217.591 63.1266 216.411 65.0153L218.001 66.0094ZM222.438 62.151L223.34 63.7955C224.945 62.9155 227.353 62.3868 230.734 62.3868V60.5112V58.6356C227.041 58.6356 223.919 59.2002 221.536 60.5065L222.438 62.151ZM230.734 60.5112V62.3868C234.049 62.3868 236.381 62.9153 237.912 63.7828L238.836 62.151L239.761 60.5192C237.434 59.2004 234.364 58.6356 230.734 58.6356V60.5112ZM238.836 62.151L237.976 63.8177C239.739 64.7278 240.934 65.8054 241.683 67.0034L243.273 66.0094L244.864 65.0153C243.683 63.1266 241.92 61.632 239.696 60.4843L238.836 62.151ZM243.273 66.0094L241.683 67.0034C242.498 68.3074 242.982 69.708 243.145 71.225L245.01 71.0252L246.874 70.8254C246.651 68.7413 245.978 66.798 244.864 65.0153L243.273 66.0094ZM245.01 71.0252L243.154 71.3001C243.401 72.966 243.52 74.4477 243.52 75.7517H245.395H247.271C247.271 74.2262 247.133 72.5569 246.865 70.7503L245.01 71.0252ZM245.395 75.7517H243.52V113.274H245.395H247.271V75.7517H245.395ZM245.395 113.274H243.52C243.52 114.579 243.401 116.096 243.153 117.832L245.01 118.097L246.866 118.362C247.133 116.497 247.271 114.798 247.271 113.274H245.395ZM245.01 118.097L243.145 117.89C242.985 119.335 242.505 120.707 241.683 122.022L243.273 123.016L244.864 124.01C245.971 122.239 246.648 120.332 246.874 118.304L245.01 118.097ZM243.273 123.016L241.683 122.022C240.926 123.234 239.716 124.35 237.934 125.327L238.836 126.971L239.738 128.616C241.944 127.406 243.692 125.886 244.864 124.01L243.273 123.016ZM238.836 126.971L237.976 125.304C236.359 126.139 233.934 126.639 230.541 126.639V128.514V130.39C234.222 130.39 237.327 129.861 239.696 128.638L238.836 126.971ZM230.541 128.514V126.639C227.219 126.639 224.823 126.141 223.202 125.304L222.342 126.971L221.482 128.638C223.847 129.859 226.918 130.39 230.541 130.39V128.514ZM222.342 126.971L223.267 125.339C221.55 124.367 220.358 123.249 219.592 122.022L218.001 123.016L216.411 124.01C217.573 125.87 219.275 127.389 221.417 128.603L222.342 126.971ZM218.001 123.016L219.592 122.022C218.759 120.69 218.242 119.293 218.024 117.822L216.168 118.097L214.313 118.372C214.61 120.373 215.314 122.256 216.411 124.01L218.001 123.016ZM216.168 118.097L218.033 117.897C217.846 116.146 217.755 114.607 217.755 113.274H215.879H214.004C214.004 114.771 214.105 116.447 214.304 118.297L216.168 118.097ZM215.879 113.274H217.755V75.7517H215.879H214.004V113.274H215.879ZM261.634 86.0727V84.1971H259.759V86.0727H261.634ZM268.483 86.0727V87.9483H270.358V86.0727H268.483ZM268.483 83.2754H270.358V81.3998H268.483V83.2754ZM257.39 83.2754L257.273 85.1473L257.332 85.151H257.39V83.2754ZM254.207 82.6967L253.648 84.4869L253.663 84.4916L253.678 84.496L254.207 82.6967ZM251.313 81.0569L250.041 82.4351L250.066 82.4585L250.093 82.4809L251.313 81.0569ZM249.191 77.8737L247.455 78.5839L247.461 78.5983L247.467 78.6126L249.191 77.8737ZM249.191 67.1669L250.915 67.9057L250.915 67.9057L249.191 67.1669ZM251.313 63.9837L250.093 62.5597L250.066 62.5821L250.041 62.6055L251.313 63.9837ZM254.207 62.4404L254.662 64.26L254.699 64.2506L254.736 64.2398L254.207 62.4404ZM257.39 61.8616V59.9861H257.332L257.273 59.9897L257.39 61.8616ZM294.237 61.8616L294.354 59.9897L294.296 59.9861H294.237V61.8616ZM297.324 62.4404L296.765 64.2306L296.829 64.2507L296.894 64.2661L297.324 62.4404ZM300.218 63.9837L298.946 65.3619L298.971 65.3853L298.997 65.4078L300.218 63.9837ZM302.436 67.1669L300.712 67.9057L300.712 67.9057L302.436 67.1669ZM302.629 77.8737L300.842 77.3051L300.83 77.3424L300.82 77.3802L302.629 77.8737ZM300.796 81.2498L302.123 82.576L302.123 82.576L300.796 81.2498ZM297.903 82.8896L298.332 84.7153L298.369 84.7067L298.405 84.6967L297.903 82.8896ZM291.151 83.2754V81.3998H289.275V83.2754H291.151ZM290.765 118.097L288.908 117.832L288.904 117.861L288.901 117.89L290.765 118.097ZM289.029 123.016L287.438 122.022L287.438 122.022L289.029 123.016ZM284.591 126.971L285.452 128.638L285.473 128.627L285.493 128.616L284.591 126.971ZM268.097 126.971L267.172 128.603L267.204 128.621L267.237 128.638L268.097 126.971ZM263.756 123.016L262.166 124.01L262.166 124.01L263.756 123.016ZM261.924 118.097L260.059 118.297L260.063 118.334L260.068 118.372L261.924 118.097ZM261.634 86.0727V87.9483H268.483V86.0727V84.1971H261.634V86.0727ZM268.483 86.0727H270.358V83.2754H268.483H266.607V86.0727H268.483ZM268.483 83.2754V81.3998H257.39V83.2754V85.151H268.483V83.2754ZM257.39 83.2754L257.507 81.4035C256.632 81.3488 255.709 81.1834 254.736 80.8973L254.207 82.6967L253.678 84.496C254.891 84.853 256.091 85.0734 257.273 85.1473L257.39 83.2754ZM254.207 82.6967L254.766 80.9065C254.004 80.6681 253.26 80.2555 252.534 79.6328L251.313 81.0569L250.093 82.4809C251.167 83.4016 252.352 84.0821 253.648 84.4869L254.207 82.6967ZM251.313 81.0569L252.585 79.6787C251.991 79.1301 251.419 78.3106 250.915 77.1349L249.191 77.8737L247.467 78.6126C248.121 80.1377 248.964 81.4404 250.041 82.4351L251.313 81.0569ZM249.191 77.8737L250.927 77.1636C250.471 76.0491 250.199 74.5115 250.199 72.4721H248.323H246.447C246.447 74.8055 246.754 76.8689 247.455 78.5839L249.191 77.8737ZM248.323 72.4721H250.199C250.199 70.4269 250.473 68.9375 250.915 67.9057L249.191 67.1669L247.467 66.428C246.752 68.0971 246.447 70.1445 246.447 72.4721H248.323ZM249.191 67.1669L250.915 67.9057C251.419 66.73 251.991 65.9105 252.585 65.3619L251.313 63.9837L250.041 62.6055C248.964 63.6002 248.121 64.9029 247.467 66.428L249.191 67.1669ZM251.313 63.9837L252.534 65.4078C253.239 64.803 253.947 64.4386 254.662 64.26L254.207 62.4404L253.752 60.6208C252.409 60.9566 251.188 61.6211 250.093 62.5597L251.313 63.9837ZM254.207 62.4404L254.736 64.2398C255.709 63.9536 256.632 63.7883 257.507 63.7336L257.39 61.8616L257.273 59.9897C256.091 60.0636 254.891 60.2841 253.678 60.641L254.207 62.4404ZM257.39 61.8616V63.7372H294.237V61.8616V59.9861H257.39V61.8616ZM294.237 61.8616L294.12 63.7336C294.992 63.7881 295.873 63.9519 296.765 64.2306L297.324 62.4404L297.883 60.6502C296.717 60.2858 295.54 60.0638 294.354 59.9897L294.237 61.8616ZM297.324 62.4404L296.894 64.2661C297.669 64.4483 298.344 64.8066 298.946 65.3619L300.218 63.9837L301.49 62.6055C300.42 61.6176 299.166 60.947 297.754 60.6147L297.324 62.4404ZM300.218 63.9837L298.997 65.4078C299.634 65.9533 300.22 66.7574 300.712 67.9057L302.436 67.1669L304.16 66.428C303.495 64.8754 302.602 63.5575 301.438 62.5597L300.218 63.9837ZM302.436 67.1669L300.712 67.9057C301.155 68.9375 301.429 70.4269 301.429 72.4721H303.304H305.18C305.18 70.1445 304.875 68.0971 304.16 66.428L302.436 67.1669ZM303.304 72.4721H301.429C301.429 74.5477 301.213 76.1389 300.842 77.3051L302.629 77.8737L304.416 78.4424C304.946 76.7791 305.18 74.7692 305.18 72.4721H303.304ZM302.629 77.8737L300.82 77.3802C300.499 78.555 300.026 79.3677 299.47 79.9236L300.796 81.2498L302.123 82.576C303.239 81.4599 303.987 80.022 304.439 78.3672L302.629 77.8737ZM300.796 81.2498L299.47 79.9236C298.95 80.444 298.279 80.8385 297.401 81.0824L297.903 82.8896L298.405 84.6967C299.842 84.2976 301.1 83.5989 302.123 82.576L300.796 81.2498ZM297.903 82.8896L297.473 81.0639C296.546 81.2821 295.471 81.3998 294.237 81.3998V83.2754V85.151C295.704 85.151 297.073 85.0115 298.332 84.7153L297.903 82.8896ZM294.237 83.2754V81.3998H291.151V83.2754V85.151H294.237V83.2754ZM291.151 83.2754H289.275V113.274H291.151H293.026V83.2754H291.151ZM291.151 113.274H289.275C289.275 114.579 289.156 116.096 288.908 117.832L290.765 118.097L292.622 118.362C292.888 116.497 293.026 114.798 293.026 113.274H291.151ZM290.765 118.097L288.901 117.89C288.74 119.335 288.26 120.707 287.438 122.022L289.029 123.016L290.619 124.01C291.726 122.239 292.404 120.332 292.629 118.304L290.765 118.097ZM289.029 123.016L287.438 122.022C286.681 123.234 285.471 124.35 283.69 125.327L284.591 126.971L285.493 128.616C287.699 127.406 289.447 125.886 290.619 124.01L289.029 123.016ZM284.591 126.971L283.731 125.304C282.114 126.139 279.689 126.639 276.296 126.639V128.514V130.39C279.977 130.39 283.082 129.861 285.452 128.638L284.591 126.971ZM276.296 128.514V126.639C272.974 126.639 270.578 126.141 268.957 125.304L268.097 126.971L267.237 128.638C269.603 129.859 272.673 130.39 276.296 130.39V128.514ZM268.097 126.971L269.022 125.339C267.305 124.367 266.114 123.249 265.347 122.022L263.756 123.016L262.166 124.01C263.328 125.87 265.03 127.389 267.172 128.603L268.097 126.971ZM263.756 123.016L265.347 122.022C264.514 120.69 263.997 119.293 263.779 117.822L261.924 118.097L260.068 118.372C260.365 120.373 261.07 122.256 262.166 124.01L263.756 123.016ZM261.924 118.097L263.789 117.897C263.601 116.146 263.51 114.607 263.51 113.274H261.634H259.759C259.759 114.771 259.861 116.447 260.059 118.297L261.924 118.097ZM261.634 113.274H263.51V86.0727H261.634H259.759V113.274H261.634Z" fill="#1E1E1E" mask="url(#path-1-outside-1_65_2625)"/>
</svg>
