<svg width="366" height="360" viewBox="0 0 366 360" fill="none" xmlns="http://www.w3.org/2000/svg">
<rect width="366" height="360" fill="#FFF8EB"/>
<rect x="32.3541" y="39.318" width="301.031" height="50.5149" rx="6.09564" stroke="#1E1E1E" stroke-width="0.937791"/>
<path d="M257.283 63.313V68.7518C257.283 69.3456 257.013 69.737 256.392 69.737C255.771 69.737 255.501 69.3456 255.501 68.7518V68.4954H255.474C254.921 69.2241 254.206 69.737 253.085 69.737C251.898 69.737 250.602 69.1432 250.602 67.1458V63.313C250.602 62.7866 250.818 62.3278 251.587 62.3278C252.357 62.3278 252.573 62.7866 252.573 63.313V66.7544C252.573 67.5506 252.964 68.1175 253.814 68.1175C254.502 68.1175 255.312 67.5506 255.312 66.5655V63.313C255.312 62.7866 255.528 62.3278 256.297 62.3278C257.067 62.3278 257.283 62.7866 257.283 63.313ZM258.542 64.5276C258.542 62.9216 260.135 62.3278 261.498 62.3278C262.996 62.3278 264.507 62.9216 264.507 63.8258C264.507 64.2847 264.197 64.6895 263.684 64.6895C262.915 64.6895 262.888 63.7853 261.646 63.7853C260.958 63.7853 260.512 63.9743 260.512 64.3926C260.512 64.8515 260.958 64.9595 261.565 65.0944L262.388 65.2834C263.509 65.5398 264.845 66.0121 264.845 67.3887C264.845 68.9947 263.293 69.737 261.808 69.737C260.027 69.737 258.542 68.9407 258.542 67.969C258.542 67.5372 258.785 67.1458 259.338 67.1458C260.189 67.1458 260.27 68.3604 261.727 68.3604C262.429 68.3604 262.874 68.05 262.874 67.6451C262.874 67.1458 262.442 67.0648 261.741 66.8894L260.58 66.6059C259.433 66.3225 258.542 65.8502 258.542 64.5276ZM272.228 66.4035H267.775C267.775 67.4427 268.45 68.1984 269.597 68.1984C271.081 68.1984 271.081 67.2267 271.877 67.2267C272.35 67.2267 272.687 67.6316 272.687 67.996C272.687 69.1836 270.784 69.737 269.597 69.737C266.844 69.737 265.804 67.8745 265.804 66.1606C265.804 63.8663 267.194 62.3278 269.529 62.3278C271.796 62.3278 273.092 63.9338 273.092 65.5533C273.092 66.2281 272.89 66.4035 272.228 66.4035ZM267.775 65.2699H271.23C271.122 64.3656 270.447 63.7043 269.57 63.7043C268.584 63.7043 267.991 64.3117 267.775 65.2699ZM274.473 68.7518V63.2455C274.473 62.6517 274.864 62.3278 275.363 62.3278C275.863 62.3278 276.254 62.6517 276.254 63.2455V64.0013H276.281C276.511 63.178 276.956 62.3278 277.914 62.3278C278.535 62.3278 278.994 62.7326 278.994 63.286C278.994 64.0147 278.508 64.2712 278.022 64.2712H277.671C276.875 64.2712 276.443 64.8245 276.443 66.4575V68.7518C276.443 69.2781 276.227 69.737 275.458 69.737C274.689 69.737 274.473 69.2781 274.473 68.7518ZM283.986 68.7518V63.313C283.986 62.7192 284.256 62.3278 284.877 62.3278C285.497 62.3278 285.767 62.7192 285.767 63.313V63.5694H285.794C286.348 62.8406 287.063 62.3278 288.183 62.3278C289.371 62.3278 290.666 62.9216 290.666 64.919V68.7518C290.666 69.2781 290.45 69.737 289.681 69.737C288.912 69.737 288.696 69.2781 288.696 68.7518V65.3103C288.696 64.5141 288.304 63.9473 287.454 63.9473C286.766 63.9473 285.956 64.5141 285.956 65.4993V68.7518C285.956 69.2781 285.74 69.737 284.971 69.737C284.202 69.737 283.986 69.2781 283.986 68.7518ZM298.782 64.3521V67.6586C298.782 68.4819 298.984 68.6708 298.984 68.9812C298.984 69.4266 298.566 69.737 298.093 69.737C297.243 69.737 296.96 69.1971 296.933 68.5898C296.163 69.4401 295.273 69.737 294.234 69.737C293.113 69.737 292.007 68.9677 292.007 67.7261C292.007 66.0931 293.248 65.6342 294.76 65.4588L295.961 65.3238C296.433 65.2699 296.811 65.1619 296.811 64.5951C296.811 64.0282 296.231 63.7853 295.57 63.7853C294.112 63.7853 294.072 64.865 293.289 64.865C292.789 64.865 292.452 64.5141 292.452 64.1092C292.452 63.3265 293.559 62.3278 295.583 62.3278C297.473 62.3278 298.782 62.9351 298.782 64.3521ZM296.811 67.0108V66.2416C296.595 66.444 296.19 66.5115 295.961 66.552L295.246 66.6599C294.422 66.7814 293.977 67.0378 293.977 67.6316C293.977 68.077 294.395 68.4414 295.07 68.4414C296.15 68.4414 296.811 67.7396 296.811 67.0108ZM300.487 68.7518V63.313C300.487 62.7192 300.837 62.3278 301.418 62.3278C301.998 62.3278 302.349 62.7192 302.349 63.313V63.5694H302.376C302.889 62.7866 303.753 62.3278 304.751 62.3278C305.426 62.3278 306.276 62.6382 306.641 63.5694C307.194 62.8001 307.896 62.3278 308.962 62.3278C310.325 62.3278 311.418 62.9486 311.418 64.7165V68.7518C311.418 69.2781 311.202 69.737 310.433 69.737C309.664 69.737 309.448 69.2781 309.448 68.7518V65.2159C309.448 64.5141 309.137 63.9473 308.368 63.9473C307.612 63.9473 306.938 64.5546 306.938 65.4723V68.7518C306.938 69.2781 306.722 69.737 305.952 69.737C305.183 69.737 304.967 69.2781 304.967 68.7518V65.2159C304.967 64.5141 304.657 63.9473 303.887 63.9473C303.132 63.9473 302.457 64.5546 302.457 65.4723V68.7518C302.457 69.2781 302.241 69.737 301.472 69.737C300.702 69.737 300.487 69.2781 300.487 68.7518ZM319.108 66.4035H314.654C314.654 67.4427 315.329 68.1984 316.476 68.1984C317.961 68.1984 317.961 67.2267 318.757 67.2267C319.229 67.2267 319.567 67.6316 319.567 67.996C319.567 69.1836 317.664 69.737 316.476 69.737C313.723 69.737 312.684 67.8745 312.684 66.1606C312.684 63.8663 314.074 62.3278 316.409 62.3278C318.676 62.3278 319.972 63.9338 319.972 65.5533C319.972 66.2281 319.769 66.4035 319.108 66.4035ZM314.654 65.2699H318.109C318.001 64.3656 317.326 63.7043 316.449 63.7043C315.464 63.7043 314.87 64.3117 314.654 65.2699Z" fill="#555555" fill-opacity="0.29"/>
<path d="M47.3835 68.7518V60.6543C47.3835 60.0065 47.7749 59.6691 48.3687 59.6691C48.9625 59.6691 49.3539 60.0065 49.3539 60.6543V63.367H49.3809C49.7723 62.8541 50.4606 62.3278 51.5807 62.3278C52.7683 62.3278 54.0639 62.9216 54.0639 64.919V68.7518C54.0639 69.2781 53.848 69.737 53.0787 69.737C52.3095 69.737 52.0935 69.2781 52.0935 68.7518V65.3103C52.0935 64.5141 51.7022 63.9473 50.8519 63.9473C50.1636 63.9473 49.3539 64.5141 49.3539 65.4993V68.7518C49.3539 69.2781 49.138 69.737 48.3687 69.737C47.5994 69.737 47.3835 69.2781 47.3835 68.7518ZM62.1793 64.3521V67.6586C62.1793 68.4819 62.3818 68.6708 62.3818 68.9812C62.3818 69.4266 61.9634 69.737 61.4911 69.737C60.6408 69.737 60.3574 69.1971 60.3304 68.5898C59.5612 69.4401 58.6704 69.737 57.6313 69.737C56.5111 69.737 55.4044 68.9677 55.4044 67.7261C55.4044 66.0931 56.6461 65.6342 58.1576 65.4588L59.3587 65.3238C59.8311 65.2699 60.209 65.1619 60.209 64.5951C60.209 64.0282 59.6286 63.7853 58.9673 63.7853C57.5098 63.7853 57.4693 64.865 56.6865 64.865C56.1872 64.865 55.8498 64.5141 55.8498 64.1092C55.8498 63.3265 56.9565 62.3278 58.9808 62.3278C60.8702 62.3278 62.1793 62.9351 62.1793 64.3521ZM60.209 67.0108V66.2416C59.993 66.444 59.5881 66.5115 59.3587 66.552L58.6434 66.6599C57.8202 66.7814 57.3748 67.0378 57.3748 67.6316C57.3748 68.077 57.7932 68.4414 58.468 68.4414C59.5477 68.4414 60.209 67.7396 60.209 67.0108ZM63.8842 68.8058V60.6543C63.8842 60.0065 64.2756 59.6691 64.8694 59.6691C65.4632 59.6691 65.8546 60.0065 65.8546 60.6543V63.3265H65.8816C66.273 62.6922 66.9478 62.3278 67.825 62.3278C69.9034 62.3278 70.8616 64.0957 70.8616 65.9851C70.8616 68.5358 69.4175 69.737 67.771 69.737C66.8128 69.737 66.0166 69.3321 65.6927 68.4954H65.6657V68.8058C65.6657 69.4131 65.3553 69.737 64.775 69.737C64.1677 69.737 63.8842 69.4131 63.8842 68.8058ZM68.8912 66.0526C68.8912 65.1349 68.5808 63.8663 67.3257 63.8663C66.1245 63.8528 65.7467 65.0404 65.7467 66.0526C65.7467 67.1728 66.1785 68.1984 67.3257 68.1984C68.3783 68.1715 68.8912 67.2133 68.8912 66.0526ZM72.2426 68.7518V63.313C72.2426 62.7866 72.4585 62.3278 73.2278 62.3278C73.997 62.3278 74.213 62.7866 74.213 63.313V68.7518C74.213 69.2781 73.997 69.737 73.2278 69.737C72.4585 69.737 72.2426 69.2781 72.2426 68.7518ZM72.2021 60.6408C72.2021 60.074 72.6609 59.6151 73.2278 59.6151C73.7946 59.6151 74.2534 60.074 74.2534 60.6408C74.2534 61.2076 73.7946 61.6665 73.2278 61.6665C72.6609 61.6665 72.2021 61.2076 72.2021 60.6408ZM75.8908 68.8058V60.6543C75.8908 60.0065 76.2821 59.6691 76.876 59.6691C77.4698 59.6691 77.8611 60.0065 77.8611 60.6543V63.3265H77.8881C78.2795 62.6922 78.9543 62.3278 79.8315 62.3278C81.9099 62.3278 82.8681 64.0957 82.8681 65.9851C82.8681 68.5358 81.424 69.737 79.7776 69.737C78.8193 69.737 78.0231 69.3321 77.6992 68.4954H77.6722V68.8058C77.6722 69.4131 77.3618 69.737 76.7815 69.737C76.1742 69.737 75.8908 69.4131 75.8908 68.8058ZM80.8977 66.0526C80.8977 65.1349 80.5873 63.8663 79.3322 63.8663C78.1311 63.8528 77.7532 65.0404 77.7532 66.0526C77.7532 67.1728 78.185 68.1984 79.3322 68.1984C80.3849 68.1715 80.8977 67.2133 80.8977 66.0526ZM90.6866 64.3521V67.6586C90.6866 68.4819 90.889 68.6708 90.889 68.9812C90.889 69.4266 90.4707 69.737 89.9983 69.737C89.1481 69.737 88.8647 69.1971 88.8377 68.5898C88.0684 69.4401 87.1777 69.737 86.1385 69.737C85.0183 69.737 83.9117 68.9677 83.9117 67.7261C83.9117 66.0931 85.1533 65.6342 86.6648 65.4588L87.866 65.3238C88.3383 65.2699 88.7162 65.1619 88.7162 64.5951C88.7162 64.0282 88.1359 63.7853 87.4746 63.7853C86.017 63.7853 85.9765 64.865 85.1938 64.865C84.6944 64.865 84.3571 64.5141 84.3571 64.1092C84.3571 63.3265 85.4637 62.3278 87.4881 62.3278C89.3775 62.3278 90.6866 62.9351 90.6866 64.3521ZM88.7162 67.0108V66.2416C88.5003 66.444 88.0954 66.5115 87.866 66.552L87.1507 66.6599C86.3274 66.7814 85.8821 67.0378 85.8821 67.6316C85.8821 68.077 86.3004 68.4414 86.9752 68.4414C88.0549 68.4414 88.7162 67.7396 88.7162 67.0108ZM102.644 66.4035H98.1901C98.1901 67.4427 98.8649 68.1984 100.012 68.1984C101.497 68.1984 101.497 67.2267 102.293 67.2267C102.765 67.2267 103.103 67.6316 103.103 67.996C103.103 69.1836 101.2 69.737 100.012 69.737C97.2589 69.737 96.2198 67.8745 96.2198 66.1606C96.2198 63.8663 97.6098 62.3278 99.9446 62.3278C102.212 62.3278 103.507 63.9338 103.507 65.5533C103.507 66.2281 103.305 66.4035 102.644 66.4035ZM98.1901 65.2699H101.645C101.537 64.3656 100.862 63.7043 99.9851 63.7043C98.9999 63.7043 98.4061 64.3117 98.1901 65.2699ZM104.888 68.7518V60.6543C104.888 60.0065 105.28 59.6691 105.873 59.6691C106.467 59.6691 106.859 60.0065 106.859 60.6543V68.7518C106.859 69.3996 106.467 69.737 105.873 69.737C105.28 69.737 104.888 69.3996 104.888 68.7518ZM108.536 68.8058V60.6543C108.536 60.0065 108.928 59.6691 109.522 59.6691C110.115 59.6691 110.507 60.0065 110.507 60.6543V63.3265H110.534C110.925 62.6922 111.6 62.3278 112.477 62.3278C114.555 62.3278 115.514 64.0957 115.514 65.9851C115.514 68.5358 114.07 69.737 112.423 69.737C111.465 69.737 110.669 69.3321 110.345 68.4954H110.318V68.8058C110.318 69.4131 110.007 69.737 109.427 69.737C108.82 69.737 108.536 69.4131 108.536 68.8058ZM113.543 66.0526C113.543 65.1349 113.233 63.8663 111.978 63.8663C110.777 63.8528 110.399 65.0404 110.399 66.0526C110.399 67.1728 110.831 68.1984 111.978 68.1984C113.03 68.1715 113.543 67.2133 113.543 66.0526ZM123.332 64.3521V67.6586C123.332 68.4819 123.535 68.6708 123.535 68.9812C123.535 69.4266 123.116 69.737 122.644 69.737C121.794 69.737 121.51 69.1971 121.483 68.5898C120.714 69.4401 119.823 69.737 118.784 69.737C117.664 69.737 116.557 68.9677 116.557 67.7261C116.557 66.0931 117.799 65.6342 119.31 65.4588L120.512 65.3238C120.984 65.2699 121.362 65.1619 121.362 64.5951C121.362 64.0282 120.781 63.7853 120.12 63.7853C118.663 63.7853 118.622 64.865 117.839 64.865C117.34 64.865 117.003 64.5141 117.003 64.1092C117.003 63.3265 118.109 62.3278 120.134 62.3278C122.023 62.3278 123.332 62.9351 123.332 64.3521ZM121.362 67.0108V66.2416C121.146 66.444 120.741 66.5115 120.512 66.552L119.796 66.6599C118.973 66.7814 118.528 67.0378 118.528 67.6316C118.528 68.077 118.946 68.4414 119.621 68.4414C120.701 68.4414 121.362 67.7396 121.362 67.0108ZM125.037 68.7518V63.313C125.037 62.7192 125.307 62.3278 125.928 62.3278C126.549 62.3278 126.819 62.7192 126.819 63.313V63.5694H126.846C127.399 62.8406 128.114 62.3278 129.234 62.3278C130.422 62.3278 131.718 62.9216 131.718 64.919V68.7518C131.718 69.2781 131.502 69.737 130.732 69.737C129.963 69.737 129.747 69.2781 129.747 68.7518V65.3103C129.747 64.5141 129.356 63.9473 128.506 63.9473C127.817 63.9473 127.007 64.5141 127.007 65.4993V68.7518C127.007 69.2781 126.792 69.737 126.022 69.737C125.253 69.737 125.037 69.2781 125.037 68.7518ZM133.287 68.7518V63.313C133.287 62.7192 133.557 62.3278 134.178 62.3278C134.799 62.3278 135.069 62.7192 135.069 63.313V63.5694H135.096C135.649 62.8406 136.364 62.3278 137.485 62.3278C138.672 62.3278 139.968 62.9216 139.968 64.919V68.7518C139.968 69.2781 139.752 69.737 138.983 69.737C138.213 69.737 137.997 69.2781 137.997 68.7518V65.3103C137.997 64.5141 137.606 63.9473 136.756 63.9473C136.068 63.9473 135.258 64.5141 135.258 65.4993V68.7518C135.258 69.2781 135.042 69.737 134.273 69.737C133.503 69.737 133.287 69.2781 133.287 68.7518ZM148.083 64.3521V67.6586C148.083 68.4819 148.286 68.6708 148.286 68.9812C148.286 69.4266 147.867 69.737 147.395 69.737C146.545 69.737 146.261 69.1971 146.234 68.5898C145.465 69.4401 144.574 69.737 143.535 69.737C142.415 69.737 141.308 68.9677 141.308 67.7261C141.308 66.0931 142.55 65.6342 144.062 65.4588L145.263 65.3238C145.735 65.2699 146.113 65.1619 146.113 64.5951C146.113 64.0282 145.533 63.7853 144.871 63.7853C143.414 63.7853 143.373 64.865 142.59 64.865C142.091 64.865 141.754 64.5141 141.754 64.1092C141.754 63.3265 142.86 62.3278 144.885 62.3278C146.774 62.3278 148.083 62.9351 148.083 64.3521ZM146.113 67.0108V66.2416C145.897 66.444 145.492 66.5115 145.263 66.552L144.547 66.6599C143.724 66.7814 143.279 67.0378 143.279 67.6316C143.279 68.077 143.697 68.4414 144.372 68.4414C145.452 68.4414 146.113 67.7396 146.113 67.0108Z" fill="#555555" fill-opacity="0.29"/>
<path d="M79.9041 330.952V323.827C79.9041 322.841 80.4169 322.531 81.1996 322.531H83.8988C86.3146 322.531 88.5279 323.584 88.5279 327.39C88.5279 330.467 86.8139 332.248 83.8583 332.248H81.1996C80.4169 332.248 79.9041 331.938 79.9041 330.952ZM82.1174 324.313V330.467H83.9798C85.7477 330.467 86.3146 328.888 86.3146 327.39C86.3146 325.473 85.5858 324.313 83.9663 324.313H82.1174ZM91.5751 328.712C91.5751 329.913 92.0744 330.966 93.2486 330.966C94.4227 330.966 94.922 329.913 94.922 328.712C94.922 327.43 94.3957 326.472 93.2486 326.472C92.1014 326.472 91.5751 327.43 91.5751 328.712ZM89.6047 328.712C89.6047 326.634 90.8733 325.014 93.2486 325.014C95.6238 325.014 96.8924 326.634 96.8924 328.712C96.8924 330.683 95.9342 332.423 93.2486 332.423C90.5629 332.423 89.6047 330.683 89.6047 328.712ZM98.1651 331.438V325.999C98.1651 325.406 98.4351 325.014 99.0559 325.014C99.6767 325.014 99.9466 325.406 99.9466 325.999V326.256H99.9736C100.527 325.527 101.242 325.014 102.362 325.014C103.55 325.014 104.846 325.608 104.846 327.605V331.438C104.846 331.965 104.63 332.423 103.86 332.423C103.091 332.423 102.875 331.965 102.875 331.438V327.997C102.875 327.201 102.484 326.634 101.634 326.634C100.945 326.634 100.136 327.201 100.136 328.186V331.438C100.136 331.965 99.9196 332.423 99.1503 332.423C98.3811 332.423 98.1651 331.965 98.1651 331.438ZM106.577 323.462C106.577 322.855 107.077 322.356 107.684 322.356C108.561 322.356 108.953 323.138 108.953 324.056C108.953 324.974 108.683 325.433 108.264 325.865C108.062 326.053 107.455 326.445 107.036 326.445C106.739 326.445 106.577 326.256 106.577 326.04C106.577 325.446 107.941 325.757 108.008 324.38C107.887 324.447 107.738 324.501 107.549 324.501C106.928 324.501 106.577 324.002 106.577 323.462ZM111.198 330.669V326.485H110.861C110.308 326.485 110.078 326.269 110.078 325.838C110.078 325.406 110.308 325.19 110.861 325.19H111.198V323.989C111.198 323.341 111.59 323.003 112.184 323.003C112.778 323.003 113.169 323.341 113.169 323.989V325.19H113.763C114.343 325.19 114.653 325.365 114.653 325.838C114.653 326.31 114.343 326.485 113.763 326.485H113.169V330.426C113.169 330.723 113.331 330.885 113.682 330.885H113.965C114.397 330.885 114.653 331.128 114.653 331.546C114.653 332.113 114.168 332.423 113.223 332.423C111.792 332.423 111.198 331.83 111.198 330.669ZM119.806 331.438V323.341C119.806 322.693 120.197 322.356 120.791 322.356C121.385 322.356 121.776 322.693 121.776 323.341V326.053H121.803C122.195 325.541 122.883 325.014 124.003 325.014C125.191 325.014 126.486 325.608 126.486 327.605V331.438C126.486 331.965 126.27 332.423 125.501 332.423C124.732 332.423 124.516 331.965 124.516 331.438V327.997C124.516 327.201 124.125 326.634 123.274 326.634C122.586 326.634 121.776 327.201 121.776 328.186V331.438C121.776 331.965 121.56 332.423 120.791 332.423C120.022 332.423 119.806 331.965 119.806 331.438ZM134.602 327.039V330.345C134.602 331.168 134.804 331.357 134.804 331.668C134.804 332.113 134.386 332.423 133.913 332.423C133.063 332.423 132.78 331.884 132.753 331.276C131.984 332.127 131.093 332.423 130.054 332.423C128.933 332.423 127.827 331.654 127.827 330.413C127.827 328.78 129.068 328.321 130.58 328.145L131.781 328.01C132.253 327.956 132.631 327.848 132.631 327.282C132.631 326.715 132.051 326.472 131.39 326.472C129.932 326.472 129.892 327.552 129.109 327.552C128.61 327.552 128.272 327.201 128.272 326.796C128.272 326.013 129.379 325.014 131.403 325.014C133.293 325.014 134.602 325.622 134.602 327.039ZM132.631 329.697V328.928C132.415 329.131 132.01 329.198 131.781 329.238L131.066 329.346C130.243 329.468 129.797 329.724 129.797 330.318C129.797 330.764 130.216 331.128 130.89 331.128C131.97 331.128 132.631 330.426 132.631 329.697ZM137.602 331.722L135.74 326.539C135.686 326.377 135.618 326.161 135.618 326.04C135.618 325.338 136.104 325.014 136.577 325.014C137.319 325.014 137.508 325.635 137.562 325.838L138.884 330.291H138.911L140.234 325.838C140.288 325.635 140.477 325.014 141.219 325.014C141.691 325.014 142.177 325.338 142.177 326.04C142.177 326.161 142.11 326.377 142.056 326.539L140.193 331.722C140.004 332.248 139.883 332.423 138.898 332.423C137.913 332.423 137.791 332.248 137.602 331.722ZM149.182 329.09H144.728C144.728 330.129 145.403 330.885 146.55 330.885C148.034 330.885 148.034 329.913 148.831 329.913C149.303 329.913 149.64 330.318 149.64 330.683C149.64 331.87 147.738 332.423 146.55 332.423C143.797 332.423 142.758 330.561 142.758 328.847C142.758 326.553 144.148 325.014 146.482 325.014C148.75 325.014 150.045 326.62 150.045 328.24C150.045 328.915 149.843 329.09 149.182 329.09ZM144.728 327.956H148.183C148.075 327.052 147.4 326.391 146.523 326.391C145.538 326.391 144.944 326.998 144.728 327.956ZM161.989 327.039V330.345C161.989 331.168 162.191 331.357 162.191 331.668C162.191 332.113 161.773 332.423 161.3 332.423C160.45 332.423 160.167 331.884 160.14 331.276C159.37 332.127 158.48 332.423 157.441 332.423C156.32 332.423 155.214 331.654 155.214 330.413C155.214 328.78 156.455 328.321 157.967 328.145L159.168 328.01C159.64 327.956 160.018 327.848 160.018 327.282C160.018 326.715 159.438 326.472 158.777 326.472C157.319 326.472 157.279 327.552 156.496 327.552C155.997 327.552 155.659 327.201 155.659 326.796C155.659 326.013 156.766 325.014 158.79 325.014C160.68 325.014 161.989 325.622 161.989 327.039ZM160.018 329.697V328.928C159.802 329.131 159.397 329.198 159.168 329.238L158.453 329.346C157.63 329.468 157.184 329.724 157.184 330.318C157.184 330.764 157.603 331.128 158.277 331.128C159.357 331.128 160.018 330.426 160.018 329.697ZM163.694 331.438V325.999C163.694 325.406 163.963 325.014 164.584 325.014C165.205 325.014 165.475 325.406 165.475 325.999V326.256H165.502C166.055 325.527 166.771 325.014 167.891 325.014C169.078 325.014 170.374 325.608 170.374 327.605V331.438C170.374 331.965 170.158 332.423 169.389 332.423C168.62 332.423 168.404 331.965 168.404 331.438V327.997C168.404 327.201 168.012 326.634 167.162 326.634C166.474 326.634 165.664 327.201 165.664 328.186V331.438C165.664 331.965 165.448 332.423 164.679 332.423C163.91 332.423 163.694 331.965 163.694 331.438ZM182.615 327.039V330.345C182.615 331.168 182.817 331.357 182.817 331.668C182.817 332.113 182.399 332.423 181.926 332.423C181.076 332.423 180.793 331.884 180.766 331.276C179.996 332.127 179.106 332.423 178.067 332.423C176.946 332.423 175.84 331.654 175.84 330.413C175.84 328.78 177.081 328.321 178.593 328.145L179.794 328.01C180.266 327.956 180.644 327.848 180.644 327.282C180.644 326.715 180.064 326.472 179.403 326.472C177.945 326.472 177.905 327.552 177.122 327.552C176.622 327.552 176.285 327.201 176.285 326.796C176.285 326.013 177.392 325.014 179.416 325.014C181.305 325.014 182.615 325.622 182.615 327.039ZM180.644 329.697V328.928C180.428 329.131 180.023 329.198 179.794 329.238L179.079 329.346C178.255 329.468 177.81 329.724 177.81 330.318C177.81 330.764 178.228 331.128 178.903 331.128C179.983 331.128 180.644 330.426 180.644 329.697ZM183.942 328.861C183.942 326.593 185.224 325.014 187.639 325.014C189.286 325.014 190.514 325.946 190.514 326.863C190.514 327.43 190.096 327.713 189.596 327.713C188.665 327.713 189.003 326.553 187.585 326.553C186.816 326.553 185.912 327.079 185.912 328.861C185.912 330.089 186.492 330.885 187.572 330.885C188.949 330.885 188.652 329.616 189.691 329.616C190.19 329.616 190.514 329.981 190.514 330.372C190.514 331.236 189.542 332.423 187.518 332.423C185.089 332.423 183.942 330.925 183.942 328.861ZM191.19 328.861C191.19 326.593 192.472 325.014 194.888 325.014C196.535 325.014 197.763 325.946 197.763 326.863C197.763 327.43 197.344 327.713 196.845 327.713C195.914 327.713 196.251 326.553 194.834 326.553C194.065 326.553 193.161 327.079 193.161 328.861C193.161 330.089 193.741 330.885 194.821 330.885C196.197 330.885 195.9 329.616 196.94 329.616C197.439 329.616 197.763 329.981 197.763 330.372C197.763 331.236 196.791 332.423 194.767 332.423C192.337 332.423 191.19 330.925 191.19 328.861ZM200.49 328.712C200.49 329.913 200.99 330.966 202.164 330.966C203.338 330.966 203.837 329.913 203.837 328.712C203.837 327.43 203.311 326.472 202.164 326.472C201.017 326.472 200.49 327.43 200.49 328.712ZM198.52 328.712C198.52 326.634 199.789 325.014 202.164 325.014C204.539 325.014 205.808 326.634 205.808 328.712C205.808 330.683 204.85 332.423 202.164 332.423C199.478 332.423 198.52 330.683 198.52 328.712ZM213.761 325.999V331.438C213.761 332.032 213.491 332.423 212.87 332.423C212.249 332.423 211.979 332.032 211.979 331.438V331.182H211.952C211.399 331.911 210.684 332.423 209.564 332.423C208.376 332.423 207.08 331.83 207.08 329.832V325.999C207.08 325.473 207.296 325.014 208.066 325.014C208.835 325.014 209.051 325.473 209.051 325.999V329.441C209.051 330.237 209.442 330.804 210.292 330.804C210.981 330.804 211.79 330.237 211.79 329.252V325.999C211.79 325.473 212.006 325.014 212.776 325.014C213.545 325.014 213.761 325.473 213.761 325.999ZM215.331 331.438V325.999C215.331 325.406 215.601 325.014 216.222 325.014C216.842 325.014 217.112 325.406 217.112 325.999V326.256H217.139C217.693 325.527 218.408 325.014 219.528 325.014C220.716 325.014 222.011 325.608 222.011 327.605V331.438C222.011 331.965 221.795 332.423 221.026 332.423C220.257 332.423 220.041 331.965 220.041 331.438V327.997C220.041 327.201 219.649 326.634 218.799 326.634C218.111 326.634 217.301 327.201 217.301 328.186V331.438C217.301 331.965 217.085 332.423 216.316 332.423C215.547 332.423 215.331 331.965 215.331 331.438ZM224.094 330.669V326.485H223.757C223.203 326.485 222.974 326.269 222.974 325.838C222.974 325.406 223.203 325.19 223.757 325.19H224.094V323.989C224.094 323.341 224.485 323.003 225.079 323.003C225.673 323.003 226.064 323.341 226.064 323.989V325.19H226.658C227.239 325.19 227.549 325.365 227.549 325.838C227.549 326.31 227.239 326.485 226.658 326.485H226.064V330.426C226.064 330.723 226.226 330.885 226.577 330.885H226.861C227.293 330.885 227.549 331.128 227.549 331.546C227.549 332.113 227.063 332.423 226.118 332.423C224.688 332.423 224.094 331.83 224.094 330.669ZM228.374 324.852C228.374 323.53 229.885 322.356 231.532 322.356C233.259 322.356 234.96 323.152 234.96 325.055C234.96 326.809 232.949 327.484 232.517 328.118C232.193 328.591 232.301 329.252 231.41 329.252C230.83 329.252 230.547 328.78 230.547 328.348C230.547 326.742 232.908 326.377 232.908 325.055C232.908 324.326 232.423 323.894 231.613 323.894C229.885 323.894 230.56 325.676 229.251 325.676C228.779 325.676 228.374 325.392 228.374 324.852ZM230.358 331.236C230.358 330.629 230.857 330.129 231.464 330.129C232.072 330.129 232.571 330.629 232.571 331.236C232.571 331.843 232.072 332.343 231.464 332.343C230.857 332.343 230.358 331.843 230.358 331.236Z" fill="#555555" fill-opacity="0.5"/>
<path d="M240.141 327.214C240.141 325.608 241.733 325.014 243.096 325.014C244.594 325.014 246.106 325.608 246.106 326.512C246.106 326.971 245.795 327.376 245.282 327.376C244.513 327.376 244.486 326.472 243.245 326.472C242.556 326.472 242.111 326.661 242.111 327.079C242.111 327.538 242.556 327.646 243.164 327.781L243.987 327.97C245.107 328.226 246.443 328.699 246.443 330.075C246.443 331.681 244.891 332.423 243.407 332.423C241.625 332.423 240.141 331.627 240.141 330.656C240.141 330.224 240.383 329.832 240.937 329.832C241.787 329.832 241.868 331.047 243.326 331.047C244.027 331.047 244.473 330.737 244.473 330.332C244.473 329.832 244.041 329.751 243.339 329.576L242.178 329.292C241.031 329.009 240.141 328.537 240.141 327.214ZM247.808 331.438V325.999C247.808 325.473 248.024 325.014 248.793 325.014C249.562 325.014 249.778 325.473 249.778 325.999V331.438C249.778 331.965 249.562 332.423 248.793 332.423C248.024 332.423 247.808 331.965 247.808 331.438ZM247.767 323.327C247.767 322.76 248.226 322.302 248.793 322.302C249.36 322.302 249.819 322.76 249.819 323.327C249.819 323.894 249.36 324.353 248.793 324.353C248.226 324.353 247.767 323.894 247.767 323.327ZM253.129 328.699C253.129 329.603 253.575 330.602 254.695 330.602C255.572 330.602 256.247 330.021 256.247 328.618C256.247 327.187 255.707 326.553 254.789 326.553C253.521 326.553 253.129 327.484 253.129 328.699ZM258.136 325.946V331.668C258.136 334.043 256.679 335.136 254.627 335.136C253.129 335.136 251.658 334.461 251.658 333.503C251.658 333.017 252.036 332.666 252.468 332.666C253.291 332.666 253.453 333.679 254.56 333.679C255.761 333.679 256.247 333.071 256.247 331.519V331.114H256.22C255.869 331.627 255.1 332.059 254.317 332.059C252.239 332.059 251.159 330.71 251.159 328.766C251.159 326.215 252.589 325.014 254.249 325.014C255.208 325.014 255.963 325.46 256.328 326.188H256.355V325.946C256.355 325.338 256.665 325.014 257.246 325.014C257.853 325.014 258.136 325.338 258.136 325.946ZM259.706 331.438V325.999C259.706 325.406 259.976 325.014 260.597 325.014C261.218 325.014 261.488 325.406 261.488 325.999V326.256H261.515C262.068 325.527 262.783 325.014 263.903 325.014C265.091 325.014 266.387 325.608 266.387 327.605V331.438C266.387 331.965 266.171 332.423 265.401 332.423C264.632 332.423 264.416 331.965 264.416 331.438V327.997C264.416 327.201 264.025 326.634 263.175 326.634C262.486 326.634 261.677 327.201 261.677 328.186V331.438C261.677 331.965 261.461 332.423 260.691 332.423C259.922 332.423 259.706 331.965 259.706 331.438ZM278.762 325.999V331.438C278.762 332.032 278.492 332.423 277.871 332.423C277.251 332.423 276.981 332.032 276.981 331.438V331.182H276.954C276.4 331.911 275.685 332.423 274.565 332.423C273.377 332.423 272.082 331.83 272.082 329.832V325.999C272.082 325.473 272.298 325.014 273.067 325.014C273.836 325.014 274.052 325.473 274.052 325.999V329.441C274.052 330.237 274.443 330.804 275.294 330.804C275.982 330.804 276.792 330.237 276.792 329.252V325.999C276.792 325.473 277.008 325.014 277.777 325.014C278.546 325.014 278.762 325.473 278.762 325.999ZM280.332 334.056V325.946C280.332 325.338 280.616 325.014 281.223 325.014C281.803 325.014 282.114 325.338 282.114 325.946V326.256H282.141C282.464 325.419 283.261 325.014 284.219 325.014C285.865 325.014 287.309 326.215 287.309 328.766C287.309 330.656 286.351 332.423 284.273 332.423C283.369 332.423 282.694 332.059 282.329 331.425H282.302V334.056C282.302 334.704 281.911 335.042 281.317 335.042C280.723 335.042 280.332 334.704 280.332 334.056ZM285.339 328.699C285.339 327.538 284.826 326.58 283.774 326.553C282.626 326.553 282.195 327.578 282.195 328.699C282.195 329.711 282.572 330.898 283.774 330.885C285.029 330.885 285.339 329.616 285.339 328.699Z" fill="#1E1E1E"/>
<path d="M49.0556 134.768V133.566C49.0556 133.175 49.2581 132.959 49.6225 132.959C49.9868 132.959 50.1893 133.175 50.1893 133.566V134.768L51.242 134.39C51.3499 134.349 51.4984 134.309 51.5928 134.309C51.7818 134.309 52.1462 134.498 52.1462 134.916C52.1462 135.172 51.9977 135.348 51.6738 135.442L50.4862 135.793L51.2959 136.846C51.3904 136.967 51.4579 137.089 51.4579 137.237C51.4579 137.696 51.0125 137.804 50.8506 137.804C50.6616 137.804 50.4862 137.737 50.3917 137.588L49.6225 136.441L48.8532 137.588C48.7587 137.737 48.5833 137.804 48.3943 137.804C48.2324 137.804 47.787 137.696 47.787 137.237C47.787 137.089 47.8545 136.967 47.949 136.846L48.7587 135.793L47.5711 135.442C47.2472 135.348 47.0987 135.172 47.0987 134.916C47.0987 134.498 47.4631 134.309 47.6521 134.309C47.7465 134.309 47.895 134.349 48.003 134.39L49.0556 134.768ZM55.3159 134.768V133.566C55.3159 133.175 55.5183 132.959 55.8827 132.959C56.2471 132.959 56.4495 133.175 56.4495 133.566V134.768L57.5022 134.39C57.6102 134.349 57.7586 134.309 57.8531 134.309C58.042 134.309 58.4064 134.498 58.4064 134.916C58.4064 135.172 58.258 135.348 57.9341 135.442L56.7464 135.793L57.5562 136.846C57.6507 136.967 57.7181 137.089 57.7181 137.237C57.7181 137.696 57.2728 137.804 57.1108 137.804C56.9219 137.804 56.7464 137.737 56.652 137.588L55.8827 136.441L55.1135 137.588C55.019 137.737 54.8435 137.804 54.6546 137.804C54.4927 137.804 54.0473 137.696 54.0473 137.237C54.0473 137.089 54.1148 136.967 54.2092 136.846L55.019 135.793L53.8314 135.442C53.5075 135.348 53.359 135.172 53.359 134.916C53.359 134.498 53.7234 134.309 53.9123 134.309C54.0068 134.309 54.1553 134.349 54.2632 134.39L55.3159 134.768ZM61.5762 134.768V133.566C61.5762 133.175 61.7786 132.959 62.143 132.959C62.5074 132.959 62.7098 133.175 62.7098 133.566V134.768L63.7625 134.39C63.8704 134.349 64.0189 134.309 64.1134 134.309C64.3023 134.309 64.6667 134.498 64.6667 134.916C64.6667 135.172 64.5182 135.348 64.1943 135.442L63.0067 135.793L63.8165 136.846C63.9109 136.967 63.9784 137.089 63.9784 137.237C63.9784 137.696 63.533 137.804 63.3711 137.804C63.1822 137.804 63.0067 137.737 62.9122 137.588L62.143 136.441L61.3737 137.588C61.2792 137.737 61.1038 137.804 60.9149 137.804C60.7529 137.804 60.3075 137.696 60.3075 137.237C60.3075 137.089 60.375 136.967 60.4695 136.846L61.2792 135.793L60.0916 135.442C59.7677 135.348 59.6193 135.172 59.6193 134.916C59.6193 134.498 59.9836 134.309 60.1726 134.309C60.2671 134.309 60.4155 134.349 60.5235 134.39L61.5762 134.768ZM67.8364 134.768V133.566C67.8364 133.175 68.0389 132.959 68.4032 132.959C68.7676 132.959 68.9701 133.175 68.9701 133.566V134.768L70.0227 134.39C70.1307 134.349 70.2792 134.309 70.3736 134.309C70.5626 134.309 70.927 134.498 70.927 134.916C70.927 135.172 70.7785 135.348 70.4546 135.442L69.267 135.793L70.0767 136.846C70.1712 136.967 70.2387 137.089 70.2387 137.237C70.2387 137.696 69.7933 137.804 69.6314 137.804C69.4424 137.804 69.267 137.737 69.1725 137.588L68.4032 136.441L67.634 137.588C67.5395 137.737 67.3641 137.804 67.1751 137.804C67.0132 137.804 66.5678 137.696 66.5678 137.237C66.5678 137.089 66.6353 136.967 66.7298 136.846L67.5395 135.793L66.3519 135.442C66.028 135.348 65.8795 135.172 65.8795 134.916C65.8795 134.498 66.2439 134.309 66.4329 134.309C66.5273 134.309 66.6758 134.349 66.7837 134.39L67.8364 134.768ZM74.0967 134.768V133.566C74.0967 133.175 74.2991 132.959 74.6635 132.959C75.0279 132.959 75.2303 133.175 75.2303 133.566V134.768L76.283 134.39C76.391 134.349 76.5394 134.309 76.6339 134.309C76.8228 134.309 77.1872 134.498 77.1872 134.916C77.1872 135.172 77.0388 135.348 76.7149 135.442L75.5272 135.793L76.337 136.846C76.4314 136.967 76.4989 137.089 76.4989 137.237C76.4989 137.696 76.0536 137.804 75.8916 137.804C75.7027 137.804 75.5272 137.737 75.4328 137.588L74.6635 136.441L73.8942 137.588C73.7998 137.737 73.6243 137.804 73.4354 137.804C73.2734 137.804 72.8281 137.696 72.8281 137.237C72.8281 137.089 72.8955 136.967 72.99 136.846L73.7998 135.793L72.6121 135.442C72.2882 135.348 72.1398 135.172 72.1398 134.916C72.1398 134.498 72.5042 134.309 72.6931 134.309C72.7876 134.309 72.936 134.349 73.044 134.39L74.0967 134.768ZM80.3569 134.768V133.566C80.3569 133.175 80.5594 132.959 80.9238 132.959C81.2881 132.959 81.4906 133.175 81.4906 133.566V134.768L82.5433 134.39C82.6512 134.349 82.7997 134.309 82.8941 134.309C83.0831 134.309 83.4475 134.498 83.4475 134.916C83.4475 135.172 83.299 135.348 82.9751 135.442L81.7875 135.793L82.5972 136.846C82.6917 136.967 82.7592 137.089 82.7592 137.237C82.7592 137.696 82.3138 137.804 82.1519 137.804C81.9629 137.804 81.7875 137.737 81.693 137.588L80.9238 136.441L80.1545 137.588C80.06 137.737 79.8846 137.804 79.6956 137.804C79.5337 137.804 79.0883 137.696 79.0883 137.237C79.0883 137.089 79.1558 136.967 79.2503 136.846L80.06 135.793L78.8724 135.442C78.5485 135.348 78.4 135.172 78.4 134.916C78.4 134.498 78.7644 134.309 78.9534 134.309C79.0478 134.309 79.1963 134.349 79.3043 134.39L80.3569 134.768ZM86.6172 134.768V133.566C86.6172 133.175 86.8196 132.959 87.184 132.959C87.5484 132.959 87.7508 133.175 87.7508 133.566V134.768L88.8035 134.39C88.9115 134.349 89.0599 134.309 89.1544 134.309C89.3433 134.309 89.7077 134.498 89.7077 134.916C89.7077 135.172 89.5593 135.348 89.2354 135.442L88.0477 135.793L88.8575 136.846C88.952 136.967 89.0194 137.089 89.0194 137.237C89.0194 137.696 88.5741 137.804 88.4121 137.804C88.2232 137.804 88.0477 137.737 87.9533 137.588L87.184 136.441L86.4148 137.588C86.3203 137.737 86.1448 137.804 85.9559 137.804C85.7939 137.804 85.3486 137.696 85.3486 137.237C85.3486 137.089 85.4161 136.967 85.5105 136.846L86.3203 135.793L85.1327 135.442C84.8088 135.348 84.6603 135.172 84.6603 134.916C84.6603 134.498 85.0247 134.309 85.2136 134.309C85.3081 134.309 85.4566 134.349 85.5645 134.39L86.6172 134.768ZM92.8775 134.768V133.566C92.8775 133.175 93.0799 132.959 93.4443 132.959C93.8087 132.959 94.0111 133.175 94.0111 133.566V134.768L95.0638 134.39C95.1717 134.349 95.3202 134.309 95.4147 134.309C95.6036 134.309 95.968 134.498 95.968 134.916C95.968 135.172 95.8195 135.348 95.4956 135.442L94.308 135.793L95.1178 136.846C95.2122 136.967 95.2797 137.089 95.2797 137.237C95.2797 137.696 94.8343 137.804 94.6724 137.804C94.4835 137.804 94.308 137.737 94.2135 137.588L93.4443 136.441L92.675 137.588C92.5805 137.737 92.4051 137.804 92.2162 137.804C92.0542 137.804 91.6088 137.696 91.6088 137.237C91.6088 137.089 91.6763 136.967 91.7708 136.846L92.5805 135.793L91.3929 135.442C91.069 135.348 90.9206 135.172 90.9206 134.916C90.9206 134.498 91.2849 134.309 91.4739 134.309C91.5684 134.309 91.7168 134.349 91.8248 134.39L92.8775 134.768ZM99.1377 134.768V133.566C99.1377 133.175 99.3401 132.959 99.7045 132.959C100.069 132.959 100.271 133.175 100.271 133.566V134.768L101.324 134.39C101.432 134.349 101.58 134.309 101.675 134.309C101.864 134.309 102.228 134.498 102.228 134.916C102.228 135.172 102.08 135.348 101.756 135.442L100.568 135.793L101.378 136.846C101.472 136.967 101.54 137.089 101.54 137.237C101.54 137.696 101.095 137.804 100.933 137.804C100.744 137.804 100.568 137.737 100.474 137.588L99.7045 136.441L98.9353 137.588C98.8408 137.737 98.6654 137.804 98.4764 137.804C98.3145 137.804 97.8691 137.696 97.8691 137.237C97.8691 137.089 97.9366 136.967 98.0311 136.846L98.8408 135.793L97.6532 135.442C97.3293 135.348 97.1808 135.172 97.1808 134.916C97.1808 134.498 97.5452 134.309 97.7341 134.309C97.8286 134.309 97.9771 134.349 98.085 134.39L99.1377 134.768ZM105.398 134.768V133.566C105.398 133.175 105.6 132.959 105.965 132.959C106.329 132.959 106.532 133.175 106.532 133.566V134.768L107.584 134.39C107.692 134.349 107.841 134.309 107.935 134.309C108.124 134.309 108.489 134.498 108.489 134.916C108.489 135.172 108.34 135.348 108.016 135.442L106.829 135.793L107.638 136.846C107.733 136.967 107.8 137.089 107.8 137.237C107.8 137.696 107.355 137.804 107.193 137.804C107.004 137.804 106.829 137.737 106.734 137.588L105.965 136.441L105.196 137.588C105.101 137.737 104.926 137.804 104.737 137.804C104.575 137.804 104.129 137.696 104.129 137.237C104.129 137.089 104.197 136.967 104.291 136.846L105.101 135.793L103.913 135.442C103.59 135.348 103.441 135.172 103.441 134.916C103.441 134.498 103.805 134.309 103.994 134.309C104.089 134.309 104.237 134.349 104.345 134.39L105.398 134.768ZM111.658 134.768V133.566C111.658 133.175 111.861 132.959 112.225 132.959C112.589 132.959 112.792 133.175 112.792 133.566V134.768L113.845 134.39C113.953 134.349 114.101 134.309 114.195 134.309C114.384 134.309 114.749 134.498 114.749 134.916C114.749 135.172 114.6 135.348 114.276 135.442L113.089 135.793L113.899 136.846C113.993 136.967 114.06 137.089 114.06 137.237C114.06 137.696 113.615 137.804 113.453 137.804C113.264 137.804 113.089 137.737 112.994 137.588L112.225 136.441L111.456 137.588C111.361 137.737 111.186 137.804 110.997 137.804C110.835 137.804 110.39 137.696 110.39 137.237C110.39 137.089 110.457 136.967 110.552 136.846L111.361 135.793L110.174 135.442C109.85 135.348 109.701 135.172 109.701 134.916C109.701 134.498 110.066 134.309 110.255 134.309C110.349 134.309 110.498 134.349 110.606 134.39L111.658 134.768Z" fill="#555555" fill-opacity="0.29"/>
<path d="M254.791 141.287V133.176C254.791 132.569 255.075 132.245 255.682 132.245C256.263 132.245 256.573 132.569 256.573 133.176V133.486H256.6C256.924 132.65 257.72 132.245 258.678 132.245C260.325 132.245 261.769 133.446 261.769 135.997C261.769 137.886 260.811 139.654 258.732 139.654C257.828 139.654 257.153 139.29 256.789 138.655H256.762V141.287C256.762 141.935 256.37 142.272 255.777 142.272C255.183 142.272 254.791 141.935 254.791 141.287ZM259.798 135.929C259.798 134.768 259.286 133.81 258.233 133.783C257.086 133.783 256.654 134.809 256.654 135.929C256.654 136.941 257.032 138.129 258.233 138.115C259.488 138.115 259.798 136.847 259.798 135.929ZM269.587 134.269V137.576C269.587 138.399 269.79 138.588 269.79 138.898C269.79 139.344 269.371 139.654 268.899 139.654C268.049 139.654 267.765 139.114 267.738 138.507C266.969 139.357 266.078 139.654 265.039 139.654C263.919 139.654 262.812 138.885 262.812 137.643C262.812 136.01 264.054 135.551 265.566 135.376L266.767 135.241C267.239 135.187 267.617 135.079 267.617 134.512C267.617 133.945 267.037 133.702 266.375 133.702C264.918 133.702 264.877 134.782 264.095 134.782C263.595 134.782 263.258 134.431 263.258 134.026C263.258 133.243 264.364 132.245 266.389 132.245C268.278 132.245 269.587 132.852 269.587 134.269ZM267.617 136.928V136.159C267.401 136.361 266.996 136.428 266.767 136.469L266.051 136.577C265.228 136.698 264.783 136.955 264.783 137.549C264.783 137.994 265.201 138.358 265.876 138.358C266.956 138.358 267.617 137.657 267.617 136.928ZM270.982 134.445C270.982 132.839 272.574 132.245 273.937 132.245C275.435 132.245 276.947 132.839 276.947 133.743C276.947 134.202 276.637 134.607 276.124 134.607C275.354 134.607 275.327 133.702 274.086 133.702C273.398 133.702 272.952 133.891 272.952 134.31C272.952 134.768 273.398 134.876 274.005 135.011L274.828 135.2C275.948 135.457 277.284 135.929 277.284 137.306C277.284 138.912 275.732 139.654 274.248 139.654C272.466 139.654 270.982 138.858 270.982 137.886C270.982 137.454 271.225 137.063 271.778 137.063C272.628 137.063 272.709 138.277 274.167 138.277C274.869 138.277 275.314 137.967 275.314 137.562C275.314 137.063 274.882 136.982 274.18 136.806L273.02 136.523C271.873 136.24 270.982 135.767 270.982 134.445ZM278.231 134.445C278.231 132.839 279.823 132.245 281.186 132.245C282.684 132.245 284.196 132.839 284.196 133.743C284.196 134.202 283.885 134.607 283.372 134.607C282.603 134.607 282.576 133.702 281.335 133.702C280.646 133.702 280.201 133.891 280.201 134.31C280.201 134.768 280.646 134.876 281.254 135.011L282.077 135.2C283.197 135.457 284.533 135.929 284.533 137.306C284.533 138.912 282.981 139.654 281.497 139.654C279.715 139.654 278.231 138.858 278.231 137.886C278.231 137.454 278.473 137.063 279.027 137.063C279.877 137.063 279.958 138.277 281.416 138.277C282.117 138.277 282.563 137.967 282.563 137.562C282.563 137.063 282.131 136.982 281.429 136.806L280.268 136.523C279.121 136.24 278.231 135.767 278.231 134.445ZM286.603 138.588L285.159 133.891C285.092 133.675 285.024 133.459 285.024 133.162C285.024 132.65 285.483 132.245 285.982 132.245C286.711 132.245 286.819 132.636 286.954 133.203L287.993 137.522H288.02L288.857 133.594C289.019 132.825 289.181 132.218 290.099 132.245C291.03 132.218 291.219 132.812 291.394 133.594L292.244 137.522H292.271L293.243 133.203C293.365 132.636 293.486 132.245 294.215 132.245C294.714 132.245 295.173 132.65 295.173 133.162C295.173 133.459 295.106 133.675 295.038 133.891L293.594 138.588C293.311 139.519 293.095 139.654 292.312 139.654C291.489 139.654 291.286 139.411 291.084 138.628L290.112 134.755H290.085L289.113 138.628C288.911 139.411 288.709 139.654 287.885 139.654C287.103 139.654 286.887 139.519 286.603 138.588ZM297.809 135.943C297.809 137.144 298.308 138.196 299.483 138.196C300.657 138.196 301.156 137.144 301.156 135.943C301.156 134.661 300.63 133.702 299.483 133.702C298.335 133.702 297.809 134.661 297.809 135.943ZM295.839 135.943C295.839 133.864 297.107 132.245 299.483 132.245C301.858 132.245 303.126 133.864 303.126 135.943C303.126 137.913 302.168 139.654 299.483 139.654C296.797 139.654 295.839 137.913 295.839 135.943ZM304.507 138.669V133.162C304.507 132.569 304.898 132.245 305.398 132.245C305.897 132.245 306.289 132.569 306.289 133.162V133.918H306.316C306.545 133.095 306.99 132.245 307.948 132.245C308.569 132.245 309.028 132.65 309.028 133.203C309.028 133.932 308.542 134.188 308.056 134.188H307.706C306.909 134.188 306.477 134.741 306.477 136.374V138.669C306.477 139.195 306.262 139.654 305.492 139.654C304.723 139.654 304.507 139.195 304.507 138.669ZM316.417 130.571V138.723C316.417 139.33 316.134 139.654 315.526 139.654C314.946 139.654 314.636 139.33 314.636 138.723V138.412H314.609C314.285 139.249 313.489 139.654 312.53 139.654C310.884 139.654 309.44 138.453 309.44 135.902C309.44 134.013 310.398 132.245 312.476 132.245C313.354 132.245 314.028 132.609 314.42 133.243H314.447V130.571C314.447 129.923 314.838 129.586 315.432 129.586C316.026 129.586 316.417 129.923 316.417 130.571ZM311.41 135.97C311.41 137.13 311.923 138.088 312.976 138.115C314.123 138.115 314.555 137.09 314.555 135.97C314.555 134.957 314.177 133.77 312.976 133.783C311.721 133.783 311.41 135.052 311.41 135.97Z" fill="#555555" fill-opacity="0.29"/>
<rect x="32.3541" y="109.233" width="301.031" height="50.5149" rx="6.09564" stroke="#1E1E1E" stroke-width="0.937791"/>
<rect x="32.3541" y="177.174" width="301.031" height="45.9517" rx="6.09564" fill="#4AB09C"/>
<rect x="32.3541" y="177.174" width="301.031" height="45.9517" rx="6.09564" stroke="#1E1E1E" stroke-width="0.937791"/>
<path d="M163.569 204.8V196.473C163.569 195.737 164.049 195.242 164.8 195.242C165.55 195.242 166.03 195.737 166.03 196.473V204.17H170.141C170.846 204.17 171.417 204.53 171.417 205.205C171.417 205.881 170.846 206.241 170.141 206.241H165.01C164.139 206.241 163.569 205.896 163.569 204.8ZM174.332 202.31C174.332 203.645 174.888 204.815 176.193 204.815C177.498 204.815 178.054 203.645 178.054 202.31C178.054 200.884 177.468 199.819 176.193 199.819C174.918 199.819 174.332 200.884 174.332 202.31ZM172.142 202.31C172.142 199.999 173.552 198.198 176.193 198.198C178.834 198.198 180.244 199.999 180.244 202.31C180.244 204.5 179.179 206.436 176.193 206.436C173.207 206.436 172.142 204.5 172.142 202.31ZM183.52 202.295C183.52 203.3 184.015 204.41 185.26 204.41C186.236 204.41 186.986 203.765 186.986 202.204C186.986 200.614 186.386 199.909 185.365 199.909C183.955 199.909 183.52 200.944 183.52 202.295ZM189.087 199.234V205.596C189.087 208.236 187.466 209.452 185.185 209.452C183.52 209.452 181.884 208.701 181.884 207.636C181.884 207.096 182.304 206.706 182.785 206.706C183.7 206.706 183.88 207.831 185.11 207.831C186.446 207.831 186.986 207.156 186.986 205.43V204.98H186.956C186.566 205.551 185.71 206.031 184.84 206.031C182.529 206.031 181.329 204.53 181.329 202.37C181.329 199.534 182.92 198.198 184.765 198.198C185.831 198.198 186.671 198.693 187.076 199.504H187.106V199.234C187.106 198.558 187.451 198.198 188.096 198.198C188.771 198.198 189.087 198.558 189.087 199.234ZM190.952 205.34V199.294C190.952 198.708 191.192 198.198 192.047 198.198C192.903 198.198 193.143 198.708 193.143 199.294V205.34C193.143 205.926 192.903 206.436 192.047 206.436C191.192 206.436 190.952 205.926 190.952 205.34ZM190.907 196.323C190.907 195.692 191.417 195.182 192.047 195.182C192.678 195.182 193.188 195.692 193.188 196.323C193.188 196.953 192.678 197.463 192.047 197.463C191.417 197.463 190.907 196.953 190.907 196.323ZM195.008 205.34V199.294C195.008 198.633 195.308 198.198 195.998 198.198C196.689 198.198 196.989 198.633 196.989 199.294V199.579H197.019C197.634 198.768 198.429 198.198 199.675 198.198C200.995 198.198 202.435 198.858 202.435 201.079V205.34C202.435 205.926 202.195 206.436 201.34 206.436C200.485 206.436 200.245 205.926 200.245 205.34V201.514C200.245 200.629 199.81 199.999 198.864 199.999C198.099 199.999 197.199 200.629 197.199 201.724V205.34C197.199 205.926 196.959 206.436 196.103 206.436C195.248 206.436 195.008 205.926 195.008 205.34Z" fill="#1E1E1E"/>
<rect x="31.8853" y="252.664" width="301.969" height="46.8895" rx="6.56453" fill="#1E1E1E"/>
<path d="M118.65 280.759V272.432C118.65 271.696 119.13 271.201 119.881 271.201C120.631 271.201 121.111 271.696 121.111 272.432V280.129H125.222C125.927 280.129 126.498 280.489 126.498 281.164C126.498 281.84 125.927 282.2 125.222 282.2H120.091C119.22 282.2 118.65 281.855 118.65 280.759ZM129.413 278.268C129.413 279.604 129.969 280.774 131.274 280.774C132.579 280.774 133.135 279.604 133.135 278.268C133.135 276.843 132.549 275.778 131.274 275.778C129.999 275.778 129.413 276.843 129.413 278.268ZM127.223 278.268C127.223 275.958 128.633 274.157 131.274 274.157C133.915 274.157 135.325 275.958 135.325 278.268C135.325 280.459 134.26 282.395 131.274 282.395C128.288 282.395 127.223 280.459 127.223 278.268ZM138.601 278.253C138.601 279.259 139.096 280.369 140.341 280.369C141.317 280.369 142.067 279.724 142.067 278.163C142.067 276.573 141.467 275.868 140.446 275.868C139.036 275.868 138.601 276.903 138.601 278.253ZM144.168 275.193V281.555C144.168 284.195 142.547 285.411 140.266 285.411C138.601 285.411 136.965 284.66 136.965 283.595C136.965 283.055 137.386 282.665 137.866 282.665C138.781 282.665 138.961 283.79 140.191 283.79C141.527 283.79 142.067 283.115 142.067 281.389V280.939H142.037C141.647 281.509 140.792 281.99 139.921 281.99C137.611 281.99 136.41 280.489 136.41 278.329C136.41 275.493 138.001 274.157 139.846 274.157C140.912 274.157 141.752 274.652 142.157 275.463H142.187V275.193C142.187 274.517 142.532 274.157 143.177 274.157C143.853 274.157 144.168 274.517 144.168 275.193ZM146.033 281.299V275.253C146.033 274.667 146.273 274.157 147.128 274.157C147.984 274.157 148.224 274.667 148.224 275.253V281.299C148.224 281.885 147.984 282.395 147.128 282.395C146.273 282.395 146.033 281.885 146.033 281.299ZM145.988 272.282C145.988 271.651 146.498 271.141 147.128 271.141C147.759 271.141 148.269 271.651 148.269 272.282C148.269 272.912 147.759 273.422 147.128 273.422C146.498 273.422 145.988 272.912 145.988 272.282ZM150.089 281.299V275.253C150.089 274.592 150.389 274.157 151.079 274.157C151.77 274.157 152.07 274.592 152.07 275.253V275.538H152.1C152.715 274.727 153.51 274.157 154.756 274.157C156.076 274.157 157.516 274.817 157.516 277.038V281.299C157.516 281.885 157.276 282.395 156.421 282.395C155.566 282.395 155.326 281.885 155.326 281.299V277.473C155.326 276.588 154.891 275.958 153.945 275.958C153.18 275.958 152.28 276.588 152.28 277.683V281.299C152.28 281.885 152.04 282.395 151.185 282.395C150.329 282.395 150.089 281.885 150.089 281.299ZM164.929 281.209L163.323 275.988C163.248 275.748 163.173 275.508 163.173 275.178C163.173 274.607 163.683 274.157 164.238 274.157C165.049 274.157 165.169 274.592 165.319 275.223L166.474 280.024H166.504L167.434 275.658C167.614 274.802 167.795 274.127 168.815 274.157C169.85 274.127 170.06 274.787 170.255 275.658L171.201 280.024H171.231L172.311 275.223C172.446 274.592 172.581 274.157 173.391 274.157C173.946 274.157 174.457 274.607 174.457 275.178C174.457 275.508 174.382 275.748 174.307 275.988L172.701 281.209C172.386 282.245 172.146 282.395 171.276 282.395C170.36 282.395 170.135 282.125 169.91 281.254L168.83 276.948H168.8L167.72 281.254C167.494 282.125 167.269 282.395 166.354 282.395C165.484 282.395 165.244 282.245 164.929 281.209ZM175.647 281.299V275.253C175.647 274.667 175.887 274.157 176.742 274.157C177.597 274.157 177.837 274.667 177.837 275.253V281.299C177.837 281.885 177.597 282.395 176.742 282.395C175.887 282.395 175.647 281.885 175.647 281.299ZM175.602 272.282C175.602 271.651 176.112 271.141 176.742 271.141C177.372 271.141 177.882 271.651 177.882 272.282C177.882 272.912 177.372 273.422 176.742 273.422C176.112 273.422 175.602 272.912 175.602 272.282ZM180.273 280.444V275.793H179.898C179.283 275.793 179.028 275.553 179.028 275.072C179.028 274.592 179.283 274.352 179.898 274.352H180.273V273.017C180.273 272.297 180.708 271.922 181.368 271.922C182.029 271.922 182.464 272.297 182.464 273.017V274.352H183.124C183.769 274.352 184.114 274.547 184.114 275.072C184.114 275.598 183.769 275.793 183.124 275.793H182.464V280.174C182.464 280.504 182.644 280.684 183.034 280.684H183.349C183.829 280.684 184.114 280.954 184.114 281.419C184.114 282.05 183.574 282.395 182.524 282.395C180.933 282.395 180.273 281.735 180.273 280.444ZM185.256 281.299V272.297C185.256 271.576 185.691 271.201 186.352 271.201C187.012 271.201 187.447 271.576 187.447 272.297V275.313H187.477C187.912 274.742 188.677 274.157 189.923 274.157C191.243 274.157 192.684 274.817 192.684 277.038V281.299C192.684 281.885 192.444 282.395 191.588 282.395C190.733 282.395 190.493 281.885 190.493 281.299V277.473C190.493 276.588 190.058 275.958 189.113 275.958C188.347 275.958 187.447 276.588 187.447 277.683V281.299C187.447 281.885 187.207 282.395 186.352 282.395C185.496 282.395 185.256 281.885 185.256 281.299ZM200.876 278.253C200.876 279.259 201.371 280.369 202.617 280.369C203.592 280.369 204.342 279.724 204.342 278.163C204.342 276.573 203.742 275.868 202.722 275.868C201.311 275.868 200.876 276.903 200.876 278.253ZM206.443 275.193V281.555C206.443 284.195 204.822 285.411 202.542 285.411C200.876 285.411 199.241 284.66 199.241 283.595C199.241 283.055 199.661 282.665 200.141 282.665C201.056 282.665 201.236 283.79 202.467 283.79C203.802 283.79 204.342 283.115 204.342 281.389V280.939H204.312C203.922 281.509 203.067 281.99 202.196 281.99C199.886 281.99 198.685 280.489 198.685 278.329C198.685 275.493 200.276 274.157 202.121 274.157C203.187 274.157 204.027 274.652 204.432 275.463H204.462V275.193C204.462 274.517 204.807 274.157 205.452 274.157C206.128 274.157 206.443 274.517 206.443 275.193ZM210.049 278.268C210.049 279.604 210.604 280.774 211.909 280.774C213.215 280.774 213.77 279.604 213.77 278.268C213.77 276.843 213.185 275.778 211.909 275.778C210.634 275.778 210.049 276.843 210.049 278.268ZM207.858 278.268C207.858 275.958 209.269 274.157 211.909 274.157C214.55 274.157 215.961 275.958 215.961 278.268C215.961 280.459 214.895 282.395 211.909 282.395C208.923 282.395 207.858 280.459 207.858 278.268ZM219.236 278.268C219.236 279.604 219.791 280.774 221.097 280.774C222.402 280.774 222.957 279.604 222.957 278.268C222.957 276.843 222.372 275.778 221.097 275.778C219.821 275.778 219.236 276.843 219.236 278.268ZM217.046 278.268C217.046 275.958 218.456 274.157 221.097 274.157C223.738 274.157 225.148 275.958 225.148 278.268C225.148 280.459 224.083 282.395 221.097 282.395C218.111 282.395 217.046 280.459 217.046 278.268ZM228.424 278.253C228.424 279.259 228.919 280.369 230.164 280.369C231.139 280.369 231.89 279.724 231.89 278.163C231.89 276.573 231.29 275.868 230.269 275.868C228.859 275.868 228.424 276.903 228.424 278.253ZM233.99 275.193V281.555C233.99 284.195 232.37 285.411 230.089 285.411C228.424 285.411 226.788 284.66 226.788 283.595C226.788 283.055 227.208 282.665 227.688 282.665C228.604 282.665 228.784 283.79 230.014 283.79C231.35 283.79 231.89 283.115 231.89 281.389V280.939H231.86C231.47 281.509 230.614 281.99 229.744 281.99C227.433 281.99 226.233 280.489 226.233 278.329C226.233 275.493 227.823 274.157 229.669 274.157C230.734 274.157 231.575 274.652 231.98 275.463H232.01V275.193C232.01 274.517 232.355 274.157 233 274.157C233.675 274.157 233.99 274.517 233.99 275.193ZM235.856 281.299V272.297C235.856 271.576 236.291 271.201 236.951 271.201C237.611 271.201 238.047 271.576 238.047 272.297V281.299C238.047 282.02 237.611 282.395 236.951 282.395C236.291 282.395 235.856 282.02 235.856 281.299ZM246.724 278.689H241.772C241.772 279.844 242.523 280.684 243.798 280.684C245.449 280.684 245.449 279.604 246.334 279.604C246.859 279.604 247.234 280.054 247.234 280.459C247.234 281.78 245.119 282.395 243.798 282.395C240.737 282.395 239.582 280.324 239.582 278.419C239.582 275.868 241.127 274.157 243.723 274.157C246.244 274.157 247.684 275.943 247.684 277.743C247.684 278.494 247.459 278.689 246.724 278.689ZM241.772 277.428H245.614C245.494 276.423 244.743 275.688 243.768 275.688C242.673 275.688 242.013 276.363 241.772 277.428Z" fill="#FFEECB"/>
<g clip-path="url(#clip0_65_2700)">
<path d="M96.0553 265.596C93.8065 266.376 91.8671 267.857 90.5221 269.82C89.177 271.784 88.4971 274.128 88.5823 276.506C88.6675 278.885 89.5133 281.174 90.9954 283.036C92.4775 284.899 94.5178 286.237 96.8166 286.854C98.6804 287.335 100.633 287.356 102.507 286.916C104.204 286.535 105.773 285.719 107.061 284.549C108.401 283.294 109.373 281.698 109.874 279.932C110.418 278.011 110.515 275.991 110.157 274.027H99.6916V278.368H105.753C105.631 279.061 105.372 279.722 104.989 280.311C104.607 280.901 104.109 281.408 103.527 281.801C102.787 282.291 101.952 282.62 101.077 282.768C100.2 282.931 99.2995 282.931 98.422 282.768C97.5326 282.584 96.6912 282.217 95.9515 281.69C94.7631 280.849 93.8708 279.654 93.4019 278.275C92.9252 276.871 92.9252 275.349 93.4019 273.944C93.7357 272.96 94.2875 272.064 95.0161 271.323C95.8499 270.459 96.9055 269.841 98.0671 269.538C99.2287 269.235 100.451 269.257 101.601 269.603C102.499 269.879 103.321 270.36 104 271.01C104.683 270.33 105.365 269.648 106.046 268.965C106.398 268.597 106.781 268.247 107.128 267.871C106.091 266.907 104.875 266.156 103.548 265.663C101.131 264.785 98.487 264.762 96.0553 265.596Z" fill="white"/>
<path d="M96.0551 265.597C98.4866 264.762 101.131 264.785 103.547 265.662C104.875 266.159 106.091 266.913 107.126 267.881C106.774 268.257 106.403 268.609 106.044 268.974C105.362 269.655 104.68 270.334 103.999 271.011C103.32 270.361 102.499 269.879 101.601 269.604C100.452 269.257 99.2289 269.233 98.067 269.535C96.9051 269.837 95.8488 270.454 95.0141 271.317C94.2855 272.058 93.7337 272.954 93.4 273.938L89.7549 271.116C91.0596 268.529 93.3186 266.55 96.0551 265.597Z" fill="#E33629"/>
<path d="M88.7874 273.911C88.9831 272.94 89.3084 272 89.7545 271.115L93.3995 273.944C92.9228 275.349 92.9228 276.871 93.3995 278.275C92.1851 279.213 90.9701 280.156 89.7545 281.103C88.6382 278.881 88.2977 276.349 88.7874 273.911Z" fill="#F8BD00"/>
<path d="M99.6917 274.026H110.157C110.515 275.99 110.418 278.01 109.874 279.931C109.374 281.697 108.401 283.294 107.061 284.548C105.885 283.631 104.703 282.72 103.527 281.802C104.11 281.408 104.608 280.901 104.99 280.311C105.373 279.721 105.632 279.059 105.753 278.366H99.6917C99.6899 276.921 99.6917 275.473 99.6917 274.026Z" fill="#587DBD"/>
<path d="M89.7529 281.103C90.9685 280.165 92.1836 279.223 93.398 278.275C93.8678 279.654 94.7614 280.849 95.9511 281.69C96.6931 282.215 97.5363 282.579 98.4269 282.759C99.3044 282.922 100.205 282.922 101.082 282.759C101.957 282.611 102.791 282.282 103.531 281.792C104.708 282.71 105.889 283.621 107.066 284.539C105.778 285.709 104.209 286.525 102.512 286.907C100.638 287.348 98.6852 287.327 96.8215 286.846C95.3475 286.452 93.9707 285.758 92.7773 284.808C91.5143 283.805 90.4827 282.541 89.7529 281.103Z" fill="#319F43"/>
</g>
<defs>
<clipPath id="clip0_65_2700">
<rect width="22.507" height="22.507" fill="white" transform="translate(88.2144 264.855)"/>
</clipPath>
</defs>
</svg>
