<svg width="794" height="271" viewBox="0 0 794 271" fill="none" xmlns="http://www.w3.org/2000/svg">
<rect x="0.5" y="0.5" width="793" height="270" rx="19.5" fill="#101010" stroke="#E0789C"/>
<path d="M236.376 107.88L205.656 164.424H189.72L159 107.88H176.472L197.688 146.568L218.904 107.88H236.376ZM312.958 151.56L300.094 164.424H252.958L240.094 151.56V120.744L252.958 107.88H300.094L312.958 120.744V151.56ZM295.87 151.848V120.456H257.182V151.848H295.87ZM396.844 164.424H379.756V150.6L374.572 145.512H341.932V164.424L324.844 174.216V107.88H383.98L396.844 125.256L387.052 138.408L396.844 148.2V164.424ZM379.276 126.408L374.764 120.456H341.932V132.648H374.764L379.276 126.408ZM470.34 107.88L457.764 120.456H440.964V164.424L423.876 174.216V120.456H407.076L394.5 107.88H470.34ZM545.899 107.88L533.323 120.552H495.307V130.44H537.643L526.123 141.96H495.307V151.848H543.883L531.211 164.52H478.219V107.88H545.899ZM628.334 164.424H608.078L589.934 146.28L571.79 164.424H551.438L579.758 136.2L551.438 107.784H571.79L589.934 126.024L608.078 107.784H628.334L600.014 136.2L628.334 164.424Z" fill="#FF7A00"/>
</svg>
