<svg width="291" height="65" viewBox="0 0 291 65" fill="none" xmlns="http://www.w3.org/2000/svg">
<path fill-rule="evenodd" clip-rule="evenodd" d="M0 6.08924V58.8627C0 60.4763 0.784685 62.0265 2.19213 63.1682C3.58712 64.31 5.49275 64.9519 7.47316 64.9519H47.33C51.4527 64.9519 54.8031 62.227 54.8031 58.8627V57.8478C54.8031 56.7263 53.6822 55.818 52.3121 55.818C50.942 55.818 49.821 56.7263 49.821 57.8478V58.8627C49.821 59.9841 48.7125 60.8924 47.33 60.8924H35.2861C35.8216 59.9688 36.1206 58.9362 36.1206 57.8478C36.1206 56.7593 35.8216 55.7267 35.2861 54.8032H47.33C49.3104 54.8032 51.216 54.1613 52.611 53.0195C54.0184 51.8778 54.8031 50.3276 54.8031 48.7139V6.08924C54.8031 4.47557 54.0185 2.92537 52.611 1.78364C51.216 0.64192 49.3104 0 47.33 0H7.47316C5.49275 0 3.58712 0.641907 2.19213 1.78364C0.784701 2.92537 0 4.47557 0 6.08924ZM27.4016 50.7437H47.33C47.9901 50.7437 48.6253 50.5305 49.0862 50.15C49.5595 49.7694 49.821 49.2518 49.821 48.7139V6.08927C49.821 5.55139 49.5595 5.0338 49.0862 4.65324C48.6253 4.27267 47.9901 4.05955 47.33 4.05955H7.47316C6.81303 4.05955 6.17781 4.27267 5.71698 4.65324C5.24368 5.03382 4.98212 5.5514 4.98212 6.08927V48.7139C4.98212 49.2518 5.24368 49.7694 5.71698 50.15C6.17783 50.5305 6.81305 50.7437 7.47316 50.7437H14.9463C16.3164 50.7437 17.4374 51.652 17.4374 52.7734C17.4374 53.8949 16.3164 54.8032 14.9463 54.8032H7.47316C6.61376 54.8032 5.77924 54.6839 4.9821 54.4556V58.8627C4.9821 59.4006 5.24366 59.9181 5.71697 60.2987C6.17781 60.6793 6.81303 60.8924 7.47314 60.8924H19.5171C18.9815 59.9688 18.6826 58.9362 18.6826 57.8478C18.6826 53.9278 22.5934 50.7437 27.4016 50.7437ZM27.4016 54.8032C29.4692 54.8032 31.1382 56.1682 31.1382 57.8478C31.1382 59.5274 29.4691 60.8924 27.4016 60.8924C25.334 60.8924 23.665 59.5274 23.665 57.8478C23.665 56.1682 25.334 54.8032 27.4016 54.8032ZM23.665 11.1633H31.1382C32.5083 11.1633 33.6292 10.255 33.6292 9.13354C33.6292 8.01208 32.5083 7.10379 31.1382 7.10379H23.665C22.2949 7.10379 21.1739 8.01208 21.1739 9.13354C21.1739 10.255 22.2949 11.1633 23.665 11.1633Z" fill="white"/>
<path d="M77.8875 19.1128V32.0375H85.8618C90.2504 32.0375 92.7657 29.6827 92.7657 25.5885C92.7657 21.5746 90.0898 19.1128 85.7013 19.1128H77.8875ZM77.8875 37.5232V52H70.9836V13.3863H86.6646C94.7727 13.3863 99.857 18.0424 99.857 25.4547C99.857 30.539 97.181 34.7937 92.5784 36.4528L101.008 52H93.1136L85.5407 37.5232H77.8875ZM133.226 46.0327V52H108.233V13.3863H133.226V19.3536H115.137V29.6024H132.236V35.2219H115.137V46.0327H133.226ZM141.789 13.3863H157.363C165.07 13.3863 170.341 18.6578 170.341 26.4448C170.341 34.098 164.882 39.3428 157.068 39.3428H148.693V52H141.789V13.3863ZM148.693 19.1663V33.6163H155.516C160.44 33.6163 163.33 31.0474 163.33 26.4448C163.33 21.7084 160.52 19.1663 155.543 19.1663H148.693ZM200.312 52L197.047 42.1258H182.838L179.52 52H172.535L186.236 13.3863H193.996L207.724 52H200.312ZM189.742 20.7451L184.443 36.6669H195.441L190.197 20.7451H189.742ZM221.264 19.1128V32.0375H229.238C233.627 32.0375 236.142 29.6827 236.142 25.5885C236.142 21.5746 233.466 19.1128 229.078 19.1128H221.264ZM221.264 37.5232V52H214.36V13.3863H230.041C238.149 13.3863 243.234 18.0424 243.234 25.4547C243.234 30.539 240.558 34.7937 235.955 36.4528L244.384 52H236.49L228.917 37.5232H221.264ZM268.28 12.4229C279.492 12.4229 286.503 20.2099 286.503 32.6797C286.503 45.1228 279.546 52.9633 268.28 52.9633C256.934 52.9633 249.977 45.1496 249.977 32.6797C249.977 20.2099 257.068 12.4229 268.28 12.4229ZM268.28 18.5508C261.403 18.5508 257.041 24.0365 257.041 32.6797C257.041 41.2963 261.296 46.8354 268.28 46.8354C275.157 46.8354 279.439 41.2963 279.439 32.6797C279.439 24.0365 275.131 18.5508 268.28 18.5508Z" fill="white"/>
</svg>
